M48
INCH,LZ
;FILE_FORMAT=2:4
;TYPE=PLATED
;Layer: PTH_Through
;EasyEDA v6.5.46, 2025-09-16 11:21:37
;d57bd40a603b42be9e37e0d49851eb9c,10
;Gerber Generator version 0.2
;Holesize 1 = 0.0120 inch
T01C0.0120
;Holesize 2 = 0.0360 inch
T02C0.0360
;Holesize 3 = 0.0400 inch
T03C0.0400
;Holesize 4 = 0.0590 inch
T04C0.0590
;Holesize 5 = 0.0670 inch
T05C0.0670
;Holesize 6 = 0.1340 inch
T06C0.1340
%
G05
G90
T01
X003400Y-002250
X003700Y-003700
X002500Y-021800
X005000Y-009150
X005550Y-008950
X009600Y-003850
X013550Y-011400
X007600Y-002250
X009000Y-011100
X010950Y-009350
X004900Y-011950
X006900Y-012850
X007700Y-010900
X007300Y-010750
X007250Y-009450
X006350Y-003700
X002850Y-009400
X002300Y-012250
X007300Y-003700
X004700Y-011500
X013150Y-012600
X010996Y-011650
X012950Y-013250
X007000Y-003850
X007900Y-007350
X008850Y-009300
X005050Y-015200
X005100Y-014600
X004050Y-013450
X002200Y-014100
X001950Y-016450
X003300Y-013250
X001600Y-018050
X002300Y-018050
X006500Y-009550
X004900Y-012800
X005500Y-014600
X003050Y-016900
X002400Y-017500
X002200Y-002550
X003150Y-003700
X004950Y-018650
X004750Y-016400
X004700Y-019050
X003600Y-016350
X004100Y-011250
X004450Y-012050
T02
X004050Y-013447
X005050Y-013447
X006050Y-013447
X007050Y-013453
T03
X011750Y-004950
X011750Y-005950
X011750Y-006950
X011750Y-007950
X011750Y-008950
X011750Y-009950
T04
X012800Y-021800
T05
X013800Y-022800
X013800Y-020800
X011800Y-020800
X011800Y-022800
T06
X001300Y-022595
X001300Y-020705
M30
