G04 Layer: TopSilkscreenLayer*
G04 EasyEDA v6.5.46, 2025-09-16 11:21:37*
G04 d57bd40a603b42be9e37e0d49851eb9c,10*
G04 Gerber Generator version 0.2*
G04 Scale: 100 percent, Rotated: No, Reflected: No *
G04 Dimensions in inches *
G04 leading zeros omitted , absolute positions ,3 integer and 6 decimal *
%FSLAX36Y36*%
%MOIN*%

%ADD10C,0.0080*%
%ADD11C,0.0100*%
%ADD12C,0.0050*%
%ADD13C,0.0197*%

%LPD*%
G36*
X877900Y-2241000D02*
G01*
X877900Y-2243300D01*
X884100Y-2244000D01*
X884200Y-2254800D01*
X884100Y-2282100D01*
X877900Y-2282700D01*
X877900Y-2285000D01*
X910500Y-2285000D01*
X911000Y-2272600D01*
X907600Y-2272600D01*
X905400Y-2282200D01*
X890300Y-2282200D01*
X890220Y-2273640D01*
X890220Y-2250460D01*
X890300Y-2244000D01*
X896500Y-2243300D01*
X896500Y-2241000D01*
G37*
G36*
X951600Y-2241000D02*
G01*
X951600Y-2243300D01*
X957700Y-2244000D01*
X957800Y-2262000D01*
X963800Y-2262000D01*
X963900Y-2243600D01*
X969599Y-2243600D01*
X972020Y-2243740D01*
X974080Y-2244180D01*
X975800Y-2244920D01*
X977180Y-2245920D01*
X978259Y-2247180D01*
X979000Y-2248700D01*
X979460Y-2250480D01*
X979599Y-2252500D01*
X979440Y-2254460D01*
X978960Y-2256260D01*
X978139Y-2257880D01*
X977020Y-2259280D01*
X975540Y-2260420D01*
X973740Y-2261280D01*
X971580Y-2261820D01*
X969100Y-2262000D01*
X957800Y-2262000D01*
X957700Y-2282100D01*
X951600Y-2282700D01*
X951600Y-2285000D01*
X970000Y-2285000D01*
X970000Y-2282700D01*
X963900Y-2282000D01*
X963800Y-2264500D01*
X967300Y-2264500D01*
X970780Y-2264780D01*
X973280Y-2265760D01*
X975020Y-2267740D01*
X976200Y-2271000D01*
X978900Y-2281500D01*
X979659Y-2283420D01*
X980980Y-2284720D01*
X982920Y-2285460D01*
X985600Y-2285700D01*
X988360Y-2285500D01*
X990600Y-2285000D01*
X990600Y-2282700D01*
X985500Y-2282200D01*
X982400Y-2271900D01*
X981120Y-2268620D01*
X979460Y-2266220D01*
X977300Y-2264580D01*
X974500Y-2263600D01*
X977140Y-2262960D01*
X979419Y-2262040D01*
X981380Y-2260880D01*
X982960Y-2259520D01*
X984200Y-2257960D01*
X985080Y-2256240D01*
X985620Y-2254420D01*
X985800Y-2252500D01*
X985520Y-2249940D01*
X984720Y-2247660D01*
X983420Y-2245700D01*
X981620Y-2244040D01*
X979340Y-2242740D01*
X976640Y-2241780D01*
X973520Y-2241200D01*
X970000Y-2241000D01*
G37*
G36*
X931900Y-2253000D02*
G01*
X929980Y-2253120D01*
X928100Y-2253480D01*
X926300Y-2254060D01*
X924560Y-2254880D01*
X922940Y-2255920D01*
X921460Y-2257200D01*
X920140Y-2258700D01*
X919000Y-2260420D01*
X918080Y-2262360D01*
X917380Y-2264520D01*
X916960Y-2266900D01*
X916800Y-2269500D01*
X922800Y-2269500D01*
X922960Y-2266280D01*
X923400Y-2263480D01*
X924140Y-2261080D01*
X925180Y-2259080D01*
X926480Y-2257540D01*
X928040Y-2256400D01*
X929840Y-2255720D01*
X931900Y-2255500D01*
X933920Y-2255720D01*
X935720Y-2256400D01*
X937260Y-2257540D01*
X938540Y-2259080D01*
X939560Y-2261080D01*
X940300Y-2263480D01*
X940740Y-2266280D01*
X940900Y-2269500D01*
X940740Y-2272700D01*
X940300Y-2275500D01*
X939560Y-2277860D01*
X938540Y-2279820D01*
X937260Y-2281340D01*
X935720Y-2282420D01*
X933920Y-2283080D01*
X931900Y-2283300D01*
X929840Y-2283080D01*
X928040Y-2282420D01*
X926480Y-2281340D01*
X925180Y-2279820D01*
X924140Y-2277860D01*
X923400Y-2275500D01*
X922960Y-2272700D01*
X922800Y-2269500D01*
X916800Y-2269500D01*
X916940Y-2272080D01*
X917380Y-2274460D01*
X918060Y-2276600D01*
X918980Y-2278520D01*
X920120Y-2280220D01*
X921420Y-2281700D01*
X922900Y-2282940D01*
X924520Y-2283980D01*
X926260Y-2284780D01*
X928080Y-2285340D01*
X929960Y-2285680D01*
X931900Y-2285800D01*
X933820Y-2285680D01*
X935699Y-2285340D01*
X937500Y-2284780D01*
X939240Y-2284000D01*
X940860Y-2282980D01*
X942340Y-2281740D01*
X943660Y-2280260D01*
X944800Y-2278580D01*
X945720Y-2276640D01*
X946420Y-2274500D01*
X946840Y-2272120D01*
X947000Y-2269500D01*
X946840Y-2266880D01*
X946400Y-2264500D01*
X945699Y-2262320D01*
X944780Y-2260380D01*
X943620Y-2258660D01*
X942300Y-2257160D01*
X940819Y-2255900D01*
X939200Y-2254860D01*
X937460Y-2254040D01*
X935660Y-2253460D01*
X933800Y-2253120D01*
G37*
G36*
X1008100Y-2253000D02*
G01*
X1005639Y-2253140D01*
X1003400Y-2253540D01*
X1001380Y-2254220D01*
X999620Y-2255140D01*
X998100Y-2256300D01*
X996900Y-2257680D01*
X995980Y-2259280D01*
X995400Y-2261100D01*
X995639Y-2262160D01*
X996220Y-2262960D01*
X997099Y-2263440D01*
X998300Y-2263600D01*
X999460Y-2263420D01*
X1000400Y-2262840D01*
X1001120Y-2261880D01*
X1001600Y-2260500D01*
X1002900Y-2256000D01*
X1004780Y-2255640D01*
X1006600Y-2255500D01*
X1009440Y-2255860D01*
X1011400Y-2257160D01*
X1012540Y-2259640D01*
X1012900Y-2263600D01*
X1012900Y-2265700D01*
X1008880Y-2266720D01*
X1005300Y-2267800D01*
X1002360Y-2268960D01*
X999980Y-2270100D01*
X998100Y-2271280D01*
X996680Y-2272460D01*
X995639Y-2273700D01*
X994980Y-2274980D01*
X994620Y-2276340D01*
X994573Y-2276900D01*
X1000000Y-2276900D01*
X1000260Y-2275080D01*
X1001260Y-2273220D01*
X1003340Y-2271420D01*
X1006800Y-2269700D01*
X1012900Y-2267700D01*
X1012900Y-2278200D01*
X1010500Y-2279980D01*
X1008620Y-2281140D01*
X1007020Y-2281800D01*
X1005400Y-2282000D01*
X1003240Y-2281700D01*
X1001540Y-2280760D01*
X1000400Y-2279180D01*
X1000000Y-2276900D01*
X994573Y-2276900D01*
X994500Y-2277800D01*
X995180Y-2281280D01*
X997039Y-2283780D01*
X999820Y-2285300D01*
X1003199Y-2285800D01*
X1005879Y-2285480D01*
X1008220Y-2284520D01*
X1010500Y-2282880D01*
X1013000Y-2280600D01*
X1013660Y-2282700D01*
X1014900Y-2284320D01*
X1016660Y-2285340D01*
X1018900Y-2285700D01*
X1020540Y-2285520D01*
X1022000Y-2284940D01*
X1023319Y-2283920D01*
X1024500Y-2282400D01*
X1023300Y-2281100D01*
X1022720Y-2281780D01*
X1022120Y-2282280D01*
X1021460Y-2282600D01*
X1020699Y-2282700D01*
X1019700Y-2282480D01*
X1018940Y-2281760D01*
X1018460Y-2280460D01*
X1018300Y-2278500D01*
X1018300Y-2264200D01*
X1018139Y-2261400D01*
X1017680Y-2259040D01*
X1016900Y-2257100D01*
X1015780Y-2255560D01*
X1014360Y-2254400D01*
X1012600Y-2253620D01*
X1010520Y-2253140D01*
G37*
G36*
X54000Y-1771000D02*
G01*
X53600Y-1773200D01*
X50780Y-1773280D01*
X43700Y-1773300D01*
X39300Y-1773200D01*
X39000Y-1773700D01*
X40800Y-1778700D01*
X41800Y-1778700D01*
X42000Y-1776000D01*
X53600Y-1776000D01*
X54000Y-1778500D01*
X55000Y-1778500D01*
X55000Y-1771000D01*
G37*
G36*
X33200Y-1772600D02*
G01*
X32380Y-1772760D01*
X31740Y-1773200D01*
X31340Y-1773860D01*
X31200Y-1774700D01*
X31340Y-1775540D01*
X31740Y-1776200D01*
X32380Y-1776639D01*
X33200Y-1776800D01*
X34020Y-1776639D01*
X34640Y-1776200D01*
X35060Y-1775540D01*
X35200Y-1774700D01*
X35060Y-1773860D01*
X34660Y-1773200D01*
X34020Y-1772760D01*
G37*
G36*
X47000Y-1781200D02*
G01*
X43640Y-1781680D01*
X41120Y-1782980D01*
X39540Y-1784960D01*
X39000Y-1787400D01*
X39104Y-1788400D01*
X40599Y-1788400D01*
X41020Y-1786680D01*
X42300Y-1785320D01*
X44400Y-1784420D01*
X47300Y-1784100D01*
X50240Y-1784460D01*
X52220Y-1785440D01*
X53339Y-1786840D01*
X53700Y-1788500D01*
X53600Y-1789480D01*
X53280Y-1790460D01*
X52720Y-1791459D01*
X51900Y-1792500D01*
X42500Y-1792500D01*
X41520Y-1791240D01*
X40960Y-1790140D01*
X40679Y-1789199D01*
X40599Y-1788400D01*
X39104Y-1788400D01*
X39140Y-1788740D01*
X39560Y-1790060D01*
X40300Y-1791320D01*
X41400Y-1792500D01*
X35600Y-1792500D01*
X30900Y-1792400D01*
X30700Y-1792800D01*
X32100Y-1797800D01*
X33100Y-1797800D01*
X33300Y-1795200D01*
X53600Y-1795200D01*
X54000Y-1797700D01*
X55000Y-1797700D01*
X55300Y-1792800D01*
X53099Y-1792500D01*
X54220Y-1791360D01*
X54920Y-1790200D01*
X55300Y-1789040D01*
X55400Y-1787900D01*
X54800Y-1785160D01*
X53080Y-1783040D01*
X50420Y-1781680D01*
G37*
G36*
X47300Y-1800000D02*
G01*
X43680Y-1800640D01*
X41080Y-1802320D01*
X39520Y-1804720D01*
X39000Y-1807500D01*
X40199Y-1807500D01*
X40660Y-1805620D01*
X42020Y-1804199D01*
X44260Y-1803300D01*
X47300Y-1803000D01*
X50279Y-1803300D01*
X52440Y-1804199D01*
X53760Y-1805620D01*
X54200Y-1807500D01*
X53760Y-1809420D01*
X52440Y-1810840D01*
X50279Y-1811699D01*
X47300Y-1812000D01*
X44240Y-1811699D01*
X42020Y-1810840D01*
X40660Y-1809420D01*
X40199Y-1807500D01*
X39000Y-1807500D01*
X39520Y-1810320D01*
X41080Y-1812720D01*
X43680Y-1814379D01*
X47300Y-1815000D01*
X50839Y-1814379D01*
X53380Y-1812720D01*
X54900Y-1810320D01*
X55400Y-1807500D01*
X54900Y-1804720D01*
X53380Y-1802320D01*
X50839Y-1800640D01*
G37*
G36*
X54000Y-1817500D02*
G01*
X53600Y-1819800D01*
X44900Y-1819900D01*
X42200Y-1820160D01*
X40380Y-1820940D01*
X39340Y-1822260D01*
X39000Y-1824100D01*
X39200Y-1825620D01*
X39780Y-1827160D01*
X40720Y-1828640D01*
X42000Y-1830000D01*
X39300Y-1830300D01*
X39000Y-1830700D01*
X40800Y-1835300D01*
X41800Y-1835300D01*
X42100Y-1832700D01*
X48099Y-1832600D01*
X53600Y-1832700D01*
X54000Y-1835100D01*
X55000Y-1835100D01*
X55000Y-1827600D01*
X54000Y-1827600D01*
X53600Y-1829800D01*
X50780Y-1829880D01*
X43200Y-1829900D01*
X42240Y-1828680D01*
X41580Y-1827520D01*
X41220Y-1826420D01*
X41100Y-1825300D01*
X41300Y-1824079D01*
X41960Y-1823240D01*
X43160Y-1822760D01*
X45000Y-1822600D01*
X53600Y-1822600D01*
X54000Y-1825100D01*
X55000Y-1825100D01*
X55000Y-1817500D01*
G37*
G36*
X54000Y-1837600D02*
G01*
X53600Y-1839800D01*
X50780Y-1839880D01*
X43700Y-1839900D01*
X39300Y-1839800D01*
X39000Y-1840300D01*
X40800Y-1845300D01*
X41800Y-1845300D01*
X42000Y-1842600D01*
X53600Y-1842600D01*
X54000Y-1845100D01*
X55000Y-1845100D01*
X55000Y-1837600D01*
G37*
G36*
X33200Y-1839199D02*
G01*
X32380Y-1839360D01*
X31740Y-1839800D01*
X31340Y-1840460D01*
X31200Y-1841300D01*
X31340Y-1842140D01*
X31740Y-1842800D01*
X32380Y-1843240D01*
X33200Y-1843400D01*
X34020Y-1843240D01*
X34640Y-1842800D01*
X35060Y-1842140D01*
X35200Y-1841300D01*
X35060Y-1840460D01*
X34660Y-1839800D01*
X34020Y-1839360D01*
G37*
G36*
X54000Y-1847300D02*
G01*
X53600Y-1849600D01*
X45000Y-1849700D01*
X42240Y-1849960D01*
X40380Y-1850740D01*
X39340Y-1852060D01*
X39000Y-1853899D01*
X39220Y-1855480D01*
X39840Y-1857040D01*
X40820Y-1858540D01*
X42100Y-1859900D01*
X35600Y-1859900D01*
X30900Y-1859800D01*
X30700Y-1860200D01*
X32100Y-1865200D01*
X33100Y-1865200D01*
X33300Y-1862500D01*
X53600Y-1862600D01*
X54000Y-1865100D01*
X55000Y-1865100D01*
X55000Y-1857500D01*
X54000Y-1857500D01*
X53600Y-1859800D01*
X43200Y-1859800D01*
X42200Y-1858520D01*
X41540Y-1857340D01*
X41200Y-1856220D01*
X41100Y-1855100D01*
X41280Y-1853920D01*
X41920Y-1853080D01*
X43120Y-1852560D01*
X45000Y-1852400D01*
X53600Y-1852400D01*
X54000Y-1854900D01*
X55000Y-1854900D01*
X55000Y-1847300D01*
G37*
G36*
X50700Y-1867000D02*
G01*
X49280Y-1867260D01*
X48019Y-1868060D01*
X46920Y-1869440D01*
X46000Y-1871500D01*
X45000Y-1874060D01*
X44380Y-1875020D01*
X43640Y-1875540D01*
X42699Y-1875700D01*
X41700Y-1875500D01*
X40940Y-1874880D01*
X40460Y-1873880D01*
X40300Y-1872500D01*
X40460Y-1871300D01*
X40900Y-1870100D01*
X43700Y-1869500D01*
X43700Y-1868000D01*
X40300Y-1867900D01*
X39760Y-1868959D01*
X39360Y-1870060D01*
X39100Y-1871220D01*
X39000Y-1872500D01*
X39360Y-1874960D01*
X40359Y-1876740D01*
X41820Y-1877820D01*
X43600Y-1878200D01*
X45080Y-1877920D01*
X46280Y-1877100D01*
X47240Y-1875840D01*
X48000Y-1874199D01*
X48500Y-1872700D01*
X49100Y-1871279D01*
X49780Y-1870320D01*
X50560Y-1869780D01*
X51500Y-1869600D01*
X52600Y-1869820D01*
X53460Y-1870520D01*
X54000Y-1871699D01*
X54200Y-1873400D01*
X54060Y-1874860D01*
X53600Y-1876100D01*
X50599Y-1876800D01*
X50599Y-1878400D01*
X54200Y-1878300D01*
X54720Y-1877120D01*
X55100Y-1875960D01*
X55320Y-1874740D01*
X55400Y-1873400D01*
X55039Y-1870620D01*
X54020Y-1868620D01*
X52539Y-1867400D01*
G37*
G36*
X1412700Y-1860300D02*
G01*
X1401000Y-1860800D01*
X1401000Y-1896800D01*
X1412700Y-1897400D01*
X1412700Y-1894100D01*
X1403899Y-1892300D01*
X1403899Y-1881900D01*
X1414800Y-1881800D01*
X1442000Y-1881900D01*
X1442700Y-1888700D01*
X1445000Y-1888700D01*
X1445000Y-1868899D01*
X1442700Y-1868899D01*
X1442000Y-1875700D01*
X1433320Y-1875780D01*
X1410440Y-1875780D01*
X1403899Y-1875700D01*
X1403899Y-1865400D01*
X1412700Y-1863500D01*
G37*
G36*
X1401000Y-1901300D02*
G01*
X1401000Y-1916800D01*
X1403300Y-1916800D01*
X1404100Y-1909800D01*
X1434600Y-1909700D01*
X1401000Y-1934000D01*
X1401000Y-1944100D01*
X1403300Y-1944100D01*
X1403899Y-1939400D01*
X1404700Y-1938800D01*
X1441900Y-1938899D01*
X1442700Y-1944400D01*
X1445000Y-1944400D01*
X1445000Y-1928899D01*
X1442700Y-1928899D01*
X1441800Y-1935900D01*
X1408600Y-1936000D01*
X1445400Y-1909199D01*
X1445400Y-1906800D01*
X1404100Y-1906800D01*
X1403300Y-1901300D01*
G37*
G36*
X1442700Y-1947000D02*
G01*
X1442100Y-1952200D01*
X1400700Y-1966399D01*
X1400700Y-1970000D01*
X1407400Y-1970000D01*
X1427800Y-1963100D01*
X1427800Y-1976699D01*
X1407400Y-1970000D01*
X1400700Y-1970000D01*
X1400700Y-1970200D01*
X1441900Y-1984199D01*
X1442700Y-1989500D01*
X1445000Y-1989500D01*
X1445000Y-1974900D01*
X1442700Y-1974900D01*
X1441900Y-1981300D01*
X1430400Y-1977500D01*
X1430400Y-1962300D01*
X1441900Y-1958400D01*
X1442700Y-1964900D01*
X1445000Y-1964900D01*
X1445000Y-1947000D01*
G37*
G36*
X697800Y-600300D02*
G01*
X691900Y-601000D01*
X686600Y-603100D01*
X682159Y-606320D01*
X678800Y-610600D01*
X676620Y-615720D01*
X675900Y-621500D01*
X681800Y-621500D01*
X681940Y-619300D01*
X682320Y-617200D01*
X682980Y-615200D01*
X683900Y-613300D01*
X685040Y-611600D01*
X686380Y-610080D01*
X687900Y-608740D01*
X689599Y-607600D01*
X691500Y-606720D01*
X693500Y-606100D01*
X695600Y-605720D01*
X697800Y-605600D01*
X700040Y-605720D01*
X702180Y-606100D01*
X704200Y-606720D01*
X706100Y-607600D01*
X707840Y-608740D01*
X709400Y-610080D01*
X710740Y-611600D01*
X711900Y-613300D01*
X712780Y-615200D01*
X713400Y-617200D01*
X713780Y-619300D01*
X713900Y-621500D01*
X713780Y-623660D01*
X713400Y-625720D01*
X712780Y-627700D01*
X711900Y-629600D01*
X710740Y-631300D01*
X709400Y-632820D01*
X707840Y-634160D01*
X706100Y-635300D01*
X704200Y-636180D01*
X702180Y-636800D01*
X700040Y-637180D01*
X697800Y-637300D01*
X695600Y-637180D01*
X693500Y-636800D01*
X691500Y-636180D01*
X689599Y-635300D01*
X687900Y-634160D01*
X686380Y-632820D01*
X685040Y-631300D01*
X683900Y-629600D01*
X682980Y-627700D01*
X682320Y-625720D01*
X681940Y-623660D01*
X681800Y-621500D01*
X675900Y-621500D01*
X676620Y-627200D01*
X678800Y-632300D01*
X682159Y-636580D01*
X686600Y-639800D01*
X691900Y-641900D01*
X697800Y-642600D01*
X703780Y-641900D01*
X709100Y-639800D01*
X713580Y-636580D01*
X717000Y-632300D01*
X719180Y-627140D01*
X719900Y-621500D01*
X719180Y-615780D01*
X717000Y-610600D01*
X713580Y-606320D01*
X709100Y-603100D01*
X703780Y-601000D01*
G37*
G36*
X629400Y-600300D02*
G01*
X627400Y-600400D01*
X625500Y-600700D01*
X623700Y-601200D01*
X622000Y-601900D01*
X620400Y-602820D01*
X618980Y-603900D01*
X617740Y-605120D01*
X616700Y-606500D01*
X615860Y-608060D01*
X615280Y-609720D01*
X614920Y-611500D01*
X614818Y-613100D01*
X620500Y-613100D01*
X620660Y-611380D01*
X621140Y-609840D01*
X621960Y-608480D01*
X623100Y-607300D01*
X624460Y-606340D01*
X626000Y-605660D01*
X627740Y-605240D01*
X629700Y-605100D01*
X631160Y-605160D01*
X632520Y-605380D01*
X633800Y-605720D01*
X635000Y-606200D01*
X636040Y-606800D01*
X636920Y-607480D01*
X637680Y-608240D01*
X638300Y-609100D01*
X638820Y-610020D01*
X639200Y-611000D01*
X639420Y-612020D01*
X639500Y-613100D01*
X639420Y-614180D01*
X639200Y-615200D01*
X638820Y-616180D01*
X638300Y-617100D01*
X637640Y-618000D01*
X636840Y-618780D01*
X635940Y-619440D01*
X634900Y-620000D01*
X633760Y-620480D01*
X632580Y-620820D01*
X631320Y-621040D01*
X630000Y-621100D01*
X627960Y-620960D01*
X626120Y-620560D01*
X624500Y-619860D01*
X623100Y-618900D01*
X621960Y-617740D01*
X621160Y-616400D01*
X620660Y-614840D01*
X620500Y-613100D01*
X614818Y-613100D01*
X614920Y-615200D01*
X615240Y-616880D01*
X615820Y-618440D01*
X616600Y-619900D01*
X617640Y-621260D01*
X618820Y-622440D01*
X620180Y-623460D01*
X621700Y-624300D01*
X623360Y-625000D01*
X625120Y-625500D01*
X627000Y-625800D01*
X629000Y-625900D01*
X630900Y-625820D01*
X632700Y-625560D01*
X634400Y-625120D01*
X636000Y-624500D01*
X637460Y-623720D01*
X638760Y-622800D01*
X639860Y-621720D01*
X640800Y-620500D01*
X640900Y-621900D01*
X639980Y-628600D01*
X637200Y-633500D01*
X632880Y-636500D01*
X627100Y-637500D01*
X624760Y-637380D01*
X622680Y-637020D01*
X620820Y-636440D01*
X619200Y-635600D01*
X617000Y-640200D01*
X618000Y-640759D01*
X620300Y-641660D01*
X622940Y-642260D01*
X625780Y-642560D01*
X627300Y-642600D01*
X632740Y-641979D01*
X637500Y-640100D01*
X641420Y-637000D01*
X644400Y-632700D01*
X646200Y-627300D01*
X646800Y-620900D01*
X646520Y-616280D01*
X645680Y-612200D01*
X644260Y-608680D01*
X642300Y-605700D01*
X639800Y-603340D01*
X636820Y-601640D01*
X633360Y-600640D01*
G37*
G36*
X514000Y-600300D02*
G01*
X511659Y-600460D01*
X509460Y-600920D01*
X507360Y-601700D01*
X505400Y-602800D01*
X503600Y-604200D01*
X502000Y-605880D01*
X500600Y-607840D01*
X499400Y-610100D01*
X497760Y-615340D01*
X497200Y-621500D01*
X503100Y-621500D01*
X503840Y-614620D01*
X506100Y-609600D01*
X507720Y-607840D01*
X509580Y-606600D01*
X511659Y-605860D01*
X514000Y-605600D01*
X518560Y-606600D01*
X522000Y-609600D01*
X524260Y-614620D01*
X525000Y-621500D01*
X524260Y-628300D01*
X522000Y-633300D01*
X518540Y-636300D01*
X514000Y-637300D01*
X511659Y-637040D01*
X509580Y-636300D01*
X507720Y-635060D01*
X506100Y-633300D01*
X503860Y-628300D01*
X503100Y-621500D01*
X497200Y-621500D01*
X497740Y-627580D01*
X499400Y-632800D01*
X500600Y-635060D01*
X502000Y-637020D01*
X503600Y-638700D01*
X505400Y-640100D01*
X507360Y-641200D01*
X509440Y-641979D01*
X511659Y-642440D01*
X514000Y-642600D01*
X516380Y-642440D01*
X518640Y-641979D01*
X520780Y-641200D01*
X522800Y-640100D01*
X524600Y-638700D01*
X526200Y-637020D01*
X527600Y-635060D01*
X528800Y-632800D01*
X530380Y-627580D01*
X530900Y-621500D01*
X530380Y-615340D01*
X528800Y-610100D01*
X527600Y-607840D01*
X526200Y-605880D01*
X524600Y-604200D01*
X522800Y-602800D01*
X520780Y-601700D01*
X518660Y-600920D01*
X516380Y-600460D01*
G37*
G36*
X768300Y-600800D02*
G01*
X768300Y-642099D01*
X774200Y-642099D01*
X774200Y-611300D01*
X799000Y-642099D01*
X803800Y-642099D01*
X803800Y-600800D01*
X797900Y-600800D01*
X797900Y-631600D01*
X773100Y-600800D01*
G37*
G36*
X725900Y-600800D02*
G01*
X725900Y-605900D01*
X750000Y-605900D01*
X750000Y-619300D01*
X729200Y-619300D01*
X729200Y-624300D01*
X750000Y-624300D01*
X750000Y-637000D01*
X726700Y-637000D01*
X726700Y-642099D01*
X755900Y-642099D01*
X755900Y-600800D01*
G37*
G36*
X563000Y-600800D02*
G01*
X563100Y-642099D01*
X567900Y-642099D01*
X584900Y-613100D01*
X602200Y-642099D01*
X607000Y-642099D01*
X607000Y-600800D01*
X601300Y-600800D01*
X601300Y-630700D01*
X586400Y-605800D01*
X583700Y-605800D01*
X568700Y-630900D01*
X568700Y-600800D01*
G37*
G36*
X653400Y-614500D02*
G01*
X653400Y-619400D01*
X669300Y-619400D01*
X669300Y-614500D01*
G37*
G36*
X537600Y-614500D02*
G01*
X537600Y-619400D01*
X553400Y-619400D01*
X553400Y-614500D01*
G37*
G36*
X962200Y-1457500D02*
G01*
X960060Y-1457640D01*
X957960Y-1458080D01*
X955939Y-1458820D01*
X954020Y-1459800D01*
X952220Y-1461060D01*
X950580Y-1462580D01*
X949100Y-1464360D01*
X947840Y-1466360D01*
X946820Y-1468600D01*
X946040Y-1471060D01*
X945560Y-1473720D01*
X945400Y-1476600D01*
X951100Y-1476600D01*
X951180Y-1474460D01*
X951380Y-1472380D01*
X951760Y-1470360D01*
X952260Y-1468440D01*
X952940Y-1466660D01*
X953760Y-1465020D01*
X954740Y-1463560D01*
X955900Y-1462320D01*
X957220Y-1461300D01*
X958700Y-1460540D01*
X960360Y-1460060D01*
X962200Y-1459900D01*
X964860Y-1460260D01*
X967099Y-1461300D01*
X968980Y-1462920D01*
X970500Y-1465020D01*
X971660Y-1467540D01*
X972460Y-1470360D01*
X972940Y-1473420D01*
X973100Y-1476600D01*
X973040Y-1478760D01*
X972820Y-1480860D01*
X972460Y-1482900D01*
X971960Y-1484820D01*
X971300Y-1486620D01*
X970500Y-1488260D01*
X969539Y-1489720D01*
X968400Y-1490980D01*
X967099Y-1492000D01*
X965639Y-1492760D01*
X964020Y-1493240D01*
X962200Y-1493400D01*
X960360Y-1493240D01*
X958700Y-1492760D01*
X957220Y-1492000D01*
X955900Y-1490980D01*
X954740Y-1489720D01*
X953760Y-1488260D01*
X952940Y-1486620D01*
X952260Y-1484820D01*
X951760Y-1482900D01*
X951380Y-1480860D01*
X951180Y-1478760D01*
X951100Y-1476600D01*
X945400Y-1476600D01*
X945560Y-1479600D01*
X946040Y-1482360D01*
X946800Y-1484880D01*
X947820Y-1487140D01*
X949080Y-1489139D01*
X950540Y-1490880D01*
X952180Y-1492380D01*
X953980Y-1493600D01*
X955900Y-1494560D01*
X957940Y-1495240D01*
X960040Y-1495660D01*
X962200Y-1495800D01*
X964340Y-1495660D01*
X966420Y-1495220D01*
X968420Y-1494500D01*
X970320Y-1493520D01*
X972099Y-1492260D01*
X973720Y-1490740D01*
X975160Y-1488959D01*
X976400Y-1486960D01*
X977420Y-1484700D01*
X978160Y-1482220D01*
X978640Y-1479520D01*
X978800Y-1476600D01*
X978640Y-1473640D01*
X978160Y-1470920D01*
X977400Y-1468420D01*
X976380Y-1466180D01*
X975140Y-1464180D01*
X973680Y-1462440D01*
X972060Y-1460940D01*
X970280Y-1459720D01*
X968379Y-1458760D01*
X966380Y-1458060D01*
X964320Y-1457640D01*
G37*
G36*
X1022400Y-1457600D02*
G01*
X1019920Y-1458000D01*
X1017580Y-1458560D01*
X1015400Y-1459300D01*
X1013360Y-1460180D01*
X1011480Y-1461220D01*
X1009740Y-1462420D01*
X1008160Y-1463720D01*
X1006740Y-1465160D01*
X1005480Y-1466720D01*
X1004400Y-1468360D01*
X1003460Y-1470120D01*
X1002680Y-1471960D01*
X1002080Y-1473880D01*
X1001640Y-1475860D01*
X1001380Y-1477900D01*
X1001326Y-1479300D01*
X1006100Y-1479300D01*
X1006100Y-1478200D01*
X1007760Y-1476980D01*
X1009520Y-1476140D01*
X1011340Y-1475660D01*
X1013100Y-1475500D01*
X1015759Y-1476040D01*
X1017820Y-1477660D01*
X1019140Y-1480440D01*
X1019599Y-1484400D01*
X1019140Y-1488420D01*
X1017840Y-1491279D01*
X1015840Y-1493020D01*
X1013300Y-1493600D01*
X1011700Y-1493380D01*
X1010280Y-1492700D01*
X1009040Y-1491579D01*
X1008020Y-1490020D01*
X1007200Y-1488000D01*
X1006600Y-1485540D01*
X1006220Y-1482640D01*
X1006100Y-1479300D01*
X1001326Y-1479300D01*
X1001300Y-1480000D01*
X1001500Y-1483520D01*
X1002120Y-1486620D01*
X1003100Y-1489319D01*
X1004460Y-1491560D01*
X1006160Y-1493340D01*
X1008180Y-1494640D01*
X1010500Y-1495440D01*
X1013100Y-1495700D01*
X1015480Y-1495500D01*
X1017640Y-1494900D01*
X1019539Y-1493899D01*
X1021180Y-1492540D01*
X1022500Y-1490820D01*
X1023480Y-1488740D01*
X1024080Y-1486339D01*
X1024300Y-1483600D01*
X1024120Y-1481200D01*
X1023580Y-1479060D01*
X1022720Y-1477180D01*
X1021560Y-1475580D01*
X1020120Y-1474319D01*
X1018439Y-1473380D01*
X1016520Y-1472800D01*
X1014400Y-1472600D01*
X1012180Y-1472840D01*
X1010040Y-1473540D01*
X1008020Y-1474660D01*
X1006200Y-1476200D01*
X1006540Y-1474019D01*
X1007039Y-1471980D01*
X1007720Y-1470060D01*
X1008580Y-1468300D01*
X1009640Y-1466660D01*
X1010879Y-1465180D01*
X1012340Y-1463820D01*
X1013980Y-1462600D01*
X1015840Y-1461519D01*
X1017900Y-1460580D01*
X1020180Y-1459760D01*
X1022700Y-1459100D01*
G37*
G36*
X872300Y-1458400D02*
G01*
X872300Y-1460300D01*
X876300Y-1460700D01*
X876800Y-1461399D01*
X876700Y-1492400D01*
X872099Y-1493100D01*
X872099Y-1495000D01*
X885100Y-1495000D01*
X885100Y-1493100D01*
X879200Y-1492400D01*
X879100Y-1464700D01*
X901500Y-1495300D01*
X903400Y-1495300D01*
X903500Y-1460900D01*
X908100Y-1460300D01*
X908100Y-1458400D01*
X895100Y-1458400D01*
X895100Y-1460300D01*
X901000Y-1460900D01*
X901000Y-1486399D01*
X880800Y-1458400D01*
G37*
G36*
X912200Y-1458400D02*
G01*
X912200Y-1460300D01*
X917300Y-1460800D01*
X917400Y-1481720D01*
X917300Y-1492600D01*
X912200Y-1493100D01*
X912200Y-1495000D01*
X940400Y-1495000D01*
X940699Y-1485300D01*
X938000Y-1485300D01*
X936600Y-1492600D01*
X922500Y-1492600D01*
X922400Y-1477400D01*
X930699Y-1477400D01*
X931500Y-1482800D01*
X933700Y-1482800D01*
X933700Y-1469900D01*
X931500Y-1469900D01*
X930699Y-1475300D01*
X922400Y-1475300D01*
X922500Y-1460700D01*
X935500Y-1460700D01*
X937000Y-1468000D01*
X939700Y-1468000D01*
X939400Y-1458400D01*
G37*
G36*
X1028600Y-1458400D02*
G01*
X1028600Y-1460300D01*
X1033600Y-1460900D01*
X1033600Y-1492400D01*
X1028600Y-1493100D01*
X1028600Y-1495000D01*
X1040900Y-1495000D01*
X1040900Y-1493100D01*
X1036100Y-1492400D01*
X1036060Y-1473860D01*
X1035800Y-1463600D01*
X1048600Y-1495000D01*
X1051000Y-1495000D01*
X1063300Y-1463500D01*
X1063200Y-1492600D01*
X1058400Y-1493100D01*
X1058400Y-1495000D01*
X1073300Y-1495000D01*
X1073300Y-1493100D01*
X1068300Y-1492600D01*
X1068200Y-1471680D01*
X1068300Y-1460800D01*
X1073400Y-1460300D01*
X1073400Y-1458400D01*
X1062800Y-1458400D01*
X1051000Y-1488800D01*
X1038600Y-1458400D01*
G37*
G36*
X984100Y-1479700D02*
G01*
X984100Y-1482800D01*
X996900Y-1482800D01*
X996900Y-1479700D01*
G37*
D10*
X829961Y-975774D02*
G01*
X829961Y-1032175D01*
X829961Y-975774D02*
G01*
X854161Y-975774D01*
X862260Y-978474D01*
X864861Y-981174D01*
X867560Y-986574D01*
X867560Y-991875D01*
X864861Y-997274D01*
X862260Y-999974D01*
X854161Y-1002674D01*
X829961Y-1002674D02*
G01*
X854161Y-1002674D01*
X862260Y-1005275D01*
X864861Y-1007975D01*
X867560Y-1013375D01*
X867560Y-1021475D01*
X864861Y-1026774D01*
X862260Y-1029475D01*
X854161Y-1032175D01*
X829961Y-1032175D01*
X917461Y-994574D02*
G01*
X917461Y-1032175D01*
X917461Y-1002674D02*
G01*
X912160Y-997274D01*
X906760Y-994574D01*
X898761Y-994574D01*
X893361Y-997274D01*
X887960Y-1002674D01*
X885261Y-1010675D01*
X885261Y-1016075D01*
X887960Y-1024074D01*
X893361Y-1029475D01*
X898761Y-1032175D01*
X906760Y-1032175D01*
X912160Y-1029475D01*
X917461Y-1024074D01*
X943261Y-975774D02*
G01*
X943261Y-1021475D01*
X945960Y-1029475D01*
X951360Y-1032175D01*
X956661Y-1032175D01*
X935261Y-994574D02*
G01*
X954061Y-994574D01*
X982461Y-975774D02*
G01*
X982461Y-1021475D01*
X985160Y-1029475D01*
X990560Y-1032175D01*
X995861Y-1032175D01*
X974461Y-994574D02*
G01*
X993161Y-994574D01*
X1016261Y-1018775D02*
G01*
X1013560Y-1021475D01*
X1016261Y-1024074D01*
X1018960Y-1021475D01*
X1016261Y-1018775D01*
X319331Y-131485D02*
G01*
X305030Y-169086D01*
X319331Y-131485D02*
G01*
X333631Y-169086D01*
X310331Y-156586D02*
G01*
X328231Y-156586D01*
X345430Y-144086D02*
G01*
X345430Y-169086D01*
X345430Y-151185D02*
G01*
X350830Y-145886D01*
X354430Y-144086D01*
X359731Y-144086D01*
X363330Y-145886D01*
X365131Y-151185D01*
X365131Y-169086D01*
X382330Y-131485D02*
G01*
X382330Y-161986D01*
X384131Y-167285D01*
X387631Y-169086D01*
X391230Y-169086D01*
X376930Y-144086D02*
G01*
X389430Y-144086D01*
X404830Y-160185D02*
G01*
X403031Y-161986D01*
X404830Y-163786D01*
X406631Y-161986D01*
X404830Y-160185D01*
D11*
X1175000Y-1725000D02*
G01*
X1385000Y-1725000D01*
X1175000Y-2021903D02*
G01*
X1175000Y-1725000D01*
X1385000Y-1845868D02*
G01*
X1175000Y-1845868D01*
X1175000Y-1820868D02*
G01*
X1385000Y-1845154D01*
X1385000Y-1819441D02*
G01*
X1175000Y-1819441D01*
X1175000Y-1793011D02*
G01*
X1385000Y-1817296D01*
X1385000Y-1791583D02*
G01*
X1175000Y-1791583D01*
X1175000Y-1767296D02*
G01*
X1385000Y-1791583D01*
X1385000Y-1765868D02*
G01*
X1175000Y-1765868D01*
X1385000Y-2021903D02*
G01*
X1385000Y-1725000D01*
X1226616Y-2315000D02*
G01*
X1333383Y-2315000D01*
X1145000Y-2126615D02*
G01*
X1145000Y-2233384D01*
X1333383Y-2045000D02*
G01*
X1226616Y-2045000D01*
X1415000Y-2233384D02*
G01*
X1415000Y-2126615D01*
D12*
X390039Y-1597910D02*
G01*
X390039Y-1590039D01*
X1019960Y-1590039D01*
X1019960Y-1597910D01*
X1019960Y-2212089D02*
G01*
X1019960Y-2219960D01*
X390039Y-2219960D01*
X390039Y-2212089D01*
X390039Y-1660909D02*
G01*
X390039Y-1676649D01*
X390039Y-1739650D02*
G01*
X390039Y-1755390D01*
X390039Y-1818389D02*
G01*
X390039Y-1834130D01*
X390039Y-1897130D02*
G01*
X390039Y-1912869D01*
X390039Y-1975870D02*
G01*
X390039Y-1991610D01*
X390039Y-2054609D02*
G01*
X390039Y-2070349D01*
X390039Y-2133350D02*
G01*
X390039Y-2149090D01*
X1019960Y-1660909D02*
G01*
X1019960Y-1676649D01*
X1019960Y-1739650D02*
G01*
X1019960Y-1755390D01*
X1019960Y-1818389D02*
G01*
X1019960Y-1834130D01*
X1019960Y-1897130D02*
G01*
X1019960Y-1912869D01*
X1019960Y-1975870D02*
G01*
X1019960Y-1991610D01*
X1019960Y-2054609D02*
G01*
X1019960Y-2070349D01*
X1019960Y-2133350D02*
G01*
X1019960Y-2149090D01*
D11*
X522500Y-1650000D02*
G01*
X717500Y-1650000D01*
X717500Y-1860000D01*
X522500Y-1860000D01*
X522500Y-1650000D01*
X1072719Y-1439724D02*
G01*
X37289Y-1439724D01*
X37289Y-30275D01*
X1072719Y-30275D01*
X1072719Y-1439724D01*
X425000Y-197494D02*
G01*
X285000Y-197494D01*
X285000Y-112494D01*
X425000Y-112494D01*
X425000Y-197494D01*
X855000Y-789994D02*
G01*
X315000Y-789994D01*
X315000Y-469994D01*
X855000Y-469994D01*
X855000Y-789994D01*
D13*
G75*
G01
X364840Y-1580000D02*
G03X364840Y-1580000I-9840J0D01*
D11*
G75*
G01
X1047800Y-1000000D02*
G03X1047800Y-1000000I-137800J0D01*
G75*
G01
X738430Y-165000D02*
G03X738430Y-165000I-98430J0D01*
G75*
G01
X1028740Y-145000D02*
G03X1028740Y-145000I-78740J0D01*
G75*
G01
X238740Y-145000D02*
G03X238740Y-145000I-78740J0D01*
G75*
G01
X1028740Y-1325000D02*
G03X1028740Y-1325000I-78740J0D01*
G75*
G01
X238740Y-1325000D02*
G03X238740Y-1325000I-78740J0D01*
M02*
