G04 Layer: TopLayer*
G04 EasyEDA v6.5.46, 2025-09-16 11:21:37*
G04 d57bd40a603b42be9e37e0d49851eb9c,10*
G04 Gerber Generator version 0.2*
G04 Scale: 100 percent, Rotated: No, Reflected: No *
G04 Dimensions in inches *
G04 leading zeros omitted , absolute positions ,3 integer and 6 decimal *
%FSLAX36Y36*%
%MOIN*%

%AMMACRO1*21,1,$1,$2,0,0,$3*%
%ADD10C,0.0100*%
%ADD11C,0.0477*%
%ADD12R,0.1299X0.0472*%
%ADD13C,0.0630*%
%ADD14MACRO1,0.0709X0.0709X90.0000*%
%ADD15C,0.1575*%
%ADD16C,0.0906*%
%ADD17C,0.0984*%
%ADD18C,0.0600*%
%ADD19C,0.0244*%
%ADD20C,0.0159*%

%LPD*%
G36*
X14200Y-2369800D02*
G01*
X12660Y-2369500D01*
X11379Y-2368620D01*
X10500Y-2367340D01*
X10200Y-2365800D01*
X10200Y-9200D01*
X10500Y-7660D01*
X11379Y-6380D01*
X12660Y-5500D01*
X14200Y-5200D01*
X1450800Y-5200D01*
X1452340Y-5500D01*
X1453620Y-6380D01*
X1454500Y-7660D01*
X1454800Y-9200D01*
X1454800Y-2365800D01*
X1454500Y-2367340D01*
X1453620Y-2368620D01*
X1452340Y-2369500D01*
X1450800Y-2369800D01*
X343519Y-2369800D01*
X341920Y-2369480D01*
X340600Y-2368540D01*
X339760Y-2367160D01*
X339520Y-2365560D01*
X339940Y-2363980D01*
X340959Y-2362720D01*
X342400Y-2361960D01*
X347740Y-2360400D01*
X354360Y-2357720D01*
X360640Y-2354360D01*
X366560Y-2350380D01*
X372040Y-2345820D01*
X377020Y-2340720D01*
X381440Y-2335120D01*
X385260Y-2329100D01*
X388459Y-2322720D01*
X390959Y-2316060D01*
X392780Y-2309160D01*
X393880Y-2302120D01*
X394240Y-2295000D01*
X393880Y-2287880D01*
X392780Y-2280840D01*
X390959Y-2273940D01*
X388459Y-2267280D01*
X385260Y-2260900D01*
X381440Y-2254880D01*
X377020Y-2249280D01*
X372040Y-2244180D01*
X366560Y-2239620D01*
X360640Y-2235640D01*
X354360Y-2232280D01*
X347740Y-2229600D01*
X340900Y-2227600D01*
X333900Y-2226320D01*
X326780Y-2225780D01*
X319660Y-2225960D01*
X312580Y-2226880D01*
X305640Y-2228520D01*
X298920Y-2230860D01*
X292460Y-2233880D01*
X286340Y-2237540D01*
X280640Y-2241820D01*
X275420Y-2246680D01*
X270700Y-2252020D01*
X266580Y-2257840D01*
X263060Y-2264040D01*
X260200Y-2270580D01*
X258039Y-2277360D01*
X256580Y-2284340D01*
X255840Y-2291440D01*
X255840Y-2298560D01*
X256580Y-2305660D01*
X258039Y-2312640D01*
X260200Y-2319420D01*
X263060Y-2325960D01*
X266580Y-2332160D01*
X270700Y-2337980D01*
X275420Y-2343320D01*
X280640Y-2348180D01*
X286340Y-2352460D01*
X292460Y-2356120D01*
X298920Y-2359140D01*
X305640Y-2361480D01*
X307440Y-2361900D01*
X308920Y-2362600D01*
X310020Y-2363860D01*
X310500Y-2365440D01*
X310300Y-2367080D01*
X309480Y-2368500D01*
X308140Y-2369460D01*
X306520Y-2369800D01*
G37*

%LPC*%
G36*
X171860Y-2337860D02*
G01*
X176820Y-2335100D01*
X183600Y-2330460D01*
X189920Y-2325220D01*
X195720Y-2319400D01*
X200960Y-2313080D01*
X205620Y-2306300D01*
X208359Y-2301360D01*
X171860Y-2301360D01*
G37*
G36*
X88120Y-2337860D02*
G01*
X88120Y-2301360D01*
X51620Y-2301360D01*
X54380Y-2306300D01*
X59020Y-2313080D01*
X64280Y-2319400D01*
X70080Y-2325220D01*
X76400Y-2330460D01*
X83180Y-2335100D01*
G37*
G36*
X1152900Y-2332780D02*
G01*
X1152900Y-2307100D01*
X1127220Y-2307100D01*
X1129700Y-2311600D01*
X1133560Y-2317040D01*
X1138000Y-2322000D01*
X1142960Y-2326440D01*
X1148400Y-2330300D01*
G37*
G36*
X1407100Y-2332780D02*
G01*
X1411600Y-2330300D01*
X1417040Y-2326440D01*
X1422000Y-2322000D01*
X1426440Y-2317040D01*
X1430300Y-2311600D01*
X1432780Y-2307100D01*
X1407100Y-2307100D01*
G37*
G36*
X1352900Y-2332780D02*
G01*
X1352900Y-2307100D01*
X1327220Y-2307100D01*
X1329700Y-2311600D01*
X1333560Y-2317040D01*
X1338000Y-2322000D01*
X1342960Y-2326440D01*
X1348400Y-2330300D01*
G37*
G36*
X1207100Y-2332780D02*
G01*
X1211600Y-2330300D01*
X1217040Y-2326440D01*
X1222000Y-2322000D01*
X1226440Y-2317040D01*
X1230300Y-2311600D01*
X1232780Y-2307100D01*
X1207100Y-2307100D01*
G37*
G36*
X1127220Y-2252900D02*
G01*
X1152900Y-2252900D01*
X1152900Y-2227220D01*
X1148400Y-2229700D01*
X1142960Y-2233560D01*
X1138000Y-2238000D01*
X1133560Y-2242960D01*
X1129700Y-2248400D01*
G37*
G36*
X1407100Y-2252900D02*
G01*
X1432780Y-2252900D01*
X1430300Y-2248400D01*
X1426440Y-2242960D01*
X1422000Y-2238000D01*
X1417040Y-2233560D01*
X1411600Y-2229700D01*
X1407100Y-2227220D01*
G37*
G36*
X1207100Y-2252900D02*
G01*
X1232780Y-2252900D01*
X1230300Y-2248400D01*
X1226440Y-2242960D01*
X1222000Y-2238000D01*
X1217040Y-2233560D01*
X1211600Y-2229700D01*
X1207100Y-2227220D01*
G37*
G36*
X1327220Y-2252900D02*
G01*
X1352900Y-2252900D01*
X1352900Y-2227220D01*
X1348400Y-2229700D01*
X1342960Y-2233560D01*
X1338000Y-2238000D01*
X1333560Y-2242960D01*
X1329700Y-2248400D01*
G37*
G36*
X1281579Y-2235440D02*
G01*
X1287900Y-2234900D01*
X1294100Y-2233640D01*
X1300120Y-2231680D01*
X1305880Y-2229060D01*
X1311300Y-2225780D01*
X1316320Y-2221920D01*
X1320860Y-2217500D01*
X1324880Y-2212600D01*
X1328300Y-2207280D01*
X1331100Y-2201600D01*
X1333220Y-2195620D01*
X1334660Y-2189460D01*
X1335380Y-2183160D01*
X1335380Y-2176840D01*
X1334660Y-2170540D01*
X1333220Y-2164380D01*
X1331100Y-2158400D01*
X1328300Y-2152720D01*
X1324880Y-2147400D01*
X1320860Y-2142500D01*
X1316320Y-2138080D01*
X1311300Y-2134220D01*
X1305880Y-2130940D01*
X1300120Y-2128320D01*
X1294100Y-2126360D01*
X1287900Y-2125100D01*
X1281579Y-2124560D01*
X1275260Y-2124740D01*
X1268980Y-2125640D01*
X1262860Y-2127240D01*
X1256960Y-2129540D01*
X1251360Y-2132500D01*
X1246120Y-2136080D01*
X1241340Y-2140220D01*
X1237180Y-2144760D01*
X1235840Y-2145720D01*
X1234240Y-2146060D01*
X1020060Y-2146560D01*
X1017000Y-2146780D01*
X955220Y-2146780D01*
X952740Y-2147060D01*
X950580Y-2147800D01*
X948660Y-2149020D01*
X947039Y-2150620D01*
X945840Y-2152560D01*
X945080Y-2154700D01*
X944800Y-2157200D01*
X944800Y-2203980D01*
X945080Y-2206480D01*
X945840Y-2208620D01*
X947039Y-2210560D01*
X948660Y-2212160D01*
X950580Y-2213380D01*
X952740Y-2214120D01*
X955220Y-2214420D01*
X1016700Y-2214420D01*
X1020220Y-2214640D01*
X1234400Y-2214160D01*
X1236020Y-2214480D01*
X1237360Y-2215440D01*
X1241340Y-2219780D01*
X1246120Y-2223920D01*
X1251360Y-2227500D01*
X1256960Y-2230460D01*
X1262860Y-2232760D01*
X1268980Y-2234360D01*
X1275260Y-2235260D01*
G37*
G36*
X171860Y-2217620D02*
G01*
X208359Y-2217620D01*
X205620Y-2212660D01*
X200960Y-2205900D01*
X195720Y-2199580D01*
X189920Y-2193760D01*
X183600Y-2188520D01*
X176820Y-2183880D01*
X171860Y-2181120D01*
G37*
G36*
X51620Y-2217620D02*
G01*
X88120Y-2217620D01*
X88120Y-2181120D01*
X83180Y-2183880D01*
X76400Y-2188520D01*
X70080Y-2193760D01*
X64280Y-2199580D01*
X59020Y-2205900D01*
X54380Y-2212660D01*
G37*
G36*
X425020Y-2214420D02*
G01*
X454780Y-2214420D01*
X457260Y-2214120D01*
X459420Y-2213380D01*
X461340Y-2212160D01*
X462960Y-2210560D01*
X464159Y-2208620D01*
X464920Y-2206480D01*
X465200Y-2203980D01*
X465200Y-2194900D01*
X425020Y-2194900D01*
G37*
G36*
X325300Y-2214420D02*
G01*
X355060Y-2214420D01*
X355060Y-2194900D01*
X314880Y-2194900D01*
X314880Y-2203980D01*
X315160Y-2206480D01*
X315920Y-2208620D01*
X317120Y-2210560D01*
X318740Y-2212160D01*
X320660Y-2213380D01*
X322819Y-2214120D01*
G37*
G36*
X314880Y-2166280D02*
G01*
X355060Y-2166280D01*
X355060Y-2146780D01*
X325300Y-2146780D01*
X322819Y-2147060D01*
X320660Y-2147800D01*
X318740Y-2149020D01*
X317120Y-2150620D01*
X315920Y-2152560D01*
X315160Y-2154700D01*
X314880Y-2157200D01*
G37*
G36*
X425020Y-2166280D02*
G01*
X465200Y-2166280D01*
X465200Y-2157200D01*
X464920Y-2154700D01*
X464159Y-2152560D01*
X462960Y-2150620D01*
X461340Y-2149020D01*
X459420Y-2147800D01*
X457260Y-2147060D01*
X454780Y-2146780D01*
X425020Y-2146780D01*
G37*
G36*
X130000Y-2159440D02*
G01*
X138200Y-2159060D01*
X146340Y-2157940D01*
X154340Y-2156060D01*
X162120Y-2153440D01*
X169640Y-2150120D01*
X176820Y-2146120D01*
X183600Y-2141480D01*
X189920Y-2136240D01*
X195720Y-2130420D01*
X200960Y-2124100D01*
X205620Y-2117320D01*
X209600Y-2110160D01*
X212920Y-2102640D01*
X215539Y-2094840D01*
X217420Y-2086860D01*
X218560Y-2078720D01*
X218939Y-2070520D01*
X218560Y-2062300D01*
X217420Y-2054160D01*
X215539Y-2046180D01*
X212920Y-2038380D01*
X209600Y-2030860D01*
X205620Y-2023700D01*
X200960Y-2016920D01*
X195720Y-2010600D01*
X189920Y-2004780D01*
X183600Y-1999540D01*
X176820Y-1994900D01*
X169640Y-1990900D01*
X162120Y-1987580D01*
X154340Y-1984980D01*
X146340Y-1983080D01*
X138200Y-1981960D01*
X130000Y-1981579D01*
X121800Y-1981960D01*
X113660Y-1983080D01*
X105660Y-1984980D01*
X97860Y-1987580D01*
X90360Y-1990900D01*
X83180Y-1994900D01*
X76400Y-1999540D01*
X70080Y-2004780D01*
X64280Y-2010600D01*
X59020Y-2016920D01*
X54380Y-2023700D01*
X50380Y-2030860D01*
X47060Y-2038380D01*
X44460Y-2046180D01*
X42580Y-2054160D01*
X41440Y-2062300D01*
X41060Y-2070520D01*
X41440Y-2078720D01*
X42580Y-2086860D01*
X44460Y-2094840D01*
X47060Y-2102640D01*
X50380Y-2110160D01*
X54380Y-2117320D01*
X59020Y-2124100D01*
X64280Y-2130420D01*
X70080Y-2136240D01*
X76400Y-2141480D01*
X83180Y-2146120D01*
X90360Y-2150120D01*
X97860Y-2153440D01*
X105660Y-2156060D01*
X113660Y-2157940D01*
X121800Y-2159060D01*
G37*
G36*
X325300Y-2135680D02*
G01*
X454780Y-2135680D01*
X457260Y-2135400D01*
X459420Y-2134640D01*
X461340Y-2133420D01*
X462960Y-2131820D01*
X464180Y-2129880D01*
X464920Y-2127740D01*
X465200Y-2125240D01*
X465200Y-2078460D01*
X464920Y-2075960D01*
X464180Y-2073820D01*
X462960Y-2071879D01*
X461340Y-2070280D01*
X459420Y-2069060D01*
X457260Y-2068320D01*
X454780Y-2068040D01*
X325300Y-2068040D01*
X322819Y-2068320D01*
X320660Y-2069060D01*
X318740Y-2070280D01*
X317120Y-2071879D01*
X315920Y-2073820D01*
X315160Y-2075960D01*
X314880Y-2078460D01*
X314880Y-2125240D01*
X315160Y-2127740D01*
X315920Y-2129880D01*
X317120Y-2131820D01*
X318740Y-2133420D01*
X320660Y-2134640D01*
X322819Y-2135400D01*
G37*
G36*
X955220Y-2135680D02*
G01*
X1084700Y-2135680D01*
X1087180Y-2135380D01*
X1089340Y-2134640D01*
X1091260Y-2133420D01*
X1092880Y-2131820D01*
X1094080Y-2129880D01*
X1094840Y-2127740D01*
X1095120Y-2125240D01*
X1095120Y-2078460D01*
X1094840Y-2075960D01*
X1094080Y-2073820D01*
X1092880Y-2071879D01*
X1091260Y-2070280D01*
X1089340Y-2069060D01*
X1087180Y-2068320D01*
X1084700Y-2068040D01*
X955220Y-2068040D01*
X952740Y-2068320D01*
X950580Y-2069060D01*
X948660Y-2070280D01*
X947039Y-2071879D01*
X945840Y-2073820D01*
X945080Y-2075960D01*
X944800Y-2078460D01*
X944800Y-2125240D01*
X945080Y-2127740D01*
X945840Y-2129880D01*
X947039Y-2131820D01*
X948660Y-2133420D01*
X950580Y-2134640D01*
X952740Y-2135380D01*
G37*
G36*
X1152900Y-2132780D02*
G01*
X1152900Y-2107100D01*
X1127220Y-2107100D01*
X1129700Y-2111600D01*
X1133560Y-2117040D01*
X1138000Y-2122000D01*
X1142960Y-2126440D01*
X1148400Y-2130300D01*
G37*
G36*
X1352900Y-2132780D02*
G01*
X1352900Y-2107100D01*
X1327220Y-2107100D01*
X1329700Y-2111600D01*
X1333560Y-2117040D01*
X1338000Y-2122000D01*
X1342960Y-2126440D01*
X1348400Y-2130300D01*
G37*
G36*
X1207100Y-2132780D02*
G01*
X1211600Y-2130300D01*
X1217040Y-2126440D01*
X1222000Y-2122000D01*
X1226440Y-2117040D01*
X1230300Y-2111600D01*
X1232780Y-2107100D01*
X1207100Y-2107100D01*
G37*
G36*
X1407100Y-2132780D02*
G01*
X1411600Y-2130300D01*
X1417040Y-2126440D01*
X1422000Y-2122000D01*
X1426440Y-2117040D01*
X1430300Y-2111600D01*
X1432780Y-2107100D01*
X1407100Y-2107100D01*
G37*
G36*
X955220Y-2056940D02*
G01*
X1084700Y-2056940D01*
X1087180Y-2056639D01*
X1089340Y-2055900D01*
X1091260Y-2054680D01*
X1092880Y-2053080D01*
X1094080Y-2051140D01*
X1094840Y-2049000D01*
X1095120Y-2046500D01*
X1095120Y-1999720D01*
X1094840Y-1997220D01*
X1094080Y-1995080D01*
X1092880Y-1993140D01*
X1091260Y-1991540D01*
X1089340Y-1990320D01*
X1087180Y-1989580D01*
X1084700Y-1989300D01*
X955220Y-1989300D01*
X952740Y-1989580D01*
X950580Y-1990320D01*
X948660Y-1991540D01*
X947039Y-1993140D01*
X945840Y-1995080D01*
X945080Y-1997220D01*
X944800Y-1999720D01*
X944800Y-2046500D01*
X945080Y-2049000D01*
X945840Y-2051140D01*
X947039Y-2053080D01*
X948660Y-2054680D01*
X950580Y-2055900D01*
X952740Y-2056639D01*
G37*
G36*
X325300Y-2056940D02*
G01*
X454780Y-2056940D01*
X457260Y-2056639D01*
X459420Y-2055900D01*
X461340Y-2054680D01*
X462960Y-2053080D01*
X464159Y-2051140D01*
X464920Y-2049000D01*
X465200Y-2046500D01*
X465200Y-1999720D01*
X464920Y-1997220D01*
X464159Y-1995080D01*
X462960Y-1993140D01*
X461340Y-1991540D01*
X459420Y-1990320D01*
X457260Y-1989580D01*
X454780Y-1989300D01*
X325300Y-1989300D01*
X322819Y-1989580D01*
X320660Y-1990320D01*
X318740Y-1991540D01*
X317120Y-1993140D01*
X315920Y-1995080D01*
X315160Y-1997220D01*
X314880Y-1999720D01*
X314880Y-2003899D01*
X314580Y-2005440D01*
X313700Y-2006720D01*
X312420Y-2007600D01*
X310880Y-2007900D01*
X276060Y-2007900D01*
X274520Y-2007600D01*
X273220Y-2006720D01*
X201380Y-1934880D01*
X200500Y-1933580D01*
X200200Y-1932040D01*
X200200Y-1812960D01*
X200500Y-1811420D01*
X201380Y-1810120D01*
X201900Y-1809600D01*
X203240Y-1808720D01*
X204800Y-1808440D01*
X206360Y-1808779D01*
X207659Y-1809720D01*
X208500Y-1811100D01*
X209600Y-1814220D01*
X211439Y-1817540D01*
X213840Y-1820500D01*
X216680Y-1823000D01*
X219920Y-1825000D01*
X223440Y-1826399D01*
X227160Y-1827200D01*
X230960Y-1827380D01*
X234720Y-1826879D01*
X238340Y-1825780D01*
X241740Y-1824060D01*
X244800Y-1821800D01*
X247420Y-1819060D01*
X249540Y-1815920D01*
X251119Y-1812460D01*
X251560Y-1810700D01*
X251960Y-1809720D01*
X252620Y-1808880D01*
X258220Y-1803280D01*
X259520Y-1802400D01*
X261060Y-1802100D01*
X310880Y-1802100D01*
X312420Y-1802400D01*
X313700Y-1803280D01*
X314580Y-1804560D01*
X314880Y-1806100D01*
X314880Y-1810280D01*
X315160Y-1812780D01*
X315920Y-1814920D01*
X317120Y-1816860D01*
X318740Y-1818460D01*
X320660Y-1819680D01*
X322819Y-1820420D01*
X325300Y-1820720D01*
X454780Y-1820720D01*
X457260Y-1820420D01*
X459420Y-1819680D01*
X461340Y-1818460D01*
X462960Y-1816860D01*
X464159Y-1814920D01*
X464920Y-1812780D01*
X465200Y-1810280D01*
X465200Y-1763500D01*
X464920Y-1761000D01*
X464159Y-1758860D01*
X462960Y-1756920D01*
X461340Y-1755320D01*
X459420Y-1754100D01*
X457260Y-1753360D01*
X454780Y-1753080D01*
X325300Y-1753080D01*
X322819Y-1753360D01*
X320660Y-1754100D01*
X318740Y-1755320D01*
X317120Y-1756920D01*
X315920Y-1758860D01*
X315160Y-1761000D01*
X314880Y-1763500D01*
X314880Y-1767700D01*
X314580Y-1769240D01*
X313700Y-1770520D01*
X312420Y-1771399D01*
X310880Y-1771699D01*
X259480Y-1771699D01*
X257960Y-1771399D01*
X256680Y-1770540D01*
X255799Y-1769259D01*
X255479Y-1767760D01*
X255760Y-1766240D01*
X256600Y-1764940D01*
X257420Y-1764060D01*
X259540Y-1760920D01*
X261119Y-1757460D01*
X262060Y-1753779D01*
X262400Y-1750000D01*
X262060Y-1746220D01*
X261119Y-1742540D01*
X259540Y-1739079D01*
X257420Y-1735940D01*
X254800Y-1733200D01*
X251840Y-1731000D01*
X250760Y-1729820D01*
X250240Y-1728280D01*
X250380Y-1726680D01*
X251119Y-1725260D01*
X252620Y-1723440D01*
X254020Y-1720800D01*
X254880Y-1717960D01*
X255200Y-1714800D01*
X255200Y-1447960D01*
X255500Y-1446420D01*
X256380Y-1445120D01*
X332980Y-1368520D01*
X334260Y-1367660D01*
X335800Y-1367360D01*
X337340Y-1367660D01*
X338620Y-1368520D01*
X339500Y-1369820D01*
X339799Y-1371360D01*
X339799Y-1522040D01*
X339500Y-1523580D01*
X338620Y-1524880D01*
X294400Y-1569120D01*
X292380Y-1571560D01*
X290980Y-1574199D01*
X290120Y-1577040D01*
X289800Y-1580200D01*
X289800Y-1671900D01*
X289580Y-1673240D01*
X288920Y-1674420D01*
X286440Y-1677460D01*
X284600Y-1680780D01*
X283340Y-1684360D01*
X282700Y-1688100D01*
X282700Y-1691900D01*
X283340Y-1695640D01*
X284600Y-1699220D01*
X286440Y-1702540D01*
X288840Y-1705500D01*
X291680Y-1708000D01*
X294920Y-1710000D01*
X298440Y-1711399D01*
X302160Y-1712200D01*
X305960Y-1712380D01*
X311200Y-1711720D01*
X312620Y-1712120D01*
X313820Y-1713000D01*
X314600Y-1714259D01*
X314880Y-1715720D01*
X314880Y-1731540D01*
X315160Y-1734040D01*
X315920Y-1736180D01*
X317120Y-1738120D01*
X318740Y-1739720D01*
X320660Y-1740940D01*
X322819Y-1741680D01*
X325300Y-1741980D01*
X454780Y-1741980D01*
X457260Y-1741680D01*
X459420Y-1740940D01*
X461340Y-1739720D01*
X462960Y-1738120D01*
X464159Y-1736180D01*
X464920Y-1734040D01*
X465200Y-1731540D01*
X465200Y-1712960D01*
X465500Y-1711420D01*
X466380Y-1710120D01*
X540600Y-1635880D01*
X542620Y-1633440D01*
X544020Y-1630800D01*
X544880Y-1627960D01*
X545200Y-1624800D01*
X545200Y-1487960D01*
X545500Y-1486420D01*
X546380Y-1485120D01*
X547960Y-1483540D01*
X549340Y-1482640D01*
X554720Y-1481879D01*
X558340Y-1480780D01*
X561740Y-1479060D01*
X564800Y-1476800D01*
X567420Y-1474060D01*
X569540Y-1470920D01*
X571120Y-1467460D01*
X572060Y-1463779D01*
X572400Y-1460000D01*
X572060Y-1456220D01*
X571120Y-1452540D01*
X569540Y-1449079D01*
X567420Y-1445940D01*
X564800Y-1443200D01*
X561740Y-1440940D01*
X558340Y-1439220D01*
X554720Y-1438120D01*
X550960Y-1437620D01*
X547160Y-1437800D01*
X543440Y-1438600D01*
X539920Y-1440000D01*
X536680Y-1442000D01*
X533840Y-1444500D01*
X533140Y-1445380D01*
X531820Y-1446440D01*
X530180Y-1446860D01*
X528520Y-1446579D01*
X527140Y-1445640D01*
X524800Y-1443200D01*
X521740Y-1440940D01*
X518340Y-1439220D01*
X514720Y-1438120D01*
X510959Y-1437620D01*
X507160Y-1437800D01*
X503440Y-1438600D01*
X499920Y-1440000D01*
X496680Y-1442000D01*
X495840Y-1442740D01*
X494540Y-1443500D01*
X493040Y-1443740D01*
X491560Y-1443380D01*
X490319Y-1442500D01*
X489480Y-1441220D01*
X489200Y-1439740D01*
X489200Y-1434199D01*
X488880Y-1431040D01*
X488020Y-1428200D01*
X486620Y-1425560D01*
X484600Y-1423120D01*
X471380Y-1409880D01*
X470500Y-1408580D01*
X470200Y-1407040D01*
X470200Y-1376380D01*
X470480Y-1374900D01*
X471300Y-1373620D01*
X472520Y-1372740D01*
X473980Y-1372380D01*
X475480Y-1372580D01*
X476780Y-1373320D01*
X481160Y-1377040D01*
X485680Y-1379940D01*
X490560Y-1382200D01*
X495680Y-1383779D01*
X500980Y-1384680D01*
X506340Y-1384860D01*
X511680Y-1384319D01*
X516900Y-1383080D01*
X521920Y-1381140D01*
X526620Y-1378560D01*
X530940Y-1375380D01*
X534800Y-1371639D01*
X538140Y-1367440D01*
X540880Y-1362820D01*
X542960Y-1357860D01*
X544380Y-1352700D01*
X545100Y-1347360D01*
X545100Y-1342000D01*
X544380Y-1336680D01*
X542960Y-1331500D01*
X540880Y-1326560D01*
X540240Y-1325500D01*
X539700Y-1323839D01*
X539920Y-1322120D01*
X540860Y-1320640D01*
X582980Y-1278520D01*
X584260Y-1277660D01*
X585800Y-1277360D01*
X587340Y-1277660D01*
X588620Y-1278520D01*
X589500Y-1279820D01*
X589800Y-1281360D01*
X589800Y-1304980D01*
X589520Y-1306459D01*
X588700Y-1307720D01*
X587480Y-1308600D01*
X585680Y-1309440D01*
X581160Y-1312320D01*
X577060Y-1315800D01*
X573460Y-1319780D01*
X570420Y-1324199D01*
X568000Y-1329000D01*
X566240Y-1334060D01*
X565160Y-1339319D01*
X564800Y-1344680D01*
X565160Y-1350040D01*
X566240Y-1355300D01*
X568000Y-1360380D01*
X570420Y-1365160D01*
X573460Y-1369600D01*
X577060Y-1373580D01*
X581160Y-1377040D01*
X585680Y-1379940D01*
X590560Y-1382200D01*
X595680Y-1383779D01*
X600980Y-1384680D01*
X606340Y-1384860D01*
X611680Y-1384319D01*
X616900Y-1383080D01*
X621920Y-1381140D01*
X626620Y-1378560D01*
X630940Y-1375380D01*
X634800Y-1371639D01*
X638140Y-1367440D01*
X640879Y-1362820D01*
X642960Y-1357860D01*
X644380Y-1352700D01*
X645100Y-1347360D01*
X645100Y-1342000D01*
X644380Y-1336680D01*
X642960Y-1331500D01*
X640879Y-1326560D01*
X638140Y-1321940D01*
X634800Y-1317720D01*
X630940Y-1314000D01*
X626620Y-1310800D01*
X622280Y-1308420D01*
X621180Y-1307540D01*
X620460Y-1306320D01*
X620200Y-1304920D01*
X620200Y-1262960D01*
X620500Y-1261420D01*
X621380Y-1260120D01*
X767960Y-1113540D01*
X769340Y-1112640D01*
X774720Y-1111880D01*
X778340Y-1110780D01*
X781740Y-1109060D01*
X784800Y-1106800D01*
X787420Y-1104060D01*
X789539Y-1100920D01*
X791120Y-1097460D01*
X792060Y-1093780D01*
X792400Y-1090000D01*
X792060Y-1086220D01*
X791120Y-1082540D01*
X789539Y-1079080D01*
X787420Y-1075940D01*
X784800Y-1073200D01*
X781740Y-1070940D01*
X778340Y-1069220D01*
X774720Y-1068120D01*
X770960Y-1067620D01*
X767159Y-1067800D01*
X763439Y-1068600D01*
X759920Y-1070000D01*
X757480Y-1071500D01*
X756100Y-1072040D01*
X754620Y-1072020D01*
X753240Y-1071460D01*
X752159Y-1070440D01*
X751520Y-1069100D01*
X751120Y-1067540D01*
X749539Y-1064080D01*
X747420Y-1060940D01*
X744800Y-1058200D01*
X741740Y-1055940D01*
X738340Y-1054220D01*
X734720Y-1053120D01*
X730960Y-1052620D01*
X727159Y-1052800D01*
X723439Y-1053600D01*
X719920Y-1055000D01*
X716680Y-1057000D01*
X714640Y-1058800D01*
X713400Y-1059540D01*
X712000Y-1059800D01*
X630200Y-1059800D01*
X627040Y-1060120D01*
X624200Y-1060980D01*
X621560Y-1062380D01*
X619120Y-1064400D01*
X579000Y-1104520D01*
X577300Y-1106580D01*
X576020Y-1107600D01*
X574460Y-1108040D01*
X572860Y-1107820D01*
X571460Y-1106960D01*
X570540Y-1105640D01*
X570200Y-1104040D01*
X570200Y-1057960D01*
X570500Y-1056420D01*
X571380Y-1055120D01*
X647960Y-978540D01*
X649340Y-977640D01*
X654720Y-976880D01*
X658340Y-975780D01*
X661740Y-974060D01*
X664800Y-971800D01*
X667420Y-969060D01*
X669539Y-965920D01*
X671120Y-962460D01*
X672060Y-958780D01*
X672400Y-955000D01*
X672060Y-951220D01*
X671120Y-947540D01*
X669539Y-944080D01*
X667760Y-941440D01*
X667120Y-939840D01*
X667220Y-938120D01*
X668020Y-936600D01*
X669400Y-935560D01*
X671080Y-935200D01*
X692039Y-935200D01*
X693580Y-935500D01*
X694880Y-936380D01*
X701520Y-943020D01*
X702380Y-944320D01*
X702700Y-945840D01*
X702700Y-946900D01*
X703340Y-950639D01*
X704599Y-954220D01*
X706440Y-957540D01*
X708840Y-960500D01*
X711680Y-963000D01*
X714920Y-965000D01*
X718439Y-966400D01*
X722159Y-967200D01*
X725960Y-967380D01*
X729720Y-966880D01*
X733340Y-965780D01*
X736740Y-964060D01*
X739800Y-961800D01*
X742420Y-959060D01*
X744539Y-955920D01*
X746120Y-952460D01*
X747060Y-948780D01*
X747400Y-945000D01*
X747060Y-941220D01*
X746120Y-937540D01*
X744539Y-934080D01*
X742420Y-930939D01*
X739800Y-928199D01*
X736740Y-925939D01*
X733340Y-924220D01*
X729720Y-923120D01*
X724340Y-922360D01*
X722960Y-921460D01*
X718520Y-917020D01*
X717660Y-915740D01*
X717360Y-914200D01*
X717660Y-912660D01*
X718520Y-911380D01*
X719820Y-910500D01*
X721360Y-910200D01*
X863940Y-910200D01*
X865400Y-910480D01*
X866660Y-911280D01*
X867560Y-912480D01*
X867940Y-913920D01*
X867760Y-915400D01*
X867060Y-916720D01*
X866440Y-917460D01*
X864599Y-920780D01*
X863340Y-924360D01*
X862700Y-928100D01*
X862700Y-929160D01*
X862380Y-930680D01*
X861520Y-931979D01*
X834400Y-959120D01*
X832380Y-961560D01*
X830980Y-964200D01*
X830120Y-967039D01*
X829800Y-970200D01*
X829800Y-1659800D01*
X830120Y-1662960D01*
X830980Y-1665800D01*
X832380Y-1668440D01*
X834400Y-1670880D01*
X943620Y-1780120D01*
X944500Y-1781420D01*
X944800Y-1782960D01*
X944800Y-1810280D01*
X945080Y-1812780D01*
X945840Y-1814920D01*
X947039Y-1816860D01*
X948660Y-1818460D01*
X950580Y-1819680D01*
X952740Y-1820420D01*
X955220Y-1820720D01*
X1084700Y-1820720D01*
X1087180Y-1820420D01*
X1089340Y-1819680D01*
X1091260Y-1818460D01*
X1092880Y-1816860D01*
X1094080Y-1814920D01*
X1094840Y-1812780D01*
X1095120Y-1810280D01*
X1095120Y-1763500D01*
X1094840Y-1761000D01*
X1094080Y-1758860D01*
X1092880Y-1756920D01*
X1091260Y-1755320D01*
X1089340Y-1754100D01*
X1087180Y-1753360D01*
X1084700Y-1753080D01*
X961220Y-1753080D01*
X959700Y-1752760D01*
X958400Y-1751900D01*
X955300Y-1748800D01*
X954419Y-1747500D01*
X954120Y-1745980D01*
X954419Y-1744440D01*
X955300Y-1743140D01*
X956600Y-1742280D01*
X958120Y-1741980D01*
X1084700Y-1741980D01*
X1087180Y-1741680D01*
X1089340Y-1740940D01*
X1091260Y-1739720D01*
X1092880Y-1738120D01*
X1094080Y-1736180D01*
X1094840Y-1734040D01*
X1095120Y-1731540D01*
X1095120Y-1684760D01*
X1094840Y-1682260D01*
X1094080Y-1680120D01*
X1092880Y-1678180D01*
X1091260Y-1676579D01*
X1089340Y-1675360D01*
X1087180Y-1674620D01*
X1084700Y-1674340D01*
X955220Y-1674340D01*
X952740Y-1674620D01*
X950580Y-1675360D01*
X948660Y-1676579D01*
X947039Y-1678180D01*
X945840Y-1680120D01*
X945080Y-1682260D01*
X944800Y-1684760D01*
X944800Y-1728640D01*
X944500Y-1730180D01*
X943620Y-1731480D01*
X942340Y-1732340D01*
X940800Y-1732640D01*
X939280Y-1732340D01*
X937980Y-1731480D01*
X861380Y-1654880D01*
X860500Y-1653580D01*
X860200Y-1652040D01*
X860200Y-1360540D01*
X860500Y-1359019D01*
X861360Y-1357720D01*
X862640Y-1356860D01*
X864140Y-1356540D01*
X865660Y-1356819D01*
X866979Y-1357640D01*
X867860Y-1358920D01*
X870380Y-1364640D01*
X874380Y-1371819D01*
X879020Y-1378600D01*
X884280Y-1384920D01*
X890080Y-1390720D01*
X896400Y-1395980D01*
X903180Y-1400620D01*
X910360Y-1404620D01*
X917880Y-1407940D01*
X925660Y-1410540D01*
X933660Y-1412420D01*
X941800Y-1413560D01*
X950000Y-1413940D01*
X958199Y-1413560D01*
X966340Y-1412420D01*
X974340Y-1410540D01*
X982120Y-1407940D01*
X989640Y-1404620D01*
X996820Y-1400620D01*
X1003600Y-1395980D01*
X1009920Y-1390720D01*
X1015720Y-1384920D01*
X1020980Y-1378600D01*
X1025620Y-1371819D01*
X1029620Y-1364640D01*
X1032940Y-1357120D01*
X1035540Y-1349340D01*
X1037420Y-1341339D01*
X1038560Y-1333200D01*
X1038940Y-1325000D01*
X1038560Y-1316800D01*
X1037420Y-1308660D01*
X1035540Y-1300660D01*
X1032940Y-1292880D01*
X1029620Y-1285360D01*
X1025620Y-1278180D01*
X1020980Y-1271400D01*
X1015720Y-1265080D01*
X1009920Y-1259280D01*
X1003600Y-1254020D01*
X996820Y-1249380D01*
X989640Y-1245380D01*
X982120Y-1242060D01*
X974340Y-1239460D01*
X966340Y-1237580D01*
X958199Y-1236440D01*
X950000Y-1236060D01*
X941800Y-1236440D01*
X933660Y-1237580D01*
X925660Y-1239460D01*
X917880Y-1242060D01*
X910360Y-1245380D01*
X903180Y-1249380D01*
X896400Y-1254020D01*
X890080Y-1259280D01*
X884280Y-1265080D01*
X879020Y-1271400D01*
X874380Y-1278180D01*
X870380Y-1285360D01*
X867860Y-1291080D01*
X866979Y-1292360D01*
X865660Y-1293180D01*
X864140Y-1293460D01*
X862640Y-1293140D01*
X861360Y-1292280D01*
X860500Y-1290980D01*
X860200Y-1289460D01*
X860200Y-977960D01*
X860500Y-976420D01*
X861380Y-975120D01*
X882960Y-953540D01*
X884340Y-952640D01*
X889720Y-951880D01*
X893340Y-950780D01*
X896740Y-949060D01*
X899800Y-946800D01*
X902420Y-944060D01*
X904539Y-940920D01*
X906120Y-937460D01*
X907060Y-933780D01*
X907400Y-930000D01*
X907060Y-926220D01*
X906120Y-922540D01*
X904539Y-919080D01*
X902760Y-916440D01*
X902120Y-914840D01*
X902220Y-913120D01*
X903020Y-911600D01*
X904400Y-910560D01*
X906080Y-910200D01*
X1078820Y-910200D01*
X1080380Y-910520D01*
X1081700Y-911440D01*
X1082560Y-912780D01*
X1082800Y-914360D01*
X1082420Y-915920D01*
X1081460Y-917200D01*
X1079640Y-918800D01*
X1078400Y-919539D01*
X1077000Y-919800D01*
X1075200Y-919800D01*
X1072040Y-920120D01*
X1069200Y-920980D01*
X1066560Y-922380D01*
X1064120Y-924400D01*
X901979Y-1086540D01*
X900759Y-1087360D01*
X899320Y-1087700D01*
X897159Y-1087800D01*
X893439Y-1088600D01*
X889920Y-1090000D01*
X886680Y-1092000D01*
X883840Y-1094500D01*
X881440Y-1097460D01*
X879599Y-1100780D01*
X878340Y-1104360D01*
X877700Y-1108100D01*
X877700Y-1111900D01*
X878340Y-1115640D01*
X879599Y-1119220D01*
X881440Y-1122540D01*
X883840Y-1125500D01*
X886680Y-1128000D01*
X889920Y-1130000D01*
X893439Y-1131400D01*
X897159Y-1132200D01*
X900960Y-1132380D01*
X904720Y-1131880D01*
X908340Y-1130780D01*
X911740Y-1129060D01*
X914800Y-1126800D01*
X917420Y-1124060D01*
X919539Y-1120920D01*
X921120Y-1117460D01*
X922060Y-1113780D01*
X922340Y-1110480D01*
X922700Y-1109140D01*
X923500Y-1107980D01*
X1077480Y-954020D01*
X1078980Y-953080D01*
X1080720Y-952880D01*
X1082400Y-953439D01*
X1084920Y-955000D01*
X1088440Y-956400D01*
X1092160Y-957200D01*
X1095960Y-957380D01*
X1099720Y-956880D01*
X1103340Y-955780D01*
X1106740Y-954060D01*
X1109800Y-951800D01*
X1112420Y-949060D01*
X1114540Y-945920D01*
X1116120Y-942460D01*
X1117060Y-938780D01*
X1117400Y-935000D01*
X1117060Y-931220D01*
X1116120Y-927540D01*
X1114540Y-924080D01*
X1112420Y-920939D01*
X1109800Y-918199D01*
X1108740Y-917420D01*
X1107640Y-916180D01*
X1107140Y-914599D01*
X1107320Y-912940D01*
X1108160Y-911520D01*
X1109500Y-910540D01*
X1111120Y-910200D01*
X1133620Y-910200D01*
X1135080Y-910480D01*
X1136320Y-911260D01*
X1137220Y-912440D01*
X1138900Y-915840D01*
X1141920Y-920380D01*
X1145520Y-924479D01*
X1149620Y-928080D01*
X1154160Y-931100D01*
X1159040Y-933520D01*
X1164220Y-935260D01*
X1169560Y-936340D01*
X1175000Y-936680D01*
X1180440Y-936340D01*
X1185780Y-935260D01*
X1190960Y-933520D01*
X1195840Y-931100D01*
X1200380Y-928080D01*
X1203160Y-925639D01*
X1204480Y-924860D01*
X1205980Y-924640D01*
X1207460Y-925000D01*
X1208680Y-925879D01*
X1209520Y-927140D01*
X1209800Y-928640D01*
X1209800Y-945360D01*
X1209500Y-946900D01*
X1208620Y-948199D01*
X1207340Y-949060D01*
X1205800Y-949360D01*
X1139800Y-949360D01*
X1137300Y-949640D01*
X1135160Y-950400D01*
X1133220Y-951620D01*
X1131620Y-953220D01*
X1130400Y-955160D01*
X1129640Y-957300D01*
X1129360Y-959800D01*
X1129360Y-1030200D01*
X1129640Y-1032700D01*
X1130400Y-1034840D01*
X1131620Y-1036780D01*
X1133220Y-1038379D01*
X1135160Y-1039599D01*
X1137300Y-1040360D01*
X1139800Y-1040639D01*
X1155800Y-1040639D01*
X1157340Y-1040939D01*
X1158620Y-1041800D01*
X1159500Y-1043100D01*
X1159800Y-1044640D01*
X1159800Y-1119800D01*
X1160120Y-1122960D01*
X1160980Y-1125800D01*
X1162380Y-1128440D01*
X1164400Y-1130880D01*
X1291519Y-1258020D01*
X1292380Y-1259320D01*
X1292700Y-1260840D01*
X1292700Y-1261900D01*
X1293340Y-1265640D01*
X1294600Y-1269220D01*
X1296440Y-1272540D01*
X1298839Y-1275500D01*
X1301680Y-1278000D01*
X1304920Y-1280000D01*
X1308440Y-1281399D01*
X1312160Y-1282200D01*
X1315960Y-1282380D01*
X1319720Y-1281879D01*
X1323340Y-1280780D01*
X1326740Y-1279060D01*
X1329800Y-1276800D01*
X1332420Y-1274060D01*
X1334540Y-1270920D01*
X1336120Y-1267460D01*
X1337060Y-1263780D01*
X1337400Y-1260000D01*
X1337060Y-1256220D01*
X1336120Y-1252540D01*
X1334540Y-1249080D01*
X1332420Y-1245940D01*
X1329800Y-1243200D01*
X1326740Y-1240940D01*
X1323340Y-1239220D01*
X1319720Y-1238120D01*
X1314340Y-1237360D01*
X1312960Y-1236460D01*
X1191380Y-1114880D01*
X1190500Y-1113580D01*
X1190200Y-1112040D01*
X1190200Y-1044640D01*
X1190500Y-1043100D01*
X1191380Y-1041800D01*
X1192660Y-1040939D01*
X1194200Y-1040639D01*
X1205800Y-1040639D01*
X1207340Y-1040939D01*
X1208620Y-1041800D01*
X1209500Y-1043100D01*
X1209800Y-1044640D01*
X1209800Y-1084800D01*
X1210120Y-1087960D01*
X1210980Y-1090800D01*
X1212380Y-1093440D01*
X1214400Y-1095880D01*
X1234120Y-1115600D01*
X1236560Y-1117620D01*
X1239200Y-1119020D01*
X1242040Y-1119880D01*
X1245200Y-1120200D01*
X1333940Y-1120200D01*
X1335400Y-1120480D01*
X1336660Y-1121280D01*
X1337560Y-1122480D01*
X1337940Y-1123920D01*
X1337760Y-1125400D01*
X1337060Y-1126720D01*
X1336440Y-1127460D01*
X1334600Y-1130780D01*
X1333340Y-1134360D01*
X1332700Y-1138100D01*
X1332700Y-1141900D01*
X1333340Y-1145640D01*
X1334600Y-1149220D01*
X1336440Y-1152540D01*
X1338839Y-1155500D01*
X1341680Y-1158000D01*
X1344920Y-1160000D01*
X1348440Y-1161400D01*
X1352160Y-1162200D01*
X1355960Y-1162380D01*
X1359720Y-1161880D01*
X1363340Y-1160780D01*
X1366740Y-1159060D01*
X1369800Y-1156800D01*
X1372420Y-1154060D01*
X1374540Y-1150920D01*
X1376120Y-1147460D01*
X1377060Y-1143780D01*
X1377400Y-1140000D01*
X1377060Y-1136220D01*
X1376120Y-1132540D01*
X1374540Y-1129080D01*
X1372420Y-1125940D01*
X1371320Y-1124780D01*
X1370480Y-1123500D01*
X1370200Y-1122000D01*
X1370200Y-1105200D01*
X1369880Y-1102040D01*
X1369019Y-1099200D01*
X1367620Y-1096560D01*
X1365740Y-1094260D01*
X1363440Y-1092380D01*
X1360800Y-1090980D01*
X1357960Y-1090120D01*
X1354800Y-1089800D01*
X1252960Y-1089800D01*
X1251420Y-1089500D01*
X1250120Y-1088620D01*
X1241380Y-1079880D01*
X1240500Y-1078580D01*
X1240200Y-1077040D01*
X1240200Y-385200D01*
X1239880Y-382040D01*
X1239020Y-379200D01*
X1237620Y-376560D01*
X1235740Y-374260D01*
X1233440Y-372380D01*
X1230800Y-370980D01*
X1227960Y-370120D01*
X1224800Y-369799D01*
X978040Y-369799D01*
X976480Y-369480D01*
X971740Y-365940D01*
X968340Y-364219D01*
X964720Y-363120D01*
X960960Y-362620D01*
X957159Y-362800D01*
X953439Y-363600D01*
X949920Y-365000D01*
X946680Y-367000D01*
X943840Y-369500D01*
X941440Y-372460D01*
X939599Y-375780D01*
X938340Y-379360D01*
X937700Y-383100D01*
X937700Y-386900D01*
X938340Y-390640D01*
X939599Y-394219D01*
X941440Y-397540D01*
X943840Y-400500D01*
X946680Y-403000D01*
X949920Y-405000D01*
X953439Y-406400D01*
X957159Y-407200D01*
X960960Y-407380D01*
X964720Y-406880D01*
X968340Y-405780D01*
X971740Y-404060D01*
X976480Y-400520D01*
X978040Y-400200D01*
X1205800Y-400200D01*
X1207340Y-400500D01*
X1208620Y-401380D01*
X1209500Y-402660D01*
X1209800Y-404200D01*
X1209800Y-461360D01*
X1209520Y-462860D01*
X1208680Y-464120D01*
X1207460Y-465000D01*
X1205980Y-465360D01*
X1204480Y-465140D01*
X1203160Y-464360D01*
X1200380Y-461920D01*
X1195840Y-458900D01*
X1193240Y-457620D01*
X1193240Y-476760D01*
X1205800Y-476760D01*
X1207340Y-477060D01*
X1208620Y-477920D01*
X1209500Y-479219D01*
X1209800Y-480760D01*
X1209800Y-509240D01*
X1209500Y-510780D01*
X1208620Y-512080D01*
X1207340Y-512939D01*
X1205800Y-513240D01*
X1193240Y-513240D01*
X1193240Y-532380D01*
X1195840Y-531100D01*
X1200380Y-528080D01*
X1203160Y-525640D01*
X1204480Y-524860D01*
X1205980Y-524640D01*
X1207460Y-525000D01*
X1208680Y-525880D01*
X1209520Y-527140D01*
X1209800Y-528640D01*
X1209800Y-561360D01*
X1209520Y-562860D01*
X1208680Y-564120D01*
X1207460Y-565000D01*
X1205980Y-565360D01*
X1204480Y-565140D01*
X1203160Y-564360D01*
X1200380Y-561920D01*
X1195840Y-558900D01*
X1190960Y-556480D01*
X1185780Y-554740D01*
X1180440Y-553660D01*
X1175000Y-553320D01*
X1169560Y-553660D01*
X1164220Y-554740D01*
X1159040Y-556480D01*
X1154160Y-558900D01*
X1149620Y-561920D01*
X1145520Y-565520D01*
X1141920Y-569620D01*
X1138900Y-574160D01*
X1136480Y-579040D01*
X1134740Y-584220D01*
X1133660Y-589560D01*
X1133320Y-595000D01*
X1133660Y-600440D01*
X1134740Y-605780D01*
X1136480Y-610960D01*
X1138900Y-615840D01*
X1141920Y-620380D01*
X1145520Y-624480D01*
X1149620Y-628080D01*
X1154160Y-631100D01*
X1159040Y-633520D01*
X1164220Y-635260D01*
X1169560Y-636340D01*
X1175000Y-636680D01*
X1180440Y-636340D01*
X1185780Y-635260D01*
X1190960Y-633520D01*
X1195840Y-631100D01*
X1200380Y-628080D01*
X1203160Y-625640D01*
X1204480Y-624860D01*
X1205980Y-624640D01*
X1207460Y-625000D01*
X1208680Y-625880D01*
X1209520Y-627140D01*
X1209800Y-628640D01*
X1209800Y-661360D01*
X1209520Y-662860D01*
X1208680Y-664120D01*
X1207460Y-665000D01*
X1205980Y-665360D01*
X1204480Y-665140D01*
X1203160Y-664360D01*
X1200380Y-661919D01*
X1195840Y-658900D01*
X1190960Y-656480D01*
X1185780Y-654740D01*
X1180440Y-653660D01*
X1175000Y-653319D01*
X1169560Y-653660D01*
X1164220Y-654740D01*
X1160600Y-655960D01*
X1159140Y-656160D01*
X1157720Y-655819D01*
X1156500Y-655000D01*
X776380Y-274880D01*
X775500Y-273580D01*
X775200Y-272040D01*
X775200Y-243000D01*
X775480Y-241500D01*
X776320Y-240219D01*
X777420Y-239060D01*
X779539Y-235920D01*
X781120Y-232460D01*
X782060Y-228780D01*
X782400Y-225000D01*
X782060Y-221220D01*
X781120Y-217540D01*
X779539Y-214080D01*
X777420Y-210940D01*
X774800Y-208200D01*
X771740Y-205940D01*
X768340Y-204220D01*
X764720Y-203120D01*
X760960Y-202620D01*
X757159Y-202800D01*
X753439Y-203600D01*
X749920Y-205000D01*
X746680Y-207000D01*
X743840Y-209500D01*
X741440Y-212460D01*
X739599Y-215780D01*
X738340Y-219360D01*
X737700Y-223100D01*
X737700Y-226900D01*
X738340Y-230640D01*
X739599Y-234220D01*
X741440Y-237540D01*
X743920Y-240580D01*
X744580Y-241759D01*
X744800Y-243100D01*
X744800Y-279800D01*
X745120Y-282960D01*
X745980Y-285800D01*
X747380Y-288440D01*
X749400Y-290880D01*
X1135000Y-676500D01*
X1135820Y-677720D01*
X1136160Y-679140D01*
X1135960Y-680600D01*
X1134740Y-684220D01*
X1133660Y-689560D01*
X1133320Y-695000D01*
X1133660Y-700440D01*
X1134740Y-705780D01*
X1136480Y-710960D01*
X1138900Y-715840D01*
X1141920Y-720380D01*
X1145520Y-724479D01*
X1149620Y-728080D01*
X1154160Y-731100D01*
X1159040Y-733520D01*
X1164220Y-735260D01*
X1169560Y-736340D01*
X1175000Y-736680D01*
X1180440Y-736340D01*
X1185780Y-735260D01*
X1190960Y-733520D01*
X1195840Y-731100D01*
X1200380Y-728080D01*
X1203160Y-725639D01*
X1204480Y-724860D01*
X1205980Y-724640D01*
X1207460Y-725000D01*
X1208680Y-725879D01*
X1209520Y-727140D01*
X1209800Y-728640D01*
X1209800Y-761360D01*
X1209520Y-762860D01*
X1208680Y-764120D01*
X1207460Y-765000D01*
X1205980Y-765360D01*
X1204480Y-765140D01*
X1203160Y-764360D01*
X1200380Y-761919D01*
X1195840Y-758900D01*
X1190960Y-756480D01*
X1185780Y-754740D01*
X1180440Y-753660D01*
X1175000Y-753319D01*
X1169560Y-753660D01*
X1164220Y-754740D01*
X1159040Y-756480D01*
X1154160Y-758900D01*
X1149620Y-761919D01*
X1145520Y-765520D01*
X1141920Y-769620D01*
X1138900Y-774160D01*
X1137220Y-777560D01*
X1136320Y-778740D01*
X1135080Y-779520D01*
X1133620Y-779800D01*
X615200Y-779800D01*
X612040Y-780120D01*
X609200Y-780980D01*
X606560Y-782380D01*
X604120Y-784400D01*
X496160Y-892360D01*
X495240Y-893040D01*
X493440Y-893600D01*
X490700Y-894700D01*
X489159Y-894980D01*
X487640Y-894680D01*
X486360Y-893800D01*
X485500Y-892500D01*
X485200Y-890980D01*
X485200Y-577960D01*
X485500Y-576420D01*
X486380Y-575120D01*
X671900Y-389600D01*
X673240Y-388720D01*
X674800Y-388440D01*
X676360Y-388780D01*
X677660Y-389720D01*
X678500Y-391100D01*
X679599Y-394219D01*
X681440Y-397540D01*
X683840Y-400500D01*
X686680Y-403000D01*
X689920Y-405000D01*
X693439Y-406400D01*
X697159Y-407200D01*
X699320Y-407299D01*
X700759Y-407640D01*
X701979Y-408459D01*
X773620Y-480120D01*
X774500Y-481420D01*
X774800Y-482960D01*
X774800Y-716900D01*
X774580Y-718240D01*
X773920Y-719419D01*
X771440Y-722460D01*
X769599Y-725780D01*
X768340Y-729360D01*
X767700Y-733100D01*
X767700Y-736900D01*
X768340Y-740639D01*
X769599Y-744220D01*
X771440Y-747540D01*
X773840Y-750500D01*
X776680Y-753000D01*
X779920Y-755000D01*
X783439Y-756400D01*
X787159Y-757200D01*
X790960Y-757380D01*
X794720Y-756880D01*
X798340Y-755780D01*
X801740Y-754060D01*
X804800Y-751800D01*
X807420Y-749060D01*
X809539Y-745920D01*
X811120Y-742460D01*
X812060Y-738780D01*
X812400Y-735000D01*
X812060Y-731220D01*
X811120Y-727540D01*
X809539Y-724080D01*
X807420Y-720939D01*
X806320Y-719780D01*
X805480Y-718500D01*
X805200Y-717000D01*
X805200Y-475200D01*
X804880Y-472040D01*
X804020Y-469200D01*
X802620Y-466560D01*
X800600Y-464120D01*
X734580Y-398080D01*
X733680Y-396700D01*
X733400Y-395100D01*
X733800Y-393500D01*
X734800Y-392220D01*
X736240Y-391420D01*
X738340Y-390780D01*
X741740Y-389060D01*
X744800Y-386800D01*
X747420Y-384060D01*
X749539Y-380920D01*
X751120Y-377460D01*
X752060Y-373780D01*
X752400Y-370000D01*
X752060Y-366220D01*
X751120Y-362540D01*
X749539Y-359080D01*
X747420Y-355940D01*
X744800Y-353200D01*
X743060Y-351920D01*
X742360Y-351240D01*
X740740Y-349260D01*
X738439Y-347380D01*
X735800Y-345980D01*
X732960Y-345120D01*
X729800Y-344799D01*
X680200Y-344799D01*
X677039Y-345120D01*
X674200Y-345980D01*
X671560Y-347380D01*
X669120Y-349400D01*
X659940Y-358560D01*
X658460Y-359500D01*
X656740Y-359720D01*
X655080Y-359180D01*
X653800Y-357980D01*
X652420Y-355940D01*
X649800Y-353200D01*
X646740Y-350940D01*
X643340Y-349219D01*
X639720Y-348120D01*
X635960Y-347620D01*
X632160Y-347800D01*
X628440Y-348600D01*
X624920Y-350000D01*
X621680Y-352000D01*
X618840Y-354500D01*
X616440Y-357460D01*
X614600Y-360780D01*
X613340Y-364360D01*
X612700Y-368100D01*
X612700Y-369159D01*
X612380Y-370680D01*
X611520Y-371980D01*
X344400Y-639120D01*
X342380Y-641560D01*
X340980Y-644200D01*
X340120Y-647039D01*
X339799Y-650200D01*
X339799Y-1299259D01*
X339440Y-1300920D01*
X338420Y-1302280D01*
X336940Y-1303100D01*
X335260Y-1303220D01*
X330940Y-1302640D01*
X327160Y-1302800D01*
X323440Y-1303600D01*
X319920Y-1305000D01*
X316680Y-1307000D01*
X313840Y-1309500D01*
X311440Y-1312460D01*
X309600Y-1315780D01*
X308340Y-1319360D01*
X307700Y-1323100D01*
X307700Y-1326900D01*
X308340Y-1330640D01*
X309600Y-1334220D01*
X311440Y-1337540D01*
X313440Y-1340000D01*
X314140Y-1341279D01*
X314320Y-1342740D01*
X313980Y-1344139D01*
X313160Y-1345340D01*
X248960Y-1409540D01*
X247700Y-1410400D01*
X246240Y-1410720D01*
X244760Y-1410480D01*
X243460Y-1409700D01*
X242540Y-1408500D01*
X242140Y-1407060D01*
X242060Y-1406220D01*
X241119Y-1402540D01*
X239540Y-1399079D01*
X237420Y-1395940D01*
X234800Y-1393200D01*
X231740Y-1390940D01*
X228460Y-1389280D01*
X227320Y-1388420D01*
X226560Y-1387220D01*
X226260Y-1385820D01*
X226480Y-1384400D01*
X227180Y-1383160D01*
X230980Y-1378600D01*
X235620Y-1371819D01*
X239620Y-1364640D01*
X242940Y-1357120D01*
X245539Y-1349340D01*
X247420Y-1341339D01*
X248560Y-1333200D01*
X248939Y-1325000D01*
X248560Y-1316800D01*
X247420Y-1308660D01*
X245539Y-1300660D01*
X242940Y-1292880D01*
X239620Y-1285360D01*
X235620Y-1278180D01*
X230980Y-1271400D01*
X225720Y-1265080D01*
X219920Y-1259280D01*
X213600Y-1254020D01*
X206820Y-1249380D01*
X203780Y-1247700D01*
X202480Y-1246540D01*
X201800Y-1244940D01*
X201860Y-1243200D01*
X202659Y-1241640D01*
X204020Y-1240580D01*
X205720Y-1240200D01*
X212000Y-1240200D01*
X213400Y-1240460D01*
X214640Y-1241200D01*
X216680Y-1243000D01*
X219920Y-1245000D01*
X223440Y-1246400D01*
X227160Y-1247200D01*
X230960Y-1247380D01*
X234720Y-1246880D01*
X238340Y-1245780D01*
X241740Y-1244060D01*
X244800Y-1241800D01*
X247420Y-1239060D01*
X249540Y-1235920D01*
X251119Y-1232460D01*
X252060Y-1228780D01*
X252399Y-1225000D01*
X252060Y-1221220D01*
X251119Y-1217540D01*
X249540Y-1214080D01*
X247420Y-1210940D01*
X244800Y-1208200D01*
X241740Y-1205940D01*
X238340Y-1204220D01*
X234720Y-1203120D01*
X230960Y-1202620D01*
X227160Y-1202800D01*
X223440Y-1203600D01*
X219920Y-1205000D01*
X216680Y-1207000D01*
X215140Y-1208360D01*
X213860Y-1209120D01*
X212380Y-1209340D01*
X210920Y-1209020D01*
X209680Y-1208180D01*
X201380Y-1199880D01*
X200500Y-1198580D01*
X200200Y-1197040D01*
X200200Y-1047960D01*
X200500Y-1046420D01*
X201380Y-1045120D01*
X282960Y-963540D01*
X284340Y-962640D01*
X289720Y-961880D01*
X293340Y-960780D01*
X296740Y-959060D01*
X299800Y-956800D01*
X302420Y-954060D01*
X304540Y-950920D01*
X306120Y-947460D01*
X307060Y-943780D01*
X307400Y-940000D01*
X307060Y-936220D01*
X306120Y-932540D01*
X304540Y-929080D01*
X302420Y-925939D01*
X299800Y-923199D01*
X296740Y-920939D01*
X293340Y-919220D01*
X289720Y-918120D01*
X285960Y-917620D01*
X282160Y-917800D01*
X278440Y-918600D01*
X274920Y-920000D01*
X271680Y-922000D01*
X268840Y-924500D01*
X266440Y-927460D01*
X264600Y-930780D01*
X263340Y-934360D01*
X262700Y-938100D01*
X262700Y-939160D01*
X262380Y-940680D01*
X261520Y-941979D01*
X174400Y-1029120D01*
X172380Y-1031560D01*
X170980Y-1034200D01*
X170120Y-1037039D01*
X169800Y-1040200D01*
X169800Y-1204800D01*
X170120Y-1207960D01*
X170980Y-1210800D01*
X172380Y-1213440D01*
X174400Y-1215880D01*
X192800Y-1234300D01*
X193760Y-1235800D01*
X193960Y-1237560D01*
X193380Y-1239240D01*
X192140Y-1240500D01*
X190460Y-1241100D01*
X188700Y-1240920D01*
X184340Y-1239460D01*
X176340Y-1237580D01*
X168200Y-1236440D01*
X160000Y-1236060D01*
X151800Y-1236440D01*
X143660Y-1237580D01*
X135660Y-1239460D01*
X127880Y-1242060D01*
X120360Y-1245380D01*
X113180Y-1249380D01*
X106400Y-1254020D01*
X100079Y-1259280D01*
X94280Y-1265080D01*
X89019Y-1271400D01*
X84380Y-1278180D01*
X80380Y-1285360D01*
X77060Y-1292880D01*
X74460Y-1300660D01*
X72580Y-1308660D01*
X71440Y-1316800D01*
X71060Y-1325000D01*
X71440Y-1333200D01*
X72580Y-1341339D01*
X74460Y-1349340D01*
X77060Y-1357120D01*
X80380Y-1364640D01*
X84380Y-1371819D01*
X89019Y-1378600D01*
X94280Y-1384920D01*
X100079Y-1390720D01*
X106400Y-1395980D01*
X113180Y-1400620D01*
X120360Y-1404620D01*
X127880Y-1407940D01*
X135660Y-1410540D01*
X143660Y-1412420D01*
X151800Y-1413560D01*
X160000Y-1413940D01*
X168200Y-1413560D01*
X176340Y-1412420D01*
X184340Y-1410540D01*
X188700Y-1409079D01*
X190460Y-1408899D01*
X192140Y-1409500D01*
X193380Y-1410760D01*
X193960Y-1412440D01*
X193760Y-1414199D01*
X192800Y-1415700D01*
X184400Y-1424120D01*
X182380Y-1426560D01*
X180980Y-1429199D01*
X180120Y-1432040D01*
X179800Y-1435200D01*
X179800Y-1626900D01*
X179579Y-1628240D01*
X178920Y-1629420D01*
X176439Y-1632460D01*
X174600Y-1635780D01*
X173340Y-1639360D01*
X172700Y-1643100D01*
X172700Y-1646900D01*
X173340Y-1650640D01*
X174600Y-1654220D01*
X176439Y-1657540D01*
X178840Y-1660500D01*
X181680Y-1663000D01*
X184920Y-1665000D01*
X188440Y-1666399D01*
X192160Y-1667200D01*
X195960Y-1667380D01*
X199720Y-1666879D01*
X203340Y-1665780D01*
X206740Y-1664060D01*
X209800Y-1661800D01*
X212420Y-1659060D01*
X214540Y-1655920D01*
X216119Y-1652460D01*
X216920Y-1649319D01*
X217659Y-1647860D01*
X218920Y-1646800D01*
X220479Y-1646339D01*
X222100Y-1646540D01*
X223520Y-1647380D01*
X224460Y-1648720D01*
X224800Y-1650320D01*
X224800Y-1707040D01*
X224500Y-1708580D01*
X223619Y-1709880D01*
X219880Y-1713620D01*
X218580Y-1714500D01*
X217040Y-1714800D01*
X210200Y-1714800D01*
X207040Y-1715120D01*
X204200Y-1715980D01*
X201560Y-1717380D01*
X199120Y-1719400D01*
X149400Y-1769120D01*
X147380Y-1771560D01*
X145980Y-1774199D01*
X145120Y-1777040D01*
X144800Y-1780200D01*
X144800Y-1786900D01*
X144580Y-1788240D01*
X143920Y-1789420D01*
X141440Y-1792460D01*
X139600Y-1795780D01*
X138340Y-1799360D01*
X137700Y-1803100D01*
X137700Y-1806900D01*
X138340Y-1810640D01*
X139600Y-1814220D01*
X141440Y-1817540D01*
X143840Y-1820500D01*
X146680Y-1823000D01*
X149920Y-1825000D01*
X153440Y-1826399D01*
X157160Y-1827200D01*
X160940Y-1827360D01*
X165260Y-1826780D01*
X166940Y-1826900D01*
X168420Y-1827720D01*
X169440Y-1829079D01*
X169800Y-1830740D01*
X169800Y-1939800D01*
X170120Y-1942960D01*
X170980Y-1945800D01*
X172380Y-1948440D01*
X174400Y-1950880D01*
X257220Y-2033700D01*
X259660Y-2035720D01*
X262300Y-2037120D01*
X265140Y-2037980D01*
X268300Y-2038300D01*
X310880Y-2038300D01*
X312420Y-2038600D01*
X313700Y-2039480D01*
X314580Y-2040760D01*
X314880Y-2042300D01*
X314880Y-2046500D01*
X315160Y-2049000D01*
X315920Y-2051140D01*
X317120Y-2053080D01*
X318740Y-2054680D01*
X320660Y-2055900D01*
X322819Y-2056639D01*
G37*
G36*
X1127220Y-2052900D02*
G01*
X1152900Y-2052900D01*
X1152900Y-2027220D01*
X1148400Y-2029700D01*
X1142960Y-2033560D01*
X1138000Y-2038000D01*
X1133560Y-2042960D01*
X1129700Y-2048400D01*
G37*
G36*
X1327220Y-2052900D02*
G01*
X1352900Y-2052900D01*
X1352900Y-2027220D01*
X1348400Y-2029700D01*
X1342960Y-2033560D01*
X1338000Y-2038000D01*
X1333560Y-2042960D01*
X1329700Y-2048400D01*
G37*
G36*
X1207100Y-2052900D02*
G01*
X1232780Y-2052900D01*
X1230300Y-2048400D01*
X1226440Y-2042960D01*
X1222000Y-2038000D01*
X1217040Y-2033560D01*
X1211600Y-2029700D01*
X1207100Y-2027220D01*
G37*
G36*
X1407100Y-2052900D02*
G01*
X1432780Y-2052900D01*
X1430300Y-2048400D01*
X1426440Y-2042960D01*
X1422000Y-2038000D01*
X1417040Y-2033560D01*
X1411600Y-2029700D01*
X1407100Y-2027220D01*
G37*
G36*
X955220Y-1978200D02*
G01*
X1084700Y-1978200D01*
X1087180Y-1977900D01*
X1089340Y-1977160D01*
X1091260Y-1975940D01*
X1092880Y-1974340D01*
X1094080Y-1972400D01*
X1094840Y-1970260D01*
X1095120Y-1967760D01*
X1095120Y-1920980D01*
X1094840Y-1918480D01*
X1094080Y-1916339D01*
X1092880Y-1914400D01*
X1091260Y-1912800D01*
X1089340Y-1911579D01*
X1087180Y-1910840D01*
X1084700Y-1910560D01*
X955220Y-1910560D01*
X952740Y-1910840D01*
X950580Y-1911579D01*
X948660Y-1912800D01*
X947039Y-1914400D01*
X945840Y-1916339D01*
X945080Y-1918480D01*
X944800Y-1920980D01*
X944800Y-1967760D01*
X945080Y-1970260D01*
X945840Y-1972400D01*
X947039Y-1974340D01*
X948660Y-1975940D01*
X950580Y-1977160D01*
X952740Y-1977900D01*
G37*
G36*
X325300Y-1978200D02*
G01*
X454780Y-1978200D01*
X457260Y-1977900D01*
X459420Y-1977160D01*
X461340Y-1975940D01*
X462960Y-1974340D01*
X464180Y-1972400D01*
X464920Y-1970260D01*
X465200Y-1967760D01*
X465200Y-1932940D01*
X465500Y-1931420D01*
X466380Y-1930120D01*
X467960Y-1928540D01*
X469340Y-1927640D01*
X474720Y-1926879D01*
X478340Y-1925780D01*
X481740Y-1924060D01*
X484799Y-1921800D01*
X487420Y-1919060D01*
X489540Y-1915920D01*
X491120Y-1912460D01*
X492060Y-1908779D01*
X492400Y-1905000D01*
X492060Y-1901220D01*
X491120Y-1897540D01*
X489540Y-1894079D01*
X489140Y-1893460D01*
X488500Y-1891840D01*
X488620Y-1890080D01*
X489460Y-1888560D01*
X490900Y-1887540D01*
X492620Y-1887220D01*
X495959Y-1887380D01*
X499720Y-1886879D01*
X503340Y-1885780D01*
X506740Y-1884060D01*
X509799Y-1881800D01*
X512420Y-1879060D01*
X514540Y-1875920D01*
X516120Y-1872460D01*
X517060Y-1868779D01*
X517400Y-1865000D01*
X517060Y-1861220D01*
X516120Y-1857540D01*
X514540Y-1854079D01*
X512420Y-1850940D01*
X509799Y-1848200D01*
X506740Y-1845940D01*
X503340Y-1844220D01*
X499720Y-1843120D01*
X495959Y-1842620D01*
X492160Y-1842800D01*
X488440Y-1843600D01*
X484920Y-1845000D01*
X481680Y-1847000D01*
X479860Y-1848600D01*
X478640Y-1849340D01*
X477239Y-1849600D01*
X469219Y-1849640D01*
X467680Y-1849340D01*
X466380Y-1848480D01*
X465500Y-1847180D01*
X465200Y-1845640D01*
X465200Y-1842240D01*
X464920Y-1839740D01*
X464159Y-1837600D01*
X462960Y-1835660D01*
X461340Y-1834060D01*
X459420Y-1832840D01*
X457260Y-1832100D01*
X454780Y-1831819D01*
X325300Y-1831819D01*
X322819Y-1832100D01*
X320660Y-1832840D01*
X318740Y-1834060D01*
X317120Y-1835660D01*
X315920Y-1837600D01*
X315160Y-1839740D01*
X314880Y-1842240D01*
X314880Y-1889019D01*
X315160Y-1891519D01*
X315920Y-1893660D01*
X317120Y-1895600D01*
X318740Y-1897200D01*
X320660Y-1898420D01*
X322819Y-1899160D01*
X325300Y-1899460D01*
X443700Y-1899460D01*
X445220Y-1899760D01*
X446520Y-1900620D01*
X447380Y-1901920D01*
X447700Y-1903460D01*
X447700Y-1904160D01*
X447380Y-1905680D01*
X446520Y-1906980D01*
X444120Y-1909379D01*
X442819Y-1910240D01*
X441300Y-1910560D01*
X325300Y-1910560D01*
X322819Y-1910840D01*
X320660Y-1911579D01*
X318740Y-1912800D01*
X317120Y-1914400D01*
X315920Y-1916339D01*
X315160Y-1918480D01*
X314880Y-1920980D01*
X314880Y-1967760D01*
X315160Y-1970260D01*
X315920Y-1972400D01*
X317120Y-1974340D01*
X318740Y-1975940D01*
X320660Y-1977160D01*
X322819Y-1977900D01*
G37*
G36*
X955220Y-1899460D02*
G01*
X1084700Y-1899460D01*
X1087180Y-1899160D01*
X1089340Y-1898420D01*
X1091260Y-1897200D01*
X1092880Y-1895600D01*
X1094080Y-1893660D01*
X1094840Y-1891519D01*
X1095120Y-1889019D01*
X1095120Y-1842240D01*
X1094840Y-1839740D01*
X1094080Y-1837600D01*
X1092880Y-1835660D01*
X1091260Y-1834060D01*
X1089340Y-1832840D01*
X1087180Y-1832100D01*
X1084700Y-1831819D01*
X955220Y-1831819D01*
X952740Y-1832100D01*
X950580Y-1832840D01*
X948660Y-1834060D01*
X947039Y-1835660D01*
X945840Y-1837600D01*
X945080Y-1839740D01*
X944800Y-1842240D01*
X944800Y-1846399D01*
X944500Y-1847940D01*
X943620Y-1849220D01*
X942340Y-1850100D01*
X940800Y-1850400D01*
X938560Y-1850400D01*
X937020Y-1850100D01*
X935720Y-1849220D01*
X781380Y-1694880D01*
X780500Y-1693580D01*
X780200Y-1692040D01*
X780160Y-1347360D01*
X779900Y-1345500D01*
X779640Y-1344420D01*
X779020Y-1342640D01*
X778560Y-1341639D01*
X777620Y-1340020D01*
X727020Y-1275680D01*
X725720Y-1274220D01*
X724900Y-1273480D01*
X723400Y-1272340D01*
X722460Y-1271760D01*
X720780Y-1270940D01*
X719740Y-1270560D01*
X717920Y-1270080D01*
X716840Y-1269920D01*
X714880Y-1269800D01*
X708040Y-1269800D01*
X706480Y-1269480D01*
X701740Y-1265940D01*
X698340Y-1264220D01*
X694720Y-1263120D01*
X690960Y-1262620D01*
X687159Y-1262800D01*
X683439Y-1263600D01*
X679920Y-1265000D01*
X676680Y-1267000D01*
X673840Y-1269500D01*
X671440Y-1272460D01*
X669599Y-1275780D01*
X668340Y-1279360D01*
X667700Y-1283100D01*
X667700Y-1286900D01*
X668340Y-1290640D01*
X669599Y-1294220D01*
X671440Y-1297540D01*
X673840Y-1300500D01*
X676680Y-1303000D01*
X679920Y-1305000D01*
X681120Y-1305480D01*
X682560Y-1306459D01*
X683439Y-1307960D01*
X683600Y-1309700D01*
X683020Y-1311320D01*
X681780Y-1312560D01*
X681160Y-1312960D01*
X677060Y-1316420D01*
X673460Y-1320400D01*
X670420Y-1324840D01*
X668920Y-1327820D01*
X687500Y-1327820D01*
X687500Y-1311339D01*
X687760Y-1309920D01*
X688500Y-1308680D01*
X689620Y-1307800D01*
X691000Y-1307360D01*
X694720Y-1306879D01*
X698340Y-1305780D01*
X701740Y-1304060D01*
X704260Y-1302200D01*
X705639Y-1301540D01*
X707180Y-1301459D01*
X708620Y-1301940D01*
X709780Y-1302940D01*
X721640Y-1318000D01*
X722280Y-1319180D01*
X722500Y-1320480D01*
X722500Y-1327820D01*
X727420Y-1327820D01*
X728620Y-1328000D01*
X729700Y-1328520D01*
X730560Y-1329340D01*
X748940Y-1352680D01*
X749580Y-1353839D01*
X749800Y-1355160D01*
X749800Y-1358820D01*
X749500Y-1360540D01*
X749800Y-1362060D01*
X749800Y-1699800D01*
X750120Y-1702960D01*
X750980Y-1705800D01*
X752380Y-1708440D01*
X754400Y-1710880D01*
X919720Y-1876200D01*
X922159Y-1878220D01*
X924800Y-1879620D01*
X927640Y-1880480D01*
X930800Y-1880800D01*
X940800Y-1880800D01*
X942340Y-1881100D01*
X943620Y-1881980D01*
X944500Y-1883260D01*
X944800Y-1884800D01*
X944800Y-1889019D01*
X945080Y-1891519D01*
X945840Y-1893660D01*
X947039Y-1895600D01*
X948660Y-1897200D01*
X950580Y-1898420D01*
X952740Y-1899160D01*
G37*
G36*
X955220Y-1663240D02*
G01*
X1084700Y-1663240D01*
X1087180Y-1662940D01*
X1089340Y-1662200D01*
X1091260Y-1660980D01*
X1092880Y-1659379D01*
X1094080Y-1657440D01*
X1094840Y-1655300D01*
X1095120Y-1652800D01*
X1095120Y-1606020D01*
X1094840Y-1603520D01*
X1094080Y-1601380D01*
X1092880Y-1599440D01*
X1091260Y-1597840D01*
X1089340Y-1596620D01*
X1087180Y-1595880D01*
X1084700Y-1595600D01*
X955220Y-1595600D01*
X952740Y-1595880D01*
X950580Y-1596620D01*
X948660Y-1597840D01*
X947039Y-1599440D01*
X945840Y-1601380D01*
X945080Y-1603520D01*
X944800Y-1606020D01*
X944800Y-1652800D01*
X945080Y-1655300D01*
X945840Y-1657440D01*
X947039Y-1659379D01*
X948660Y-1660980D01*
X950580Y-1662200D01*
X952740Y-1662940D01*
G37*
G36*
X722500Y-1381459D02*
G01*
X726620Y-1379199D01*
X730939Y-1376000D01*
X734800Y-1372280D01*
X738139Y-1368060D01*
X740879Y-1363440D01*
X741140Y-1362820D01*
X722500Y-1362820D01*
G37*
G36*
X687500Y-1381399D02*
G01*
X687500Y-1362820D01*
X668920Y-1362820D01*
X670420Y-1365800D01*
X673460Y-1370220D01*
X677060Y-1374199D01*
X681160Y-1377680D01*
X685680Y-1380560D01*
G37*
G36*
X1295960Y-1347380D02*
G01*
X1299720Y-1346879D01*
X1303340Y-1345780D01*
X1306740Y-1344060D01*
X1309800Y-1341800D01*
X1312420Y-1339060D01*
X1314540Y-1335920D01*
X1316120Y-1332460D01*
X1317060Y-1328779D01*
X1317400Y-1325000D01*
X1317060Y-1321220D01*
X1316120Y-1317540D01*
X1314540Y-1314079D01*
X1312420Y-1310940D01*
X1309800Y-1308200D01*
X1306740Y-1305940D01*
X1303340Y-1304220D01*
X1299720Y-1303120D01*
X1295960Y-1302620D01*
X1292160Y-1302800D01*
X1288440Y-1303600D01*
X1284920Y-1305000D01*
X1281680Y-1307000D01*
X1279640Y-1308800D01*
X1278400Y-1309540D01*
X1277000Y-1309800D01*
X1267520Y-1309800D01*
X1266000Y-1309500D01*
X1264700Y-1308620D01*
X1123080Y-1167000D01*
X1122280Y-1165860D01*
X1121920Y-1164520D01*
X1121640Y-1161220D01*
X1120680Y-1157540D01*
X1119120Y-1154080D01*
X1117000Y-1150940D01*
X1114360Y-1148200D01*
X1111300Y-1145940D01*
X1107920Y-1144220D01*
X1104280Y-1143120D01*
X1100520Y-1142620D01*
X1096720Y-1142800D01*
X1093020Y-1143600D01*
X1089480Y-1145000D01*
X1086260Y-1147000D01*
X1083400Y-1149500D01*
X1081020Y-1152460D01*
X1079160Y-1155780D01*
X1077900Y-1159360D01*
X1077260Y-1163100D01*
X1077260Y-1166900D01*
X1077900Y-1170640D01*
X1079160Y-1174220D01*
X1081020Y-1177540D01*
X1083400Y-1180500D01*
X1086260Y-1183000D01*
X1089480Y-1185000D01*
X1093020Y-1186400D01*
X1096720Y-1187200D01*
X1098880Y-1187300D01*
X1100320Y-1187640D01*
X1101540Y-1188460D01*
X1248680Y-1335600D01*
X1251140Y-1337620D01*
X1253760Y-1339019D01*
X1256620Y-1339880D01*
X1259760Y-1340200D01*
X1277000Y-1340200D01*
X1278400Y-1340460D01*
X1279640Y-1341200D01*
X1281680Y-1343000D01*
X1284920Y-1345000D01*
X1288440Y-1346399D01*
X1292160Y-1347200D01*
G37*
G36*
X1156760Y-532380D02*
G01*
X1156760Y-513240D01*
X1137620Y-513240D01*
X1138900Y-515840D01*
X1141920Y-520379D01*
X1145520Y-524480D01*
X1149620Y-528080D01*
X1154160Y-531100D01*
G37*
G36*
X1137620Y-476760D02*
G01*
X1156760Y-476760D01*
X1156760Y-457620D01*
X1154160Y-458900D01*
X1149620Y-461920D01*
X1145520Y-465520D01*
X1141920Y-469620D01*
X1138900Y-474159D01*
G37*
G36*
X370959Y-392380D02*
G01*
X374720Y-391880D01*
X378340Y-390780D01*
X381740Y-389060D01*
X384799Y-386800D01*
X387420Y-384060D01*
X389540Y-380920D01*
X391120Y-377460D01*
X392060Y-373780D01*
X392400Y-370000D01*
X392060Y-366220D01*
X391120Y-362540D01*
X389540Y-359080D01*
X387420Y-355940D01*
X386320Y-354780D01*
X385480Y-353500D01*
X385200Y-352000D01*
X385200Y-255200D01*
X384880Y-252040D01*
X384020Y-249200D01*
X382620Y-246560D01*
X380600Y-244120D01*
X363500Y-227020D01*
X362700Y-225859D01*
X362340Y-224520D01*
X362060Y-221220D01*
X361120Y-217540D01*
X359540Y-214080D01*
X357420Y-210940D01*
X354799Y-208200D01*
X351740Y-205940D01*
X348340Y-204220D01*
X344720Y-203120D01*
X340959Y-202620D01*
X337160Y-202800D01*
X333440Y-203600D01*
X329920Y-205000D01*
X326680Y-207000D01*
X323840Y-209500D01*
X321440Y-212460D01*
X319600Y-215780D01*
X318340Y-219360D01*
X317700Y-223100D01*
X317700Y-226900D01*
X318340Y-230640D01*
X319600Y-234220D01*
X321440Y-237540D01*
X323840Y-240500D01*
X326680Y-243000D01*
X329920Y-245000D01*
X333440Y-246400D01*
X337160Y-247200D01*
X339320Y-247300D01*
X340760Y-247640D01*
X341980Y-248460D01*
X353620Y-260120D01*
X354500Y-261420D01*
X354799Y-262960D01*
X354799Y-351900D01*
X354580Y-353240D01*
X353920Y-354420D01*
X351440Y-357460D01*
X349600Y-360780D01*
X348340Y-364360D01*
X347700Y-368100D01*
X347700Y-371900D01*
X348340Y-375640D01*
X349600Y-379219D01*
X351440Y-382540D01*
X353840Y-385500D01*
X356680Y-388000D01*
X359920Y-390000D01*
X363440Y-391400D01*
X367160Y-392200D01*
G37*
G36*
X315960Y-392380D02*
G01*
X319720Y-391880D01*
X323340Y-390780D01*
X326740Y-389060D01*
X329799Y-386800D01*
X332420Y-384060D01*
X334540Y-380920D01*
X336120Y-377460D01*
X337060Y-373780D01*
X337400Y-370000D01*
X337060Y-366220D01*
X336120Y-362540D01*
X334540Y-359080D01*
X332420Y-355940D01*
X329799Y-353200D01*
X326740Y-350940D01*
X323340Y-349219D01*
X319720Y-348120D01*
X315960Y-347620D01*
X312160Y-347800D01*
X308440Y-348600D01*
X304920Y-350000D01*
X301680Y-352000D01*
X299640Y-353800D01*
X298400Y-354540D01*
X297000Y-354799D01*
X252960Y-354799D01*
X251420Y-354500D01*
X250120Y-353620D01*
X236380Y-339880D01*
X235500Y-338579D01*
X235200Y-337040D01*
X235200Y-273000D01*
X235479Y-271500D01*
X236320Y-270220D01*
X237420Y-269060D01*
X239540Y-265920D01*
X241119Y-262460D01*
X242060Y-258780D01*
X242399Y-255000D01*
X242060Y-251220D01*
X241119Y-247540D01*
X239540Y-244080D01*
X237420Y-240940D01*
X234800Y-238200D01*
X231740Y-235940D01*
X228340Y-234220D01*
X224720Y-233120D01*
X220960Y-232620D01*
X217160Y-232800D01*
X213440Y-233600D01*
X209920Y-235000D01*
X206680Y-237000D01*
X203840Y-239500D01*
X201439Y-242460D01*
X199600Y-245780D01*
X198340Y-249360D01*
X197700Y-253100D01*
X197700Y-256900D01*
X198340Y-260640D01*
X199600Y-264220D01*
X201439Y-267540D01*
X203920Y-270580D01*
X204579Y-271760D01*
X204800Y-273100D01*
X204800Y-344799D01*
X205120Y-347960D01*
X205980Y-350800D01*
X207380Y-353440D01*
X209400Y-355880D01*
X234120Y-380600D01*
X236560Y-382620D01*
X239200Y-384020D01*
X242040Y-384880D01*
X245200Y-385200D01*
X297000Y-385200D01*
X298400Y-385460D01*
X299640Y-386200D01*
X301680Y-388000D01*
X304920Y-390000D01*
X308440Y-391400D01*
X312160Y-392200D01*
G37*
G36*
X950000Y-233939D02*
G01*
X958199Y-233560D01*
X966340Y-232420D01*
X974340Y-230539D01*
X982120Y-227940D01*
X989640Y-224620D01*
X996820Y-220620D01*
X1003600Y-215980D01*
X1009920Y-210720D01*
X1015720Y-204920D01*
X1020980Y-198600D01*
X1025620Y-191820D01*
X1029620Y-184640D01*
X1032940Y-177120D01*
X1035540Y-169340D01*
X1037420Y-161340D01*
X1038560Y-153200D01*
X1038940Y-145000D01*
X1038560Y-136800D01*
X1037420Y-128660D01*
X1035540Y-120660D01*
X1032940Y-112880D01*
X1029620Y-105360D01*
X1025620Y-98180D01*
X1020980Y-91400D01*
X1015720Y-85079D01*
X1009920Y-79280D01*
X1003600Y-74020D01*
X996820Y-69380D01*
X989640Y-65380D01*
X982120Y-62060D01*
X974340Y-59460D01*
X966340Y-57580D01*
X958199Y-56440D01*
X950000Y-56060D01*
X941800Y-56440D01*
X933660Y-57580D01*
X925660Y-59460D01*
X917880Y-62060D01*
X910360Y-65380D01*
X903180Y-69380D01*
X896400Y-74020D01*
X890080Y-79280D01*
X884280Y-85079D01*
X879020Y-91400D01*
X874380Y-98180D01*
X870380Y-105360D01*
X867060Y-112880D01*
X864460Y-120660D01*
X862580Y-128660D01*
X861440Y-136800D01*
X861060Y-145000D01*
X861440Y-153200D01*
X862580Y-161340D01*
X864460Y-169340D01*
X867060Y-177120D01*
X870380Y-184640D01*
X874380Y-191820D01*
X879020Y-198600D01*
X884280Y-204920D01*
X890080Y-210720D01*
X896400Y-215980D01*
X903180Y-220620D01*
X910360Y-224620D01*
X917880Y-227940D01*
X925660Y-230539D01*
X933660Y-232420D01*
X941800Y-233560D01*
G37*
G36*
X160000Y-233939D02*
G01*
X168200Y-233560D01*
X176340Y-232420D01*
X184340Y-230539D01*
X192120Y-227940D01*
X199640Y-224620D01*
X206820Y-220620D01*
X213600Y-215980D01*
X219920Y-210720D01*
X225720Y-204920D01*
X230980Y-198600D01*
X235620Y-191820D01*
X239620Y-184640D01*
X242940Y-177120D01*
X245539Y-169340D01*
X247420Y-161340D01*
X248560Y-153200D01*
X248939Y-145000D01*
X248560Y-136800D01*
X247420Y-128660D01*
X245539Y-120660D01*
X242940Y-112880D01*
X239620Y-105360D01*
X235620Y-98180D01*
X230980Y-91400D01*
X225720Y-85079D01*
X219920Y-79280D01*
X213600Y-74020D01*
X206820Y-69380D01*
X199640Y-65380D01*
X192120Y-62060D01*
X184340Y-59460D01*
X176340Y-57580D01*
X168200Y-56440D01*
X160000Y-56060D01*
X151800Y-56440D01*
X143660Y-57580D01*
X135660Y-59460D01*
X127880Y-62060D01*
X120360Y-65380D01*
X113180Y-69380D01*
X106400Y-74020D01*
X100079Y-79280D01*
X94280Y-85079D01*
X89019Y-91400D01*
X84380Y-98180D01*
X80380Y-105360D01*
X77060Y-112880D01*
X74460Y-120660D01*
X72580Y-128660D01*
X71440Y-136800D01*
X71060Y-145000D01*
X71440Y-153200D01*
X72580Y-161340D01*
X74460Y-169340D01*
X77060Y-177120D01*
X80380Y-184640D01*
X84380Y-191820D01*
X89019Y-198600D01*
X94280Y-204920D01*
X100079Y-210720D01*
X106400Y-215980D01*
X113180Y-220620D01*
X120360Y-224620D01*
X127880Y-227940D01*
X135660Y-230539D01*
X143660Y-232420D01*
X151800Y-233560D01*
G37*
G36*
X1296780Y-219220D02*
G01*
X1303899Y-218680D01*
X1310900Y-217399D01*
X1317740Y-215400D01*
X1324360Y-212719D01*
X1330640Y-209360D01*
X1336560Y-205380D01*
X1342040Y-200820D01*
X1347020Y-195720D01*
X1351440Y-190120D01*
X1355260Y-184100D01*
X1358460Y-177719D01*
X1360960Y-171060D01*
X1362780Y-164160D01*
X1363880Y-157120D01*
X1364240Y-150000D01*
X1363880Y-142880D01*
X1362780Y-135840D01*
X1360960Y-128940D01*
X1358460Y-122280D01*
X1355260Y-115900D01*
X1351440Y-109880D01*
X1347020Y-104280D01*
X1342040Y-99179D01*
X1336560Y-94620D01*
X1330640Y-90640D01*
X1324360Y-87280D01*
X1317740Y-84600D01*
X1310900Y-82600D01*
X1303899Y-81320D01*
X1296780Y-80780D01*
X1289660Y-80960D01*
X1282580Y-81880D01*
X1275640Y-83520D01*
X1268920Y-85860D01*
X1262460Y-88880D01*
X1256340Y-92540D01*
X1250640Y-96820D01*
X1245420Y-101679D01*
X1240700Y-107020D01*
X1236580Y-112840D01*
X1233060Y-119040D01*
X1230200Y-125580D01*
X1228040Y-132360D01*
X1226580Y-139340D01*
X1225840Y-146440D01*
X1225840Y-153560D01*
X1226580Y-160660D01*
X1228040Y-167640D01*
X1230200Y-174420D01*
X1233060Y-180960D01*
X1236580Y-187160D01*
X1240700Y-192979D01*
X1245420Y-198320D01*
X1250640Y-203180D01*
X1256340Y-207460D01*
X1262460Y-211119D01*
X1268920Y-214140D01*
X1275640Y-216480D01*
X1282580Y-218120D01*
X1289660Y-219040D01*
G37*

%LPD*%
G36*
X373980Y-1316980D02*
G01*
X372520Y-1316620D01*
X371300Y-1315740D01*
X370480Y-1314480D01*
X370200Y-1313000D01*
X370200Y-657960D01*
X370500Y-656420D01*
X371380Y-655120D01*
X447980Y-578520D01*
X449260Y-577660D01*
X450800Y-577360D01*
X452340Y-577660D01*
X453620Y-578520D01*
X454500Y-579820D01*
X454799Y-581360D01*
X454799Y-1131900D01*
X454580Y-1133240D01*
X453920Y-1134420D01*
X451440Y-1137460D01*
X449600Y-1140780D01*
X448340Y-1144360D01*
X447700Y-1148100D01*
X447700Y-1151900D01*
X448340Y-1155640D01*
X449600Y-1159220D01*
X451440Y-1162540D01*
X453840Y-1165500D01*
X456680Y-1168000D01*
X459920Y-1170000D01*
X463440Y-1171400D01*
X467140Y-1172200D01*
X471500Y-1172360D01*
X473040Y-1172720D01*
X474320Y-1173640D01*
X475140Y-1175000D01*
X475360Y-1176560D01*
X474960Y-1178100D01*
X471440Y-1182460D01*
X469600Y-1185780D01*
X468340Y-1189360D01*
X467700Y-1193100D01*
X467700Y-1194160D01*
X467380Y-1195680D01*
X466520Y-1196980D01*
X394400Y-1269120D01*
X392380Y-1271560D01*
X390980Y-1274200D01*
X390120Y-1277040D01*
X389799Y-1280200D01*
X389799Y-1304980D01*
X389520Y-1306459D01*
X388700Y-1307720D01*
X387480Y-1308600D01*
X385680Y-1309440D01*
X381160Y-1312320D01*
X376780Y-1316040D01*
X375480Y-1316780D01*
G37*

%LPD*%
G36*
X456820Y-1674560D02*
G01*
X454780Y-1674340D01*
X325300Y-1674340D01*
X324640Y-1674400D01*
X322980Y-1674240D01*
X321540Y-1673420D01*
X320540Y-1672060D01*
X320200Y-1670420D01*
X320200Y-1667140D01*
X320540Y-1665500D01*
X321540Y-1664139D01*
X322980Y-1663320D01*
X324640Y-1663160D01*
X325300Y-1663240D01*
X355060Y-1663240D01*
X355060Y-1643720D01*
X324200Y-1643720D01*
X322660Y-1643420D01*
X321380Y-1642540D01*
X320500Y-1641260D01*
X320200Y-1639720D01*
X320200Y-1619100D01*
X320500Y-1617560D01*
X321380Y-1616279D01*
X322660Y-1615400D01*
X324200Y-1615100D01*
X355060Y-1615100D01*
X355060Y-1595600D01*
X325300Y-1595600D01*
X324640Y-1595660D01*
X322980Y-1595500D01*
X321540Y-1594680D01*
X320540Y-1593320D01*
X320200Y-1591680D01*
X320200Y-1587960D01*
X320500Y-1586420D01*
X321380Y-1585120D01*
X365600Y-1540880D01*
X367620Y-1538440D01*
X369020Y-1535800D01*
X369880Y-1532960D01*
X370200Y-1529800D01*
X370200Y-1376380D01*
X370480Y-1374900D01*
X371300Y-1373620D01*
X372520Y-1372740D01*
X373980Y-1372380D01*
X375480Y-1372580D01*
X376780Y-1373320D01*
X381160Y-1377040D01*
X385680Y-1379940D01*
X390560Y-1382200D01*
X395680Y-1383779D01*
X400980Y-1384680D01*
X406340Y-1384860D01*
X411680Y-1384319D01*
X416900Y-1383080D01*
X421920Y-1381140D01*
X426620Y-1378560D01*
X430940Y-1375380D01*
X433020Y-1373380D01*
X434320Y-1372540D01*
X435840Y-1372240D01*
X437360Y-1372560D01*
X438640Y-1373440D01*
X439500Y-1374720D01*
X439799Y-1376240D01*
X439799Y-1414800D01*
X440120Y-1417960D01*
X440980Y-1420800D01*
X442380Y-1423440D01*
X444400Y-1425880D01*
X457620Y-1439120D01*
X458500Y-1440420D01*
X458800Y-1441960D01*
X458800Y-1591600D01*
X458500Y-1593120D01*
X457620Y-1594420D01*
X456340Y-1595280D01*
X454799Y-1595600D01*
X425020Y-1595600D01*
X425020Y-1615100D01*
X454799Y-1615100D01*
X456340Y-1615400D01*
X457620Y-1616279D01*
X458500Y-1617560D01*
X458800Y-1619100D01*
X458800Y-1623140D01*
X458579Y-1624460D01*
X457920Y-1625660D01*
X456440Y-1627460D01*
X454600Y-1630780D01*
X453340Y-1634360D01*
X452700Y-1638100D01*
X452700Y-1639720D01*
X452380Y-1641260D01*
X451520Y-1642540D01*
X450220Y-1643420D01*
X448700Y-1643720D01*
X425020Y-1643720D01*
X425020Y-1663240D01*
X454780Y-1663240D01*
X457260Y-1662940D01*
X459420Y-1662200D01*
X461340Y-1660980D01*
X462900Y-1660420D01*
X464560Y-1660520D01*
X466019Y-1661279D01*
X467060Y-1662580D01*
X467480Y-1664180D01*
X467200Y-1665820D01*
X466300Y-1667200D01*
X460100Y-1673420D01*
X459140Y-1674120D01*
X458000Y-1674520D01*
G37*

%LPD*%
D10*
X1245000Y-1105000D02*
G01*
X1355000Y-1105000D01*
X1355000Y-1140000D01*
X320039Y-2180590D02*
G01*
X163895Y-2180590D01*
X130000Y-2214484D01*
X240000Y-1750000D02*
G01*
X185000Y-1805000D01*
X185000Y-1940000D01*
X268099Y-2023099D01*
X390000Y-2023099D01*
X255000Y-2180000D02*
G01*
X325000Y-2180599D01*
X1155000Y-2280000D02*
G01*
X1355000Y-2280000D01*
X405000Y-1345000D02*
G01*
X405000Y-1280000D01*
X490000Y-1195000D01*
X410000Y-1125000D02*
G01*
X445000Y-1160000D01*
X445000Y-1205000D01*
D11*
X1020000Y-2180599D02*
G01*
X1280000Y-2180000D01*
D10*
X390000Y-2180601D02*
G01*
X390000Y-2210000D01*
X420000Y-2240000D01*
X1115000Y-2240000D01*
X1155000Y-2280000D01*
X1180000Y-2280000D01*
X510000Y-1460000D02*
G01*
X505000Y-1465000D01*
X505000Y-1520000D01*
X470000Y-1905000D02*
G01*
X430630Y-1944369D01*
X390039Y-1944369D01*
X530000Y-1615000D02*
G01*
X530000Y-1625000D01*
X446900Y-1708099D01*
X390000Y-1708099D01*
X492500Y-1864699D02*
G01*
X397500Y-1865300D01*
X690000Y-1285000D02*
G01*
X715000Y-1285000D01*
X765000Y-1348499D01*
X765000Y-1700000D01*
X930600Y-1865599D01*
X950000Y-1865599D01*
X550000Y-1460000D02*
G01*
X530000Y-1480000D01*
X530000Y-1615000D01*
X320000Y-2180599D02*
G01*
X335599Y-2180599D01*
X230000Y-1810000D02*
G01*
X253099Y-1786900D01*
X389000Y-1786900D01*
X1155000Y-2080000D02*
G01*
X1355000Y-2080000D01*
X1355000Y-2080000D02*
G01*
X1355000Y-2280000D01*
X220000Y-255000D02*
G01*
X220000Y-345000D01*
X245000Y-370000D01*
X315000Y-370000D01*
X650000Y-955000D02*
G01*
X555000Y-1050000D01*
X555000Y-1250000D01*
X525000Y-1280000D01*
X490000Y-1280000D01*
X220000Y-1410000D02*
G01*
X195000Y-1435000D01*
X195000Y-1645000D01*
X700000Y-385000D02*
G01*
X790000Y-475000D01*
X790000Y-735000D01*
X730000Y-370000D02*
G01*
X730000Y-360000D01*
X680000Y-360000D01*
X470000Y-570000D01*
X470000Y-1150000D01*
X760000Y-225000D02*
G01*
X760000Y-280000D01*
X1175000Y-695000D01*
X1099573Y-1165000D02*
G01*
X1259573Y-1325000D01*
X1295000Y-1325000D01*
X1175000Y-995000D02*
G01*
X1175000Y-1120000D01*
X1315000Y-1260000D01*
X285000Y-940000D02*
G01*
X185000Y-1040000D01*
X185000Y-1205000D01*
X205000Y-1225000D01*
X230000Y-1225000D01*
X1175000Y-795000D02*
G01*
X615000Y-795000D01*
X500000Y-910000D01*
X500000Y-915000D01*
X505000Y-1344699D02*
G01*
X505000Y-1335000D01*
X589600Y-1250399D01*
X589600Y-1115399D01*
X630000Y-1075000D01*
X730000Y-1075000D01*
X770000Y-1090000D02*
G01*
X605000Y-1255000D01*
X605000Y-1344684D01*
X900000Y-1110000D02*
G01*
X1075000Y-935000D01*
X1095000Y-935000D01*
X960000Y-385000D02*
G01*
X1225000Y-385000D01*
X1225000Y-1085000D01*
X1245000Y-1105000D02*
G01*
X1225000Y-1085000D01*
X1175000Y-895000D02*
G01*
X555000Y-895000D01*
X340000Y-225000D02*
G01*
X370000Y-255000D01*
X370000Y-370000D01*
X725000Y-945000D02*
G01*
X700000Y-920000D01*
X605000Y-920000D01*
X515000Y-1010000D01*
X515000Y-1240000D01*
X495000Y-1240000D01*
X455000Y-1280000D01*
X455000Y-1415000D01*
X474000Y-1434000D01*
X474000Y-1639000D01*
X475000Y-1640000D01*
X635000Y-370000D02*
G01*
X355000Y-650000D01*
X355000Y-1520000D01*
X355000Y-1530000D01*
X305000Y-1580000D01*
X305000Y-1690000D01*
X330000Y-1325000D02*
G01*
X330000Y-1350000D01*
X240000Y-1440000D01*
X240000Y-1715000D01*
X225000Y-1730000D01*
X210000Y-1730000D01*
X160000Y-1780000D01*
X160000Y-1810000D01*
X885000Y-930000D02*
G01*
X845000Y-970000D01*
X845000Y-1660000D01*
X971899Y-1786900D01*
X1020000Y-1786900D01*
D12*
G01*
X1019960Y-1629409D03*
G01*
X1019960Y-1708150D03*
G01*
X1019960Y-1786889D03*
G01*
X1019960Y-1865630D03*
G01*
X1019960Y-1944369D03*
G01*
X1019960Y-2023110D03*
G01*
X1019960Y-2101849D03*
G01*
X1019960Y-2180590D03*
G01*
X390039Y-2180590D03*
G01*
X390039Y-2101849D03*
G01*
X390039Y-2023110D03*
G01*
X390039Y-1944369D03*
G01*
X390039Y-1865630D03*
G01*
X390039Y-1786889D03*
G01*
X390039Y-1708150D03*
G01*
X390039Y-1629409D03*
D13*
G01*
X1175000Y-495000D03*
G01*
X1175000Y-595000D03*
G01*
X1175000Y-695000D03*
G01*
X1175000Y-795000D03*
G01*
X1175000Y-895000D03*
D14*
G01*
X1175000Y-995000D03*
D15*
G01*
X130000Y-2259490D03*
G01*
X130000Y-2070520D03*
D16*
G01*
X1280000Y-2180000D03*
D17*
G01*
X1380000Y-2280000D03*
G01*
X1380000Y-2080000D03*
G01*
X1180000Y-2080000D03*
G01*
X1180000Y-2280000D03*
D18*
G01*
X405000Y-1344690D03*
G01*
X505000Y-1344690D03*
G01*
X605000Y-1344690D03*
G01*
X705000Y-1345320D03*
D19*
G01*
X340000Y-225000D03*
G01*
X370000Y-370000D03*
G01*
X250000Y-2180000D03*
G01*
X500000Y-915000D03*
G01*
X555000Y-895000D03*
G01*
X960000Y-385000D03*
G01*
X1355000Y-1140000D03*
G01*
X760000Y-225000D03*
G01*
X900000Y-1110000D03*
G01*
X1095000Y-935000D03*
G01*
X490000Y-1195000D03*
G01*
X690000Y-1285000D03*
G01*
X770000Y-1090000D03*
G01*
X730000Y-1075000D03*
G01*
X725000Y-945000D03*
G01*
X635000Y-370000D03*
G01*
X285000Y-940000D03*
G01*
X230000Y-1225000D03*
G01*
X730000Y-370000D03*
G01*
X470000Y-1150000D03*
G01*
X1315000Y-1260000D03*
G01*
X1099570Y-1165000D03*
G01*
X1295000Y-1325000D03*
G01*
X700000Y-385000D03*
G01*
X790000Y-735000D03*
G01*
X885000Y-930000D03*
G01*
X505000Y-1520000D03*
G01*
X510000Y-1460000D03*
G01*
X405000Y-1345000D03*
G01*
X220000Y-1410000D03*
G01*
X195000Y-1645000D03*
G01*
X330000Y-1325000D03*
G01*
X160000Y-1805000D03*
G01*
X230000Y-1805000D03*
G01*
X650000Y-955000D03*
G01*
X490000Y-1280000D03*
G01*
X550000Y-1460000D03*
G01*
X305000Y-1690000D03*
G01*
X240000Y-1750000D03*
G01*
X220000Y-255000D03*
G01*
X315000Y-370000D03*
G01*
X495000Y-1865000D03*
G01*
X475000Y-1640000D03*
G01*
X470000Y-1905000D03*
G01*
X360000Y-1635000D03*
G01*
X410000Y-1125000D03*
G01*
X445000Y-1205000D03*
M02*
