G04 Layer: BottomSilkscreenLayer*
G04 EasyEDA v6.5.46, 2025-09-16 11:21:37*
G04 d57bd40a603b42be9e37e0d49851eb9c,10*
G04 Gerber Generator version 0.2*
G04 Scale: 100 percent, Rotated: No, Reflected: No *
G04 Dimensions in inches *
G04 leading zeros omitted , absolute positions ,3 integer and 6 decimal *
%FSLAX36Y36*%
%MOIN*%

%ADD10C,0.0080*%
%ADD11C,0.0100*%
%ADD12C,0.0060*%
%ADD13C,0.0197*%
%ADD14C,0.0118*%
%ADD15C,0.0173*%

%LPD*%
G36*
X1118940Y-1379319D02*
G01*
X1115760Y-1385480D01*
X1113760Y-1390580D01*
X1112460Y-1394180D01*
X1111180Y-1398380D01*
X1108620Y-1407380D01*
X1105760Y-1419920D01*
X1104440Y-1426680D01*
X1102500Y-1437480D01*
X1101240Y-1445360D01*
X1099600Y-1456620D01*
X1098280Y-1466819D01*
X1096380Y-1483620D01*
X1095740Y-1490440D01*
X1095400Y-1490940D01*
X1085900Y-1491920D01*
X1078140Y-1493120D01*
X1071700Y-1494319D01*
X1064680Y-1495800D01*
X1059520Y-1497020D01*
X1051680Y-1499120D01*
X1044920Y-1501140D01*
X1039419Y-1503040D01*
X1037800Y-1503520D01*
X1031040Y-1506040D01*
X1022320Y-1509660D01*
X1013600Y-1513700D01*
X1008439Y-1516260D01*
X999080Y-1521380D01*
X987460Y-1528560D01*
X980360Y-1533520D01*
X972760Y-1539240D01*
X968439Y-1542760D01*
X961000Y-1549120D01*
X952300Y-1557480D01*
X944580Y-1565720D01*
X938060Y-1573360D01*
X931580Y-1581780D01*
X925639Y-1590360D01*
X920180Y-1599180D01*
X913240Y-1612100D01*
X910560Y-1617800D01*
X907840Y-1624100D01*
X905939Y-1628899D01*
X902440Y-1638800D01*
X900540Y-1644800D01*
X898199Y-1653959D01*
X897320Y-1657720D01*
X895380Y-1668220D01*
X894340Y-1675420D01*
X893700Y-1681720D01*
X893000Y-1690720D01*
X893000Y-1700340D01*
X917000Y-1700340D01*
X917300Y-1688020D01*
X917940Y-1681120D01*
X918600Y-1675420D01*
X919860Y-1667760D01*
X920560Y-1664019D01*
X921900Y-1658020D01*
X924740Y-1647800D01*
X925920Y-1643899D01*
X928520Y-1636699D01*
X932500Y-1627100D01*
X935480Y-1620800D01*
X940819Y-1610880D01*
X945639Y-1602980D01*
X952860Y-1592580D01*
X958100Y-1585980D01*
X963240Y-1579980D01*
X969040Y-1573680D01*
X979720Y-1563560D01*
X987800Y-1556819D01*
X994900Y-1551459D01*
X1001020Y-1547180D01*
X1012320Y-1540140D01*
X1022940Y-1534460D01*
X1034900Y-1528940D01*
X1042660Y-1525840D01*
X1049700Y-1523360D01*
X1060080Y-1520180D01*
X1064600Y-1518959D01*
X1072340Y-1517120D01*
X1075880Y-1516440D01*
X1077880Y-1515900D01*
X1079500Y-1515900D01*
X1081380Y-1515360D01*
X1089120Y-1514120D01*
X1093560Y-1513740D01*
X1092760Y-1526540D01*
X1092100Y-1527300D01*
X1090220Y-1527300D01*
X1087500Y-1527840D01*
X1081220Y-1528839D01*
X1075240Y-1530000D01*
X1069760Y-1531220D01*
X1064280Y-1532620D01*
X1059440Y-1533980D01*
X1052000Y-1536339D01*
X1046840Y-1538200D01*
X1039419Y-1541220D01*
X1030620Y-1545300D01*
X1022960Y-1549420D01*
X1018439Y-1552000D01*
X1013600Y-1555020D01*
X1007860Y-1558959D01*
X1000699Y-1564259D01*
X995540Y-1568520D01*
X984220Y-1579079D01*
X981300Y-1582080D01*
X974880Y-1589280D01*
X967060Y-1599180D01*
X963220Y-1604580D01*
X957840Y-1613000D01*
X955660Y-1616600D01*
X948980Y-1629199D01*
X947620Y-1632040D01*
X947620Y-1632360D01*
X945440Y-1637160D01*
X943780Y-1641200D01*
X941200Y-1648700D01*
X939920Y-1654720D01*
X939160Y-1659220D01*
X938620Y-1661920D01*
X937320Y-1670920D01*
X936660Y-1676920D01*
X935920Y-1685620D01*
X936260Y-1708740D01*
X936919Y-1714740D01*
X938220Y-1723440D01*
X939580Y-1730040D01*
X941120Y-1736200D01*
X942780Y-1741759D01*
X945320Y-1749000D01*
X948640Y-1756759D01*
X949940Y-1759460D01*
X953980Y-1766960D01*
X955320Y-1769160D01*
X959340Y-1775380D01*
X961280Y-1778080D01*
X967099Y-1785280D01*
X972700Y-1791279D01*
X981660Y-1799400D01*
X987360Y-1803520D01*
X996500Y-1809360D01*
X999080Y-1810560D01*
X1002320Y-1811600D01*
X1005860Y-1812420D01*
X1012880Y-1812440D01*
X1015540Y-1811800D01*
X1020060Y-1810500D01*
X1023880Y-1808800D01*
X1027800Y-1806339D01*
X1032340Y-1802920D01*
X1036520Y-1798480D01*
X1038500Y-1796080D01*
X1041820Y-1791500D01*
X1045380Y-1785580D01*
X1048560Y-1779580D01*
X1051420Y-1773560D01*
X1054440Y-1766220D01*
X1058560Y-1754960D01*
X1060520Y-1748959D01*
X1062880Y-1741160D01*
X1064800Y-1734259D01*
X1068240Y-1720740D01*
X1071220Y-1707540D01*
X1074440Y-1691480D01*
X1077020Y-1677080D01*
X1079580Y-1661240D01*
X1082220Y-1643000D01*
X1084760Y-1622900D01*
X1086080Y-1611480D01*
X1088020Y-1592280D01*
X1089600Y-1574880D01*
X1090920Y-1558520D01*
X1092180Y-1539760D01*
X1092920Y-1527300D01*
X1145660Y-1527300D01*
X1146120Y-1533160D01*
X1146700Y-1543660D01*
X1147680Y-1557620D01*
X1149280Y-1577580D01*
X1151860Y-1604580D01*
X1155120Y-1632800D01*
X1157700Y-1651860D01*
X1160240Y-1668820D01*
X1161540Y-1676620D01*
X1164800Y-1694480D01*
X1167440Y-1707540D01*
X1170300Y-1720140D01*
X1172860Y-1730500D01*
X1177100Y-1745660D01*
X1179560Y-1753460D01*
X1183460Y-1764259D01*
X1186720Y-1772220D01*
X1188580Y-1776420D01*
X1194160Y-1787240D01*
X1198540Y-1793980D01*
X1203140Y-1799700D01*
X1208840Y-1804960D01*
X1214260Y-1808560D01*
X1218840Y-1810560D01*
X1222080Y-1811600D01*
X1226280Y-1812440D01*
X1232980Y-1812440D01*
X1238200Y-1811100D01*
X1242080Y-1809379D01*
X1249820Y-1804520D01*
X1254020Y-1801540D01*
X1257240Y-1799100D01*
X1261120Y-1795820D01*
X1267160Y-1790080D01*
X1272540Y-1784079D01*
X1276000Y-1779880D01*
X1280640Y-1773440D01*
X1285040Y-1766360D01*
X1289280Y-1758260D01*
X1290620Y-1755520D01*
X1292020Y-1752260D01*
X1293920Y-1747460D01*
X1295240Y-1743860D01*
X1297060Y-1737860D01*
X1298440Y-1732760D01*
X1300020Y-1725540D01*
X1301620Y-1715640D01*
X1302300Y-1709340D01*
X1302860Y-1695840D01*
X1302580Y-1684120D01*
X1301920Y-1676320D01*
X1301279Y-1670320D01*
X1299980Y-1661620D01*
X1298360Y-1653140D01*
X1297360Y-1648400D01*
X1294820Y-1640900D01*
X1291240Y-1632500D01*
X1288640Y-1627100D01*
X1284199Y-1618700D01*
X1278780Y-1609680D01*
X1276020Y-1605480D01*
X1269560Y-1596480D01*
X1264140Y-1589700D01*
X1257940Y-1582680D01*
X1255340Y-1579980D01*
X1242080Y-1567640D01*
X1239180Y-1565260D01*
X1232080Y-1559860D01*
X1225940Y-1555600D01*
X1217240Y-1550240D01*
X1209820Y-1546200D01*
X1197220Y-1540360D01*
X1193680Y-1538940D01*
X1183680Y-1535360D01*
X1177220Y-1533400D01*
X1170440Y-1531540D01*
X1162380Y-1529740D01*
X1155600Y-1528520D01*
X1148140Y-1527300D01*
X1146480Y-1527300D01*
X1145840Y-1526540D01*
X1145420Y-1518740D01*
X1145020Y-1514000D01*
X1150120Y-1514660D01*
X1157380Y-1515900D01*
X1162220Y-1516819D01*
X1167300Y-1517960D01*
X1174480Y-1519800D01*
X1181120Y-1521780D01*
X1187740Y-1523860D01*
X1191900Y-1525340D01*
X1201100Y-1528940D01*
X1213060Y-1534460D01*
X1223680Y-1540140D01*
X1234980Y-1547180D01*
X1241600Y-1551800D01*
X1252080Y-1559860D01*
X1264600Y-1571260D01*
X1271700Y-1578779D01*
X1277900Y-1585980D01*
X1283140Y-1592580D01*
X1290360Y-1602980D01*
X1295180Y-1610880D01*
X1300520Y-1620800D01*
X1303500Y-1627100D01*
X1305560Y-1631900D01*
X1307480Y-1636699D01*
X1310080Y-1643899D01*
X1311900Y-1649900D01*
X1314100Y-1658020D01*
X1315460Y-1664019D01*
X1316740Y-1671220D01*
X1317400Y-1675420D01*
X1318060Y-1681120D01*
X1318720Y-1688020D01*
X1319019Y-1700040D01*
X1318400Y-1713839D01*
X1317780Y-1720140D01*
X1317140Y-1724640D01*
X1316140Y-1730800D01*
X1314860Y-1737100D01*
X1313600Y-1742360D01*
X1312000Y-1748360D01*
X1310720Y-1752560D01*
X1308120Y-1760060D01*
X1306060Y-1765160D01*
X1305740Y-1766519D01*
X1305180Y-1766860D01*
X1305180Y-1767720D01*
X1302580Y-1773120D01*
X1302580Y-1773400D01*
X1300900Y-1776879D01*
X1295820Y-1786480D01*
X1293160Y-1790980D01*
X1289560Y-1796680D01*
X1281639Y-1807840D01*
X1277320Y-1813180D01*
X1272140Y-1819199D01*
X1266500Y-1825220D01*
X1258560Y-1832920D01*
X1248860Y-1841120D01*
X1242720Y-1845860D01*
X1233800Y-1852080D01*
X1225180Y-1857460D01*
X1218520Y-1861160D01*
X1211100Y-1864960D01*
X1202440Y-1868920D01*
X1198340Y-1870660D01*
X1198060Y-1870660D01*
X1194640Y-1872120D01*
X1191100Y-1873440D01*
X1185940Y-1875200D01*
X1175600Y-1878380D01*
X1171080Y-1879620D01*
X1159800Y-1882120D01*
X1153660Y-1883240D01*
X1149780Y-1883860D01*
X1140420Y-1885040D01*
X1133000Y-1885660D01*
X1123000Y-1886279D01*
X1113000Y-1886279D01*
X1103000Y-1885660D01*
X1095580Y-1885040D01*
X1090740Y-1884460D01*
X1084280Y-1883560D01*
X1077500Y-1882380D01*
X1069120Y-1880560D01*
X1064120Y-1879379D01*
X1060400Y-1878380D01*
X1050080Y-1875200D01*
X1043139Y-1872780D01*
X1037960Y-1870660D01*
X1037660Y-1870660D01*
X1033560Y-1868920D01*
X1024900Y-1864960D01*
X1017480Y-1861160D01*
X1010840Y-1857460D01*
X1002220Y-1852080D01*
X993280Y-1845860D01*
X987140Y-1841120D01*
X977460Y-1832920D01*
X969500Y-1825220D01*
X963860Y-1819199D01*
X957420Y-1811680D01*
X955879Y-1809580D01*
X955420Y-1809280D01*
X947320Y-1798000D01*
X942840Y-1790980D01*
X940200Y-1786480D01*
X935100Y-1776879D01*
X933420Y-1773400D01*
X933420Y-1773120D01*
X930840Y-1767720D01*
X930840Y-1766860D01*
X930260Y-1766519D01*
X929940Y-1765160D01*
X927880Y-1760060D01*
X925280Y-1752560D01*
X922760Y-1743860D01*
X921560Y-1738760D01*
X919680Y-1729900D01*
X918240Y-1720140D01*
X917600Y-1713839D01*
X917000Y-1700340D01*
X893000Y-1700340D01*
X893000Y-1707840D01*
X893680Y-1716840D01*
X894680Y-1725240D01*
X895620Y-1731840D01*
X897020Y-1739060D01*
X898580Y-1746100D01*
X901520Y-1756759D01*
X902620Y-1760220D01*
X905300Y-1767900D01*
X907660Y-1773880D01*
X910100Y-1779580D01*
X911480Y-1782420D01*
X911480Y-1782660D01*
X914100Y-1787980D01*
X918900Y-1796980D01*
X922980Y-1803880D01*
X927039Y-1810180D01*
X933700Y-1819540D01*
X939380Y-1826680D01*
X943480Y-1831500D01*
X946160Y-1834480D01*
X952940Y-1841699D01*
X964560Y-1852520D01*
X973960Y-1860160D01*
X982960Y-1866800D01*
X993100Y-1873520D01*
X1001979Y-1878680D01*
X1007240Y-1881519D01*
X1013600Y-1884780D01*
X1022000Y-1888620D01*
X1027700Y-1891080D01*
X1027940Y-1891080D01*
X1031360Y-1892520D01*
X1036520Y-1894460D01*
X1045240Y-1897380D01*
X1050080Y-1898860D01*
X1057660Y-1901000D01*
X1067980Y-1903380D01*
X1072660Y-1904319D01*
X1081380Y-1905820D01*
X1088000Y-1906720D01*
X1095900Y-1907560D01*
X1106220Y-1908340D01*
X1129780Y-1908340D01*
X1140100Y-1907560D01*
X1150440Y-1906420D01*
X1162060Y-1904600D01*
X1164640Y-1904040D01*
X1166900Y-1903660D01*
X1177540Y-1901240D01*
X1190120Y-1897640D01*
X1191420Y-1897120D01*
X1194320Y-1896220D01*
X1199480Y-1894460D01*
X1204640Y-1892520D01*
X1208060Y-1891080D01*
X1208300Y-1891080D01*
X1214000Y-1888620D01*
X1222400Y-1884780D01*
X1231020Y-1880320D01*
X1235960Y-1877600D01*
X1242900Y-1873520D01*
X1253060Y-1866800D01*
X1262040Y-1860160D01*
X1271440Y-1852520D01*
X1283060Y-1841699D01*
X1289840Y-1834480D01*
X1292520Y-1831500D01*
X1296620Y-1826680D01*
X1302300Y-1819540D01*
X1308959Y-1810180D01*
X1313020Y-1803880D01*
X1316459Y-1798180D01*
X1322860Y-1786180D01*
X1326740Y-1777780D01*
X1330720Y-1767900D01*
X1333959Y-1758560D01*
X1335880Y-1751960D01*
X1337440Y-1746040D01*
X1338740Y-1740260D01*
X1340060Y-1733640D01*
X1341020Y-1727640D01*
X1342320Y-1716840D01*
X1343000Y-1707840D01*
X1343000Y-1690720D01*
X1342320Y-1681720D01*
X1341660Y-1675420D01*
X1340640Y-1668220D01*
X1338680Y-1657720D01*
X1337480Y-1652600D01*
X1335460Y-1644800D01*
X1333460Y-1638500D01*
X1330060Y-1628899D01*
X1328160Y-1624100D01*
X1325440Y-1617800D01*
X1322760Y-1612100D01*
X1316180Y-1599740D01*
X1310360Y-1590360D01*
X1305080Y-1582680D01*
X1300540Y-1576680D01*
X1297920Y-1573360D01*
X1292320Y-1566660D01*
X1283720Y-1557480D01*
X1275000Y-1549120D01*
X1263260Y-1539240D01*
X1255640Y-1533520D01*
X1248540Y-1528560D01*
X1236920Y-1521380D01*
X1227560Y-1516260D01*
X1222400Y-1513700D01*
X1213680Y-1509660D01*
X1204980Y-1506040D01*
X1198200Y-1503520D01*
X1196580Y-1503040D01*
X1191100Y-1501140D01*
X1181980Y-1498460D01*
X1173680Y-1496339D01*
X1168820Y-1495240D01*
X1162060Y-1493920D01*
X1151400Y-1492160D01*
X1143240Y-1491200D01*
X1142820Y-1489319D01*
X1140940Y-1471320D01*
X1139660Y-1461120D01*
X1137400Y-1445060D01*
X1134800Y-1429680D01*
X1133780Y-1424500D01*
X1133460Y-1422400D01*
X1130300Y-1408580D01*
X1128280Y-1400780D01*
X1126940Y-1396579D01*
X1124180Y-1388760D01*
X1122160Y-1383980D01*
X1120460Y-1380680D01*
X1119540Y-1379319D01*
G37*
G36*
X1120100Y-1545660D02*
G01*
X1116560Y-1545980D01*
X1112520Y-1547740D01*
X1109720Y-1550300D01*
X1107740Y-1553560D01*
X1106620Y-1556560D01*
X1106040Y-1559259D01*
X1104780Y-1581480D01*
X1103160Y-1606380D01*
X1101880Y-1623880D01*
X1099300Y-1654720D01*
X1098000Y-1668300D01*
X1096400Y-1683820D01*
X1094480Y-1700640D01*
X1092820Y-1714000D01*
X1091560Y-1723440D01*
X1088660Y-1743260D01*
X1085440Y-1762460D01*
X1082240Y-1778980D01*
X1080240Y-1788280D01*
X1078320Y-1796540D01*
X1075420Y-1807940D01*
X1071280Y-1821900D01*
X1068020Y-1831220D01*
X1064960Y-1838700D01*
X1063400Y-1842000D01*
X1060220Y-1848000D01*
X1058540Y-1850700D01*
X1056680Y-1853220D01*
X1056680Y-1855880D01*
X1058340Y-1857420D01*
X1064280Y-1859640D01*
X1069440Y-1861399D01*
X1075880Y-1863380D01*
X1081700Y-1864920D01*
X1088480Y-1866420D01*
X1095900Y-1867640D01*
X1102020Y-1868400D01*
X1136560Y-1868400D01*
X1142680Y-1867640D01*
X1151560Y-1866120D01*
X1156720Y-1864960D01*
X1162700Y-1863380D01*
X1171200Y-1860780D01*
X1180240Y-1857420D01*
X1181900Y-1855880D01*
X1181900Y-1853180D01*
X1179300Y-1849340D01*
X1177040Y-1845460D01*
X1174260Y-1839900D01*
X1170960Y-1832100D01*
X1167940Y-1823700D01*
X1167440Y-1821900D01*
X1165800Y-1816800D01*
X1163460Y-1808680D01*
X1160880Y-1798779D01*
X1158340Y-1787980D01*
X1156740Y-1780480D01*
X1153820Y-1765620D01*
X1150900Y-1748800D01*
X1148020Y-1729900D01*
X1146720Y-1720600D01*
X1144100Y-1700040D01*
X1142540Y-1686160D01*
X1140580Y-1667460D01*
X1139320Y-1654120D01*
X1137040Y-1627400D01*
X1135420Y-1605340D01*
X1133160Y-1569160D01*
X1132840Y-1561060D01*
X1132120Y-1556860D01*
X1131200Y-1554160D01*
X1129480Y-1550900D01*
X1126080Y-1547680D01*
X1122360Y-1546100D01*
G37*
G36*
X1249820Y-1948440D02*
G01*
X1245560Y-1948660D01*
X1242640Y-1949940D01*
X1240780Y-1951860D01*
X1239200Y-1953959D01*
X1238820Y-1954259D01*
X1237280Y-1956360D01*
X1236880Y-1956660D01*
X1235320Y-1958760D01*
X1222640Y-1974500D01*
X1222220Y-1976540D01*
X1222660Y-1977680D01*
X1224300Y-1979319D01*
X1227280Y-1979319D01*
X1228620Y-1978160D01*
X1245840Y-1956800D01*
X1247960Y-1955320D01*
X1249000Y-1955320D01*
X1251760Y-1957860D01*
X1254320Y-1961160D01*
X1254680Y-1961459D01*
X1267500Y-1977380D01*
X1269480Y-1979319D01*
X1272460Y-1979319D01*
X1274220Y-1977620D01*
X1274560Y-1975560D01*
X1273920Y-1974060D01*
X1272620Y-1972560D01*
X1257080Y-1953060D01*
X1254200Y-1949980D01*
X1251760Y-1948899D01*
G37*
G36*
X1052980Y-1948460D02*
G01*
X1048680Y-1948660D01*
X1045939Y-1949960D01*
X1044479Y-1951260D01*
X1027140Y-1972860D01*
X1025600Y-1974900D01*
X1025600Y-1977540D01*
X1027440Y-1979319D01*
X1030580Y-1979319D01*
X1031780Y-1978280D01*
X1035879Y-1973160D01*
X1037460Y-1971060D01*
X1037840Y-1970760D01*
X1039400Y-1968660D01*
X1039780Y-1968360D01*
X1041320Y-1966260D01*
X1041720Y-1965960D01*
X1043259Y-1963860D01*
X1043660Y-1963560D01*
X1045200Y-1961459D01*
X1045580Y-1961160D01*
X1048139Y-1957860D01*
X1050900Y-1955320D01*
X1051940Y-1955320D01*
X1054060Y-1956800D01*
X1070980Y-1977680D01*
X1072620Y-1979319D01*
X1075640Y-1979319D01*
X1077360Y-1977720D01*
X1077740Y-1976300D01*
X1077340Y-1974460D01*
X1065240Y-1959360D01*
X1063640Y-1957260D01*
X1062840Y-1956360D01*
X1059040Y-1951540D01*
X1056720Y-1949640D01*
X1054580Y-1948740D01*
G37*
G36*
X1285740Y-1949900D02*
G01*
X1283880Y-1951780D01*
X1283880Y-1954139D01*
X1284940Y-1955640D01*
X1286740Y-1956519D01*
X1332720Y-1956519D01*
X1334220Y-1957820D01*
X1334220Y-1960080D01*
X1332340Y-1961320D01*
X1289520Y-1961320D01*
X1287260Y-1962060D01*
X1284860Y-1963440D01*
X1283000Y-1965660D01*
X1281819Y-1967760D01*
X1281819Y-1972860D01*
X1283240Y-1975620D01*
X1285640Y-1977740D01*
X1288740Y-1979319D01*
X1337140Y-1979319D01*
X1338640Y-1977980D01*
X1339360Y-1975960D01*
X1338480Y-1974019D01*
X1336699Y-1972720D01*
X1290600Y-1972720D01*
X1289360Y-1972100D01*
X1288380Y-1970320D01*
X1289360Y-1968540D01*
X1290600Y-1967920D01*
X1333220Y-1967920D01*
X1336680Y-1966720D01*
X1339360Y-1964580D01*
X1341320Y-1960780D01*
X1341320Y-1956819D01*
X1339780Y-1953660D01*
X1337160Y-1951200D01*
X1334379Y-1949940D01*
G37*
G36*
X1157640Y-1949900D02*
G01*
X1155600Y-1951240D01*
X1154500Y-1952460D01*
X1153500Y-1955120D01*
X1153500Y-1977080D01*
X1155480Y-1979319D01*
X1158760Y-1979319D01*
X1160600Y-1977420D01*
X1160600Y-1959240D01*
X1161200Y-1958899D01*
X1162820Y-1960260D01*
X1179440Y-1977900D01*
X1181880Y-1979319D01*
X1186640Y-1979319D01*
X1188520Y-1978440D01*
X1191480Y-1975560D01*
X1207180Y-1958920D01*
X1207640Y-1958920D01*
X1208020Y-1960260D01*
X1208040Y-1977080D01*
X1209140Y-1978580D01*
X1210140Y-1979300D01*
X1213080Y-1979319D01*
X1214980Y-1977480D01*
X1214980Y-1953959D01*
X1213220Y-1951160D01*
X1211100Y-1949960D01*
X1206580Y-1949920D01*
X1203400Y-1952160D01*
X1185700Y-1970860D01*
X1184140Y-1971240D01*
X1182260Y-1970320D01*
X1181740Y-1969460D01*
X1174960Y-1962360D01*
X1164640Y-1951339D01*
X1162000Y-1949900D01*
G37*
G36*
X1088760Y-1949900D02*
G01*
X1086060Y-1952040D01*
X1084920Y-1954259D01*
X1084920Y-1977480D01*
X1086820Y-1979319D01*
X1089920Y-1979319D01*
X1091260Y-1978280D01*
X1092180Y-1976240D01*
X1092180Y-1958920D01*
X1092780Y-1958920D01*
X1110600Y-1977760D01*
X1113140Y-1979319D01*
X1117900Y-1979319D01*
X1119840Y-1978420D01*
X1123320Y-1974960D01*
X1138340Y-1959060D01*
X1139140Y-1959060D01*
X1139460Y-1977480D01*
X1141360Y-1979319D01*
X1144400Y-1979319D01*
X1146400Y-1977200D01*
X1146400Y-1954400D01*
X1145060Y-1951759D01*
X1143820Y-1950720D01*
X1142360Y-1949960D01*
X1137960Y-1949900D01*
X1135120Y-1951720D01*
X1117000Y-1970860D01*
X1115400Y-1971240D01*
X1113640Y-1970260D01*
X1096220Y-1951620D01*
X1093360Y-1949900D01*
G37*
G36*
X968540Y-1949900D02*
G01*
X964980Y-1951540D01*
X962480Y-1954180D01*
X961160Y-1957440D01*
X961160Y-1960020D01*
X961860Y-1962060D01*
X962880Y-1963860D01*
X964560Y-1965580D01*
X967140Y-1967220D01*
X970200Y-1968000D01*
X970200Y-1968420D01*
X964240Y-1972240D01*
X961160Y-1975100D01*
X961160Y-1976639D01*
X962080Y-1978280D01*
X963439Y-1979319D01*
X966100Y-1979319D01*
X972300Y-1975180D01*
X976520Y-1972780D01*
X981680Y-1970380D01*
X986760Y-1968779D01*
X991660Y-1967920D01*
X1008960Y-1967920D01*
X1010860Y-1968839D01*
X1010939Y-1968959D01*
X1011340Y-1977480D01*
X1013240Y-1979319D01*
X1016260Y-1979319D01*
X1017980Y-1977720D01*
X1018360Y-1976320D01*
X1018100Y-1966860D01*
X1016620Y-1964460D01*
X1014900Y-1962740D01*
X1011500Y-1961320D01*
X970480Y-1961320D01*
X969080Y-1960620D01*
X968280Y-1959660D01*
X968259Y-1957900D01*
X969659Y-1956519D01*
X1015220Y-1956500D01*
X1017480Y-1955460D01*
X1018319Y-1953959D01*
X1018020Y-1951279D01*
X1016180Y-1949920D01*
G37*
G36*
X905660Y-1949900D02*
G01*
X903060Y-1950660D01*
X899479Y-1953140D01*
X896940Y-1956279D01*
X896020Y-1958160D01*
X894920Y-1961160D01*
X894620Y-1966440D01*
X895400Y-1969259D01*
X896740Y-1972560D01*
X898480Y-1974960D01*
X901740Y-1977800D01*
X905140Y-1979319D01*
X952080Y-1979319D01*
X954060Y-1977480D01*
X954060Y-1963160D01*
X952080Y-1961320D01*
X949160Y-1961320D01*
X946979Y-1963360D01*
X946979Y-1972720D01*
X907680Y-1972720D01*
X905360Y-1971819D01*
X903139Y-1970020D01*
X901780Y-1967320D01*
X901780Y-1961980D01*
X902760Y-1959840D01*
X904800Y-1957680D01*
X907260Y-1956519D01*
X951200Y-1956519D01*
X953000Y-1955640D01*
X954060Y-1954139D01*
X954060Y-1951660D01*
X952180Y-1949900D01*
G37*
G36*
X191100Y-693500D02*
G01*
X188560Y-693640D01*
X186320Y-694040D01*
X184400Y-694740D01*
X182800Y-695699D01*
X181540Y-696860D01*
X180620Y-698220D01*
X180080Y-699800D01*
X179899Y-701600D01*
X179930Y-702200D01*
X184300Y-702200D01*
X184420Y-701020D01*
X184780Y-700000D01*
X185360Y-699120D01*
X186200Y-698400D01*
X187260Y-697840D01*
X188500Y-697420D01*
X189940Y-697180D01*
X191600Y-697099D01*
X200799Y-697099D01*
X200799Y-707200D01*
X191600Y-707200D01*
X189960Y-707120D01*
X188500Y-706880D01*
X187260Y-706460D01*
X186200Y-705900D01*
X185360Y-705220D01*
X184780Y-704380D01*
X184420Y-703360D01*
X184300Y-702200D01*
X179930Y-702200D01*
X179960Y-702800D01*
X180180Y-703920D01*
X180520Y-704960D01*
X181000Y-705900D01*
X181600Y-706760D01*
X182320Y-707500D01*
X183160Y-708139D01*
X184100Y-708700D01*
X182780Y-709140D01*
X181620Y-709720D01*
X180640Y-710480D01*
X179800Y-711400D01*
X179100Y-712460D01*
X178600Y-713680D01*
X178299Y-715020D01*
X178227Y-716100D01*
X182700Y-716100D01*
X184620Y-712200D01*
X190400Y-710900D01*
X200799Y-710900D01*
X200799Y-721400D01*
X190400Y-721400D01*
X188619Y-721320D01*
X187079Y-721080D01*
X185760Y-720660D01*
X184700Y-720100D01*
X183820Y-719360D01*
X183200Y-718460D01*
X182820Y-717360D01*
X182700Y-716100D01*
X178227Y-716100D01*
X178200Y-716500D01*
X178400Y-718439D01*
X178980Y-720120D01*
X179940Y-721580D01*
X181300Y-722800D01*
X182979Y-723760D01*
X185020Y-724460D01*
X187440Y-724860D01*
X190200Y-725000D01*
X205300Y-725000D01*
X205300Y-693500D01*
G37*
G36*
X150100Y-693500D02*
G01*
X150100Y-697400D01*
X160900Y-697400D01*
X160900Y-725000D01*
X165400Y-725000D01*
X165400Y-697400D01*
X176200Y-697400D01*
X176200Y-693500D01*
G37*
G36*
X1326000Y-483100D02*
G01*
X1324139Y-483180D01*
X1322380Y-483420D01*
X1320700Y-483840D01*
X1319100Y-484400D01*
X1317620Y-485080D01*
X1316260Y-485900D01*
X1315020Y-486880D01*
X1313899Y-488000D01*
X1316600Y-490800D01*
X1320800Y-488020D01*
X1325800Y-487100D01*
X1327560Y-487200D01*
X1329199Y-487500D01*
X1330760Y-488000D01*
X1332200Y-488700D01*
X1333560Y-489560D01*
X1334780Y-490580D01*
X1335820Y-491719D01*
X1336699Y-493000D01*
X1337400Y-494440D01*
X1337900Y-495980D01*
X1338200Y-497600D01*
X1338300Y-499300D01*
X1338200Y-500959D01*
X1337900Y-502520D01*
X1337400Y-504000D01*
X1336699Y-505400D01*
X1335820Y-506719D01*
X1334780Y-507900D01*
X1333560Y-508920D01*
X1332200Y-509799D01*
X1330740Y-510500D01*
X1329199Y-511000D01*
X1327560Y-511300D01*
X1325800Y-511400D01*
X1323760Y-511260D01*
X1321879Y-510880D01*
X1320120Y-510220D01*
X1318500Y-509300D01*
X1318500Y-499099D01*
X1314100Y-499099D01*
X1314100Y-511400D01*
X1315340Y-512299D01*
X1316680Y-513080D01*
X1318100Y-513740D01*
X1321160Y-514780D01*
X1322780Y-515120D01*
X1324420Y-515340D01*
X1326100Y-515400D01*
X1328400Y-515260D01*
X1330600Y-514880D01*
X1332700Y-514219D01*
X1334700Y-513300D01*
X1336500Y-512160D01*
X1338100Y-510800D01*
X1339500Y-509260D01*
X1340700Y-507500D01*
X1341620Y-505600D01*
X1342280Y-503600D01*
X1342660Y-501500D01*
X1342800Y-499300D01*
X1342660Y-497060D01*
X1342280Y-494920D01*
X1341620Y-492900D01*
X1340700Y-491000D01*
X1339500Y-489240D01*
X1338080Y-487700D01*
X1336440Y-486360D01*
X1334600Y-485200D01*
X1332640Y-484280D01*
X1330560Y-483620D01*
X1328340Y-483240D01*
G37*
G36*
X1278400Y-483500D02*
G01*
X1278400Y-515000D01*
X1282100Y-515000D01*
X1301000Y-491500D01*
X1301000Y-515000D01*
X1305500Y-515000D01*
X1305500Y-483500D01*
X1301800Y-483500D01*
X1282900Y-507000D01*
X1282900Y-483500D01*
G37*
G36*
X1255700Y-483500D02*
G01*
X1253280Y-483620D01*
X1251000Y-484000D01*
X1248880Y-484620D01*
X1246900Y-485500D01*
X1245060Y-486599D01*
X1243420Y-487879D01*
X1242000Y-489340D01*
X1240800Y-491000D01*
X1239880Y-492860D01*
X1239220Y-494880D01*
X1238840Y-497020D01*
X1238700Y-499300D01*
X1243200Y-499300D01*
X1243300Y-497560D01*
X1243600Y-495940D01*
X1244100Y-494460D01*
X1244800Y-493100D01*
X1245680Y-491820D01*
X1246720Y-490700D01*
X1247940Y-489720D01*
X1249300Y-488900D01*
X1250800Y-488240D01*
X1252420Y-487780D01*
X1254160Y-487500D01*
X1256000Y-487400D01*
X1264500Y-487400D01*
X1264500Y-511100D01*
X1256000Y-511100D01*
X1254160Y-511000D01*
X1252420Y-510720D01*
X1250800Y-510260D01*
X1249300Y-509600D01*
X1247940Y-508780D01*
X1246720Y-507800D01*
X1245680Y-506680D01*
X1244800Y-505400D01*
X1244100Y-504040D01*
X1243600Y-502580D01*
X1243300Y-501000D01*
X1243200Y-499300D01*
X1238700Y-499300D01*
X1238840Y-501540D01*
X1239220Y-503640D01*
X1239880Y-505640D01*
X1240800Y-507500D01*
X1242000Y-509159D01*
X1243420Y-510620D01*
X1245060Y-511900D01*
X1246900Y-513000D01*
X1248880Y-513880D01*
X1251000Y-514500D01*
X1253280Y-514880D01*
X1255700Y-515000D01*
X1269000Y-515000D01*
X1269000Y-483500D01*
G37*
G36*
X1252100Y-583100D02*
G01*
X1249320Y-583300D01*
X1246600Y-583900D01*
X1245300Y-584280D01*
X1244080Y-584740D01*
X1242940Y-585280D01*
X1241900Y-585900D01*
X1243400Y-589500D01*
X1245460Y-588420D01*
X1247600Y-587600D01*
X1249880Y-587160D01*
X1252100Y-587000D01*
X1253880Y-587080D01*
X1255420Y-587340D01*
X1256740Y-587780D01*
X1257800Y-588400D01*
X1258640Y-589140D01*
X1259220Y-590000D01*
X1259580Y-590960D01*
X1259700Y-592000D01*
X1259640Y-592760D01*
X1259420Y-593460D01*
X1259080Y-594060D01*
X1258600Y-594600D01*
X1257380Y-595500D01*
X1255900Y-596200D01*
X1248420Y-598220D01*
X1245900Y-599100D01*
X1244840Y-599560D01*
X1243880Y-600140D01*
X1243000Y-600860D01*
X1242200Y-601700D01*
X1241500Y-602640D01*
X1241000Y-603720D01*
X1240700Y-604980D01*
X1240600Y-606400D01*
X1240680Y-607620D01*
X1240960Y-608780D01*
X1241380Y-609860D01*
X1242000Y-610900D01*
X1242740Y-611900D01*
X1243680Y-612780D01*
X1244800Y-613540D01*
X1246100Y-614200D01*
X1247540Y-614720D01*
X1249120Y-615100D01*
X1250880Y-615320D01*
X1252800Y-615400D01*
X1254580Y-615340D01*
X1256320Y-615120D01*
X1258040Y-614780D01*
X1259700Y-614300D01*
X1261260Y-613700D01*
X1262640Y-613020D01*
X1263860Y-612260D01*
X1264900Y-611400D01*
X1263200Y-607900D01*
X1262240Y-608660D01*
X1261140Y-609340D01*
X1259940Y-609960D01*
X1258600Y-610500D01*
X1257180Y-610940D01*
X1255740Y-611240D01*
X1254280Y-611440D01*
X1252800Y-611500D01*
X1250980Y-611420D01*
X1249400Y-611180D01*
X1248080Y-610760D01*
X1247000Y-610200D01*
X1246120Y-609500D01*
X1245500Y-608680D01*
X1245120Y-607740D01*
X1245000Y-606700D01*
X1245060Y-605940D01*
X1245280Y-605220D01*
X1245620Y-604580D01*
X1246100Y-604000D01*
X1247300Y-603120D01*
X1248700Y-602500D01*
X1256280Y-600420D01*
X1258800Y-599600D01*
X1259860Y-599100D01*
X1260860Y-598480D01*
X1261760Y-597740D01*
X1262600Y-596900D01*
X1263260Y-595960D01*
X1263720Y-594840D01*
X1264000Y-593560D01*
X1264100Y-592100D01*
X1264020Y-590880D01*
X1263780Y-589720D01*
X1263360Y-588640D01*
X1262800Y-587600D01*
X1262060Y-586660D01*
X1261140Y-585800D01*
X1260060Y-585060D01*
X1258800Y-584400D01*
X1257360Y-583840D01*
X1255780Y-583420D01*
X1254020Y-583180D01*
G37*
G36*
X1308000Y-583500D02*
G01*
X1302560Y-584220D01*
X1298400Y-586400D01*
X1296819Y-588000D01*
X1295700Y-589880D01*
X1295020Y-592040D01*
X1294800Y-594500D01*
X1299400Y-594500D01*
X1299540Y-592900D01*
X1299940Y-591480D01*
X1300640Y-590240D01*
X1301600Y-589200D01*
X1302860Y-588420D01*
X1304379Y-587840D01*
X1306120Y-587520D01*
X1308100Y-587400D01*
X1315800Y-587400D01*
X1315800Y-601600D01*
X1308100Y-601600D01*
X1306120Y-601480D01*
X1304379Y-601120D01*
X1302860Y-600540D01*
X1301600Y-599700D01*
X1300640Y-598700D01*
X1299940Y-597500D01*
X1299540Y-596100D01*
X1299400Y-594500D01*
X1294800Y-594500D01*
X1294920Y-596240D01*
X1295240Y-597840D01*
X1295820Y-599340D01*
X1296600Y-600700D01*
X1297640Y-601900D01*
X1298860Y-602920D01*
X1300240Y-603760D01*
X1301800Y-604400D01*
X1294300Y-615000D01*
X1299199Y-615000D01*
X1306000Y-605300D01*
X1307160Y-605380D01*
X1315800Y-605400D01*
X1315800Y-615000D01*
X1320300Y-615000D01*
X1320300Y-583500D01*
G37*
G36*
X1266500Y-583500D02*
G01*
X1266500Y-587400D01*
X1277300Y-587400D01*
X1277300Y-615000D01*
X1281800Y-615000D01*
X1281800Y-587400D01*
X1292600Y-587400D01*
X1292600Y-583500D01*
G37*
G36*
X1302500Y-683500D02*
G01*
X1302500Y-686600D01*
X1310800Y-696700D01*
X1308600Y-697060D01*
X1306680Y-697680D01*
X1305040Y-698520D01*
X1303700Y-699599D01*
X1302660Y-700879D01*
X1301900Y-702320D01*
X1301440Y-703940D01*
X1301300Y-705699D01*
X1301380Y-707020D01*
X1301620Y-708280D01*
X1302040Y-709460D01*
X1302600Y-710600D01*
X1303380Y-711640D01*
X1304319Y-712580D01*
X1305440Y-713400D01*
X1306699Y-714100D01*
X1308080Y-714659D01*
X1309620Y-715080D01*
X1311339Y-715320D01*
X1313200Y-715400D01*
X1314880Y-715340D01*
X1316519Y-715120D01*
X1318140Y-714780D01*
X1319700Y-714300D01*
X1321180Y-713740D01*
X1322520Y-713100D01*
X1323740Y-712360D01*
X1324800Y-711500D01*
X1322700Y-708000D01*
X1321840Y-708720D01*
X1320880Y-709360D01*
X1319800Y-709920D01*
X1317280Y-710840D01*
X1315960Y-711140D01*
X1314580Y-711340D01*
X1313200Y-711400D01*
X1311540Y-711300D01*
X1310080Y-711020D01*
X1308800Y-710560D01*
X1307700Y-709900D01*
X1306860Y-709080D01*
X1306279Y-708120D01*
X1305920Y-707039D01*
X1305800Y-705800D01*
X1305920Y-704560D01*
X1306279Y-703480D01*
X1306860Y-702520D01*
X1307700Y-701700D01*
X1308820Y-701080D01*
X1310180Y-700660D01*
X1311759Y-700380D01*
X1316100Y-700300D01*
X1316100Y-697099D01*
X1308200Y-687400D01*
X1323300Y-687400D01*
X1323300Y-683500D01*
G37*
G36*
X1267600Y-683500D02*
G01*
X1281399Y-715000D01*
X1285900Y-715000D01*
X1299800Y-683500D01*
X1294900Y-683500D01*
X1283600Y-709400D01*
X1272100Y-683500D01*
G37*
G36*
X1245100Y-683500D02*
G01*
X1245100Y-686600D01*
X1253300Y-696700D01*
X1251140Y-697060D01*
X1249260Y-697680D01*
X1247640Y-698520D01*
X1246300Y-699599D01*
X1245200Y-700879D01*
X1244420Y-702320D01*
X1243960Y-703940D01*
X1243800Y-705699D01*
X1243880Y-707020D01*
X1244140Y-708280D01*
X1244580Y-709460D01*
X1245200Y-710600D01*
X1245940Y-711640D01*
X1246840Y-712580D01*
X1247940Y-713400D01*
X1249200Y-714100D01*
X1250620Y-714659D01*
X1252180Y-715080D01*
X1253860Y-715320D01*
X1255700Y-715400D01*
X1257380Y-715340D01*
X1259020Y-715120D01*
X1260640Y-714780D01*
X1262200Y-714300D01*
X1263680Y-713740D01*
X1265020Y-713100D01*
X1266240Y-712360D01*
X1267300Y-711500D01*
X1265200Y-708000D01*
X1264340Y-708720D01*
X1263380Y-709360D01*
X1262300Y-709920D01*
X1259820Y-710840D01*
X1258500Y-711140D01*
X1257120Y-711340D01*
X1255700Y-711400D01*
X1254040Y-711300D01*
X1252600Y-711020D01*
X1251360Y-710560D01*
X1250300Y-709900D01*
X1249420Y-709080D01*
X1248800Y-708120D01*
X1248420Y-707039D01*
X1248300Y-705800D01*
X1248420Y-704560D01*
X1248800Y-703480D01*
X1249420Y-702520D01*
X1250300Y-701700D01*
X1251380Y-701080D01*
X1252700Y-700660D01*
X1254280Y-700380D01*
X1258600Y-700300D01*
X1258600Y-697099D01*
X1250700Y-687400D01*
X1265900Y-687400D01*
X1265900Y-683500D01*
G37*
G36*
X1318000Y-783500D02*
G01*
X1312560Y-784220D01*
X1308400Y-786400D01*
X1306819Y-788000D01*
X1305700Y-789880D01*
X1305020Y-792039D01*
X1304800Y-794500D01*
X1309400Y-794500D01*
X1309540Y-792900D01*
X1309940Y-791480D01*
X1310640Y-790240D01*
X1311600Y-789200D01*
X1312860Y-788420D01*
X1314379Y-787840D01*
X1316120Y-787520D01*
X1318100Y-787400D01*
X1325800Y-787400D01*
X1325800Y-801600D01*
X1318100Y-801600D01*
X1316120Y-801480D01*
X1314379Y-801120D01*
X1312860Y-800540D01*
X1311600Y-799700D01*
X1310640Y-798700D01*
X1309940Y-797500D01*
X1309540Y-796100D01*
X1309400Y-794500D01*
X1304800Y-794500D01*
X1304920Y-796240D01*
X1305240Y-797840D01*
X1305820Y-799340D01*
X1306600Y-800699D01*
X1307640Y-801900D01*
X1308860Y-802920D01*
X1310240Y-803760D01*
X1311800Y-804400D01*
X1304300Y-815000D01*
X1309199Y-815000D01*
X1316000Y-805300D01*
X1317160Y-805380D01*
X1325800Y-805400D01*
X1325800Y-815000D01*
X1330300Y-815000D01*
X1330300Y-783500D01*
G37*
G36*
X1274300Y-783500D02*
G01*
X1285400Y-798700D01*
X1273500Y-815000D01*
X1278700Y-815000D01*
X1288100Y-802000D01*
X1297400Y-815000D01*
X1302600Y-815000D01*
X1290800Y-798800D01*
X1301900Y-783500D01*
X1296800Y-783500D01*
X1287900Y-795600D01*
X1279200Y-783500D01*
G37*
G36*
X1255900Y-783500D02*
G01*
X1253480Y-783620D01*
X1251200Y-784000D01*
X1249080Y-784620D01*
X1247100Y-785500D01*
X1245260Y-786600D01*
X1243640Y-787880D01*
X1242260Y-789340D01*
X1241100Y-791000D01*
X1240140Y-792860D01*
X1239440Y-794880D01*
X1239040Y-797020D01*
X1238900Y-799300D01*
X1243400Y-799300D01*
X1243500Y-797560D01*
X1243800Y-795939D01*
X1244300Y-794460D01*
X1245000Y-793100D01*
X1245880Y-791820D01*
X1246920Y-790699D01*
X1248140Y-789720D01*
X1249500Y-788900D01*
X1251000Y-788240D01*
X1252620Y-787780D01*
X1254360Y-787500D01*
X1256200Y-787400D01*
X1264700Y-787400D01*
X1264700Y-811100D01*
X1256200Y-811100D01*
X1254360Y-811000D01*
X1252620Y-810720D01*
X1251000Y-810260D01*
X1249500Y-809599D01*
X1248140Y-808780D01*
X1246920Y-807800D01*
X1245880Y-806680D01*
X1245000Y-805400D01*
X1244300Y-804040D01*
X1243800Y-802580D01*
X1243500Y-801000D01*
X1243400Y-799300D01*
X1238900Y-799300D01*
X1239040Y-801540D01*
X1239460Y-803640D01*
X1240140Y-805639D01*
X1241100Y-807500D01*
X1242260Y-809160D01*
X1243640Y-810620D01*
X1245260Y-811900D01*
X1247100Y-813000D01*
X1249080Y-813880D01*
X1251200Y-814500D01*
X1253480Y-814880D01*
X1255900Y-815000D01*
X1269200Y-815000D01*
X1269200Y-783500D01*
G37*
G36*
X1303800Y-883500D02*
G01*
X1303800Y-887400D01*
X1314600Y-887400D01*
X1314600Y-915000D01*
X1319000Y-915000D01*
X1319000Y-887400D01*
X1329800Y-887400D01*
X1329800Y-883500D01*
G37*
G36*
X1276000Y-883500D02*
G01*
X1287200Y-898700D01*
X1275200Y-915000D01*
X1280400Y-915000D01*
X1289900Y-902000D01*
X1299199Y-915000D01*
X1304400Y-915000D01*
X1292500Y-898800D01*
X1303600Y-883500D01*
X1298500Y-883500D01*
X1289700Y-895600D01*
X1281000Y-883500D01*
G37*
G36*
X1257700Y-883500D02*
G01*
X1255260Y-883620D01*
X1252980Y-884000D01*
X1250820Y-884620D01*
X1248800Y-885500D01*
X1246960Y-886600D01*
X1245340Y-887880D01*
X1243960Y-889340D01*
X1242800Y-891000D01*
X1241880Y-892860D01*
X1241220Y-894880D01*
X1240840Y-897020D01*
X1240700Y-899300D01*
X1245200Y-899300D01*
X1245300Y-897560D01*
X1245600Y-895939D01*
X1246100Y-894460D01*
X1246800Y-893100D01*
X1247640Y-891820D01*
X1248640Y-890699D01*
X1249840Y-889720D01*
X1251200Y-888900D01*
X1252720Y-888240D01*
X1254340Y-887780D01*
X1256120Y-887500D01*
X1258000Y-887400D01*
X1266500Y-887400D01*
X1266500Y-911100D01*
X1258000Y-911100D01*
X1256120Y-911000D01*
X1254340Y-910720D01*
X1252720Y-910260D01*
X1251200Y-909599D01*
X1249840Y-908780D01*
X1248640Y-907800D01*
X1247640Y-906680D01*
X1246800Y-905400D01*
X1246100Y-904040D01*
X1245600Y-902580D01*
X1245300Y-901000D01*
X1245200Y-899300D01*
X1240700Y-899300D01*
X1240840Y-901540D01*
X1241220Y-903640D01*
X1241880Y-905639D01*
X1242800Y-907500D01*
X1243960Y-909160D01*
X1245340Y-910620D01*
X1246960Y-911900D01*
X1248800Y-913000D01*
X1250820Y-913880D01*
X1252980Y-914500D01*
X1255260Y-914880D01*
X1257700Y-915000D01*
X1271000Y-915000D01*
X1271000Y-883500D01*
G37*
G36*
X1317000Y-983500D02*
G01*
X1314560Y-983620D01*
X1312280Y-984000D01*
X1310120Y-984620D01*
X1308100Y-985500D01*
X1306300Y-986600D01*
X1304700Y-987880D01*
X1303300Y-989340D01*
X1302100Y-991000D01*
X1301180Y-992860D01*
X1300520Y-994880D01*
X1300140Y-997020D01*
X1300000Y-999300D01*
X1304500Y-999300D01*
X1304600Y-997560D01*
X1304900Y-995939D01*
X1305400Y-994460D01*
X1306100Y-993100D01*
X1306940Y-991820D01*
X1307960Y-990699D01*
X1309139Y-989720D01*
X1310500Y-988900D01*
X1312020Y-988240D01*
X1313640Y-987780D01*
X1315420Y-987500D01*
X1317300Y-987400D01*
X1325800Y-987400D01*
X1325800Y-1011100D01*
X1317300Y-1011100D01*
X1315420Y-1011000D01*
X1313640Y-1010720D01*
X1312020Y-1010260D01*
X1310500Y-1009599D01*
X1309139Y-1008780D01*
X1307960Y-1007800D01*
X1306940Y-1006680D01*
X1306100Y-1005400D01*
X1305400Y-1004040D01*
X1304900Y-1002580D01*
X1304600Y-1001000D01*
X1304500Y-999300D01*
X1300000Y-999300D01*
X1300140Y-1001540D01*
X1300520Y-1003640D01*
X1301180Y-1005639D01*
X1302100Y-1007500D01*
X1303300Y-1009160D01*
X1304700Y-1010620D01*
X1306300Y-1011900D01*
X1308100Y-1013000D01*
X1310120Y-1013880D01*
X1312280Y-1014500D01*
X1314560Y-1014880D01*
X1317000Y-1015000D01*
X1330300Y-1015000D01*
X1330300Y-983500D01*
G37*
G36*
X1272000Y-983500D02*
G01*
X1272000Y-987400D01*
X1282800Y-987400D01*
X1282800Y-1015000D01*
X1287300Y-1015000D01*
X1287300Y-987400D01*
X1298100Y-987400D01*
X1298100Y-983500D01*
G37*
G36*
X1254900Y-983500D02*
G01*
X1249380Y-984220D01*
X1245200Y-986400D01*
X1243660Y-988000D01*
X1242580Y-989880D01*
X1241920Y-992039D01*
X1241700Y-994500D01*
X1246200Y-994500D01*
X1246340Y-992900D01*
X1246780Y-991480D01*
X1247500Y-990240D01*
X1248500Y-989200D01*
X1249740Y-988420D01*
X1251220Y-987840D01*
X1252980Y-987520D01*
X1255000Y-987400D01*
X1262600Y-987400D01*
X1262600Y-1001600D01*
X1255000Y-1001600D01*
X1252980Y-1001480D01*
X1251220Y-1001120D01*
X1249740Y-1000540D01*
X1248500Y-999700D01*
X1247500Y-998700D01*
X1246780Y-997500D01*
X1246340Y-996100D01*
X1246200Y-994500D01*
X1241700Y-994500D01*
X1241820Y-996240D01*
X1242160Y-997840D01*
X1242720Y-999340D01*
X1243500Y-1000699D01*
X1244500Y-1001900D01*
X1245680Y-1002920D01*
X1247040Y-1003760D01*
X1248600Y-1004400D01*
X1241200Y-1015000D01*
X1246100Y-1015000D01*
X1252900Y-1005300D01*
X1254000Y-1005380D01*
X1262600Y-1005400D01*
X1262600Y-1015000D01*
X1267100Y-1015000D01*
X1267100Y-983500D01*
G37*
G36*
X153700Y-660000D02*
G01*
X151220Y-660500D01*
X149080Y-661979D01*
X147560Y-664380D01*
X147000Y-667700D01*
X149300Y-667700D01*
X149560Y-665180D01*
X150380Y-663040D01*
X151740Y-661560D01*
X153700Y-661000D01*
X155700Y-661560D01*
X157060Y-663040D01*
X157840Y-665180D01*
X158100Y-667700D01*
X157840Y-670180D01*
X157060Y-672320D01*
X155700Y-673840D01*
X153700Y-674400D01*
X151740Y-673840D01*
X150380Y-672320D01*
X149560Y-670180D01*
X149300Y-667700D01*
X147000Y-667700D01*
X147560Y-670920D01*
X149080Y-673300D01*
X151220Y-674780D01*
X153700Y-675300D01*
X156220Y-674800D01*
X158360Y-673340D01*
X159840Y-670960D01*
X160400Y-667700D01*
X159840Y-664479D01*
X158320Y-662039D01*
X156180Y-660520D01*
G37*
G36*
X138000Y-660000D02*
G01*
X135520Y-660500D01*
X133380Y-661979D01*
X131860Y-664380D01*
X131300Y-667700D01*
X133600Y-667700D01*
X133860Y-665180D01*
X134680Y-663040D01*
X136040Y-661560D01*
X138000Y-661000D01*
X140000Y-661560D01*
X141360Y-663040D01*
X142140Y-665180D01*
X142400Y-667700D01*
X142140Y-670180D01*
X141360Y-672320D01*
X140000Y-673840D01*
X138000Y-674400D01*
X136040Y-673840D01*
X134680Y-672320D01*
X133860Y-670180D01*
X133600Y-667700D01*
X131300Y-667700D01*
X131860Y-670920D01*
X133380Y-673300D01*
X135520Y-674780D01*
X138000Y-675300D01*
X140520Y-674800D01*
X142660Y-673340D01*
X144140Y-670960D01*
X144700Y-667700D01*
X144140Y-664479D01*
X142620Y-662039D01*
X140480Y-660520D01*
G37*
G36*
X167800Y-660300D02*
G01*
X165700Y-660560D01*
X164200Y-661320D01*
X163299Y-662460D01*
X163018Y-664000D01*
X164899Y-664000D01*
X165120Y-662720D01*
X165780Y-661840D01*
X166880Y-661360D01*
X168400Y-661200D01*
X169899Y-661200D01*
X169899Y-667000D01*
X168800Y-667000D01*
X167060Y-666820D01*
X165840Y-666240D01*
X165120Y-665320D01*
X164899Y-664000D01*
X163018Y-664000D01*
X163200Y-665000D01*
X163820Y-665980D01*
X164899Y-666760D01*
X166500Y-667300D01*
X164560Y-667840D01*
X163220Y-668660D01*
X162440Y-669740D01*
X162200Y-671000D01*
X164300Y-671000D01*
X164560Y-669620D01*
X165340Y-668660D01*
X166700Y-668080D01*
X168700Y-667900D01*
X169899Y-667900D01*
X169899Y-674100D01*
X168500Y-674100D01*
X166660Y-673900D01*
X165340Y-673300D01*
X164560Y-672320D01*
X164300Y-671000D01*
X162200Y-671000D01*
X162520Y-672460D01*
X163560Y-673740D01*
X165360Y-674659D01*
X168000Y-675000D01*
X174000Y-675000D01*
X174000Y-674200D01*
X172000Y-674000D01*
X171900Y-669640D01*
X172000Y-661300D01*
X174000Y-661100D01*
X174000Y-660300D01*
G37*
G36*
X117899Y-660300D02*
G01*
X117700Y-664200D01*
X118800Y-664200D01*
X119400Y-661300D01*
X122800Y-661300D01*
X122899Y-665660D01*
X122800Y-674000D01*
X120600Y-674200D01*
X120600Y-675000D01*
X127200Y-675000D01*
X127200Y-674200D01*
X124900Y-674000D01*
X124900Y-661300D01*
X128400Y-661300D01*
X129000Y-664200D01*
X130100Y-664200D01*
X129900Y-660300D01*
G37*
G36*
X100600Y-660300D02*
G01*
X98539Y-660560D01*
X97040Y-661320D01*
X96120Y-662460D01*
X95818Y-664000D01*
X97800Y-664000D01*
X98000Y-662720D01*
X98640Y-661840D01*
X99700Y-661360D01*
X101199Y-661200D01*
X102700Y-661200D01*
X102800Y-667000D01*
X101600Y-667000D01*
X99900Y-666820D01*
X98720Y-666240D01*
X98020Y-665320D01*
X97800Y-664000D01*
X95818Y-664000D01*
X96000Y-665000D01*
X96620Y-665980D01*
X97700Y-666760D01*
X99300Y-667300D01*
X97380Y-667840D01*
X96080Y-668660D01*
X95340Y-669740D01*
X95100Y-671000D01*
X97200Y-671000D01*
X97440Y-669620D01*
X98219Y-668660D01*
X99560Y-668080D01*
X101500Y-667900D01*
X102800Y-667900D01*
X102700Y-674100D01*
X101300Y-674100D01*
X99520Y-673900D01*
X98240Y-673300D01*
X97460Y-672320D01*
X97200Y-671000D01*
X95100Y-671000D01*
X95420Y-672460D01*
X96420Y-673740D01*
X98219Y-674659D01*
X100900Y-675000D01*
X106900Y-675000D01*
X106900Y-674200D01*
X104800Y-674000D01*
X104800Y-661300D01*
X106900Y-661100D01*
X106900Y-660300D01*
G37*
G36*
X81900Y-660300D02*
G01*
X81800Y-664200D01*
X82800Y-664200D01*
X83500Y-661300D01*
X86900Y-661300D01*
X86900Y-674000D01*
X84600Y-674200D01*
X84600Y-675000D01*
X91199Y-675000D01*
X91199Y-674200D01*
X89000Y-674000D01*
X88900Y-665660D01*
X89000Y-661300D01*
X92400Y-661300D01*
X93000Y-664200D01*
X94100Y-664200D01*
X93900Y-660300D01*
G37*
G36*
X108699Y-675100D02*
G01*
X108699Y-676400D01*
X118200Y-676400D01*
X118200Y-675100D01*
G37*
G36*
X153200Y-310300D02*
G01*
X153000Y-314200D01*
X154100Y-314200D01*
X154700Y-311300D01*
X159900Y-311300D01*
X159900Y-317100D01*
X156600Y-317100D01*
X156300Y-314900D01*
X155400Y-314900D01*
X155400Y-320100D01*
X156300Y-320100D01*
X156600Y-318000D01*
X159900Y-318000D01*
X159900Y-324000D01*
X154300Y-324000D01*
X153700Y-321100D01*
X152600Y-321100D01*
X152700Y-325000D01*
X164000Y-325000D01*
X164000Y-324200D01*
X162000Y-324000D01*
X161900Y-315660D01*
X162000Y-311300D01*
X164000Y-311100D01*
X164000Y-310300D01*
G37*
G36*
X136600Y-310300D02*
G01*
X136600Y-311100D01*
X138400Y-311400D01*
X138400Y-325100D01*
X139200Y-325100D01*
X148200Y-312900D01*
X148100Y-323900D01*
X145800Y-324200D01*
X145800Y-325000D01*
X151000Y-325000D01*
X151000Y-324200D01*
X149100Y-324000D01*
X149100Y-311600D01*
X149300Y-311300D01*
X150900Y-311100D01*
X150900Y-310300D01*
X147500Y-310300D01*
X139400Y-321500D01*
X139400Y-311400D01*
X141800Y-311100D01*
X141800Y-310300D01*
G37*
G36*
X118500Y-310300D02*
G01*
X116440Y-310560D01*
X114940Y-311320D01*
X114019Y-312460D01*
X113718Y-314000D01*
X115700Y-314000D01*
X115900Y-312720D01*
X116540Y-311840D01*
X117600Y-311360D01*
X119100Y-311200D01*
X120600Y-311200D01*
X120700Y-317000D01*
X119500Y-317000D01*
X117800Y-316820D01*
X116620Y-316240D01*
X115920Y-315320D01*
X115700Y-314000D01*
X113718Y-314000D01*
X113900Y-315000D01*
X114520Y-315980D01*
X115600Y-316760D01*
X117200Y-317300D01*
X115280Y-317840D01*
X113980Y-318660D01*
X113240Y-319740D01*
X113000Y-321000D01*
X115100Y-321000D01*
X115340Y-319620D01*
X116120Y-318660D01*
X117460Y-318080D01*
X119400Y-317900D01*
X120700Y-317900D01*
X120600Y-324099D01*
X119200Y-324099D01*
X117420Y-323900D01*
X116140Y-323300D01*
X115360Y-322320D01*
X115100Y-321000D01*
X113000Y-321000D01*
X113320Y-322460D01*
X114320Y-323740D01*
X116120Y-324660D01*
X118800Y-325000D01*
X124800Y-325000D01*
X124800Y-324200D01*
X122700Y-324000D01*
X122700Y-311300D01*
X124800Y-311100D01*
X124800Y-310300D01*
G37*
G36*
X99800Y-310300D02*
G01*
X99700Y-314200D01*
X100700Y-314200D01*
X101400Y-311300D01*
X104800Y-311300D01*
X104800Y-324000D01*
X102500Y-324200D01*
X102500Y-325000D01*
X109100Y-325000D01*
X109100Y-324200D01*
X106900Y-324000D01*
X106800Y-315660D01*
X106900Y-311300D01*
X110300Y-311300D01*
X110900Y-314200D01*
X112000Y-314200D01*
X111800Y-310300D01*
G37*
G36*
X126600Y-325100D02*
G01*
X126600Y-326400D01*
X136100Y-326400D01*
X136100Y-325100D01*
G37*
G36*
X295900Y-1292500D02*
G01*
X294340Y-1292620D01*
X292940Y-1292980D01*
X291660Y-1293520D01*
X290500Y-1294199D01*
X290800Y-1298500D01*
X292500Y-1298500D01*
X293300Y-1294600D01*
X293920Y-1294280D01*
X294580Y-1294060D01*
X296000Y-1293899D01*
X297820Y-1294160D01*
X299280Y-1294920D01*
X300240Y-1296140D01*
X300600Y-1297800D01*
X300340Y-1299220D01*
X299600Y-1300360D01*
X298400Y-1301300D01*
X296800Y-1302100D01*
X295500Y-1302600D01*
X292700Y-1303920D01*
X290840Y-1305380D01*
X289820Y-1307100D01*
X289500Y-1309199D01*
X290080Y-1311819D01*
X291680Y-1313820D01*
X294140Y-1315060D01*
X297300Y-1315500D01*
X299140Y-1315360D01*
X300880Y-1314980D01*
X302420Y-1314400D01*
X303700Y-1313700D01*
X303400Y-1309100D01*
X301800Y-1309100D01*
X300900Y-1313200D01*
X300140Y-1313580D01*
X299340Y-1313820D01*
X298480Y-1313959D01*
X297500Y-1314000D01*
X295320Y-1313740D01*
X293640Y-1312960D01*
X292580Y-1311680D01*
X292200Y-1309900D01*
X292440Y-1308520D01*
X293180Y-1307420D01*
X294480Y-1306480D01*
X297600Y-1305100D01*
X299920Y-1303940D01*
X301720Y-1302520D01*
X302880Y-1300720D01*
X303300Y-1298500D01*
X302740Y-1295960D01*
X301180Y-1294079D01*
X298820Y-1292900D01*
G37*
G36*
X315000Y-1292900D02*
G01*
X310369Y-1306399D01*
X313400Y-1306399D01*
X316800Y-1296200D01*
X320200Y-1306399D01*
X310369Y-1306399D01*
X307900Y-1313600D01*
X305400Y-1313899D01*
X305400Y-1315000D01*
X314300Y-1315000D01*
X314300Y-1313899D01*
X311100Y-1313500D01*
X313000Y-1307700D01*
X320600Y-1307700D01*
X322500Y-1313400D01*
X319300Y-1313899D01*
X319300Y-1315000D01*
X326599Y-1315000D01*
X326599Y-1313899D01*
X323900Y-1313400D01*
X316900Y-1292900D01*
G37*
G36*
X347200Y-1293000D02*
G01*
X347000Y-1298800D01*
X348600Y-1298800D01*
X349500Y-1294500D01*
X357400Y-1294500D01*
X357400Y-1303200D01*
X352200Y-1303200D01*
X351800Y-1299900D01*
X350400Y-1299900D01*
X350400Y-1307900D01*
X351800Y-1307900D01*
X352200Y-1304500D01*
X357400Y-1304500D01*
X357400Y-1313500D01*
X354200Y-1313899D01*
X354200Y-1315000D01*
X363500Y-1315000D01*
X363500Y-1313899D01*
X360500Y-1313500D01*
X360400Y-1301020D01*
X360500Y-1294500D01*
X363500Y-1294100D01*
X363500Y-1293000D01*
G37*
G36*
X335500Y-1293000D02*
G01*
X335500Y-1294100D01*
X338600Y-1294500D01*
X338700Y-1307320D01*
X338600Y-1313600D01*
X331100Y-1313600D01*
X330000Y-1308800D01*
X328300Y-1308800D01*
X328500Y-1315000D01*
X344799Y-1315000D01*
X344799Y-1313899D01*
X341800Y-1313500D01*
X341700Y-1301020D01*
X341800Y-1294500D01*
X344799Y-1294100D01*
X344799Y-1293000D01*
G37*
G36*
X264000Y-1293000D02*
G01*
X264000Y-1294100D01*
X267100Y-1294500D01*
X267100Y-1313500D01*
X264000Y-1313899D01*
X264000Y-1315000D01*
X273200Y-1315000D01*
X273200Y-1313899D01*
X270200Y-1313500D01*
X270100Y-1304400D01*
X280800Y-1304400D01*
X280800Y-1313500D01*
X277700Y-1313899D01*
X277700Y-1315000D01*
X286900Y-1315000D01*
X286900Y-1313899D01*
X283900Y-1313500D01*
X283800Y-1301020D01*
X283900Y-1294500D01*
X286900Y-1294100D01*
X286900Y-1293000D01*
X277700Y-1293000D01*
X277700Y-1294100D01*
X280800Y-1294500D01*
X280800Y-1303100D01*
X270100Y-1303100D01*
X270200Y-1294500D01*
X273200Y-1294100D01*
X273200Y-1293000D01*
G37*
D10*
X530014Y-374250D02*
G01*
X511815Y-450650D01*
X493614Y-374250D02*
G01*
X511815Y-450650D01*
X493614Y-374250D02*
G01*
X475414Y-450650D01*
X457314Y-374250D02*
G01*
X475414Y-450650D01*
X433314Y-374250D02*
G01*
X433314Y-450650D01*
X409315Y-374250D02*
G01*
X409315Y-450650D01*
X409315Y-374250D02*
G01*
X362015Y-374250D01*
X409315Y-410650D02*
G01*
X380214Y-410650D01*
X338015Y-374250D02*
G01*
X338015Y-450650D01*
X625000Y-1394726D02*
G01*
X625000Y-1423364D01*
X625000Y-1394726D02*
G01*
X612726Y-1394726D01*
X608636Y-1396091D01*
X607273Y-1397455D01*
X605909Y-1400181D01*
X605909Y-1402908D01*
X607273Y-1405635D01*
X608636Y-1406999D01*
X612726Y-1408364D01*
X625000Y-1408364D01*
X615455Y-1408364D02*
G01*
X605909Y-1423364D01*
X596909Y-1394726D02*
G01*
X577818Y-1423364D01*
X577818Y-1394726D02*
G01*
X596909Y-1423364D01*
X520455Y-1394726D02*
G01*
X520455Y-1423364D01*
X530000Y-1394726D02*
G01*
X510909Y-1394726D01*
X501909Y-1394726D02*
G01*
X482818Y-1423364D01*
X482818Y-1394726D02*
G01*
X501909Y-1423364D01*
X442273Y-1394726D02*
G01*
X427273Y-1394726D01*
X435455Y-1405635D01*
X431363Y-1405635D01*
X428636Y-1406999D01*
X427273Y-1408364D01*
X425909Y-1412455D01*
X425909Y-1415181D01*
X427273Y-1419272D01*
X430000Y-1421999D01*
X434090Y-1423364D01*
X438182Y-1423364D01*
X442273Y-1421999D01*
X443636Y-1420635D01*
X445000Y-1417908D01*
X416909Y-1394726D02*
G01*
X405999Y-1423364D01*
X395091Y-1394726D02*
G01*
X405999Y-1423364D01*
X383364Y-1394726D02*
G01*
X368364Y-1394726D01*
X376545Y-1405635D01*
X372454Y-1405635D01*
X369726Y-1406999D01*
X368364Y-1408364D01*
X366999Y-1412455D01*
X366999Y-1415181D01*
X368364Y-1419272D01*
X371091Y-1421999D01*
X375181Y-1423364D01*
X379272Y-1423364D01*
X383364Y-1421999D01*
X384726Y-1420635D01*
X386091Y-1417908D01*
X719544Y-1401545D02*
G01*
X720909Y-1398818D01*
X723636Y-1396091D01*
X726363Y-1394726D01*
X731817Y-1394726D01*
X734544Y-1396091D01*
X737273Y-1398818D01*
X738636Y-1401545D01*
X740000Y-1405635D01*
X740000Y-1412455D01*
X738636Y-1416545D01*
X737273Y-1419272D01*
X734544Y-1421999D01*
X731817Y-1423364D01*
X726363Y-1423364D01*
X723636Y-1421999D01*
X720909Y-1419272D01*
X719544Y-1416545D01*
X719544Y-1412455D01*
X726363Y-1412455D02*
G01*
X719544Y-1412455D01*
X710545Y-1394726D02*
G01*
X710545Y-1423364D01*
X710545Y-1394726D02*
G01*
X691455Y-1423364D01*
X691455Y-1394726D02*
G01*
X691455Y-1423364D01*
X682454Y-1394726D02*
G01*
X682454Y-1423364D01*
X682454Y-1394726D02*
G01*
X672908Y-1394726D01*
X668818Y-1396091D01*
X666091Y-1398818D01*
X664726Y-1401545D01*
X663364Y-1405635D01*
X663364Y-1412455D01*
X664726Y-1416545D01*
X666091Y-1419272D01*
X668818Y-1421999D01*
X672908Y-1423364D01*
X682454Y-1423364D01*
G36*
X747560Y-46580D02*
G01*
X775120Y-74140D01*
X775120Y-50519D01*
X771180Y-46580D01*
G37*
D11*
X1210399Y-1054099D02*
G01*
X1224200Y-1054099D01*
X1224200Y-464000D01*
X1224200Y-435900D01*
X1125799Y-435900D01*
X1125799Y-1054099D01*
X1212399Y-1054099D01*
X1224211Y-945000D02*
G01*
X1125788Y-945000D01*
X1125788Y-1054841D02*
G01*
X1125788Y-435158D01*
X1224211Y-1054841D02*
G01*
X1125788Y-1054841D01*
X1224211Y-435158D02*
G01*
X1224211Y-1054841D01*
X1125788Y-435158D02*
G01*
X1224211Y-435158D01*
X59099Y-750599D02*
G01*
X59099Y-825399D01*
X94600Y-860900D01*
X165399Y-860900D01*
X204800Y-821500D01*
X204800Y-754600D01*
X169299Y-719099D01*
X90599Y-719099D01*
X59099Y-750599D01*
X29600Y-840199D02*
G01*
X64839Y-875439D01*
X84000Y-890399D02*
G01*
X175999Y-890399D01*
X195160Y-875439D02*
G01*
X230399Y-840199D01*
X84000Y-689600D02*
G01*
X175999Y-689600D01*
X195160Y-704560D02*
G01*
X230399Y-739800D01*
X29600Y-739800D02*
G01*
X64839Y-704560D01*
X230399Y-739800D02*
G01*
X230399Y-840199D01*
X29600Y-739800D02*
G01*
X29600Y-840199D01*
X307935Y-183969D02*
G01*
X307935Y-152474D01*
X307953Y-206033D02*
G01*
X307953Y-237528D01*
X252042Y-183969D02*
G01*
X252042Y-152474D01*
X252062Y-206033D02*
G01*
X252062Y-237528D01*
X295738Y-140279D02*
G01*
X264239Y-140279D01*
X264261Y-249724D02*
G01*
X295758Y-249724D01*
X362064Y-206030D02*
G01*
X362064Y-237525D01*
X362046Y-183966D02*
G01*
X362046Y-152471D01*
X417957Y-206030D02*
G01*
X417957Y-237525D01*
X417937Y-183966D02*
G01*
X417937Y-152471D01*
X374261Y-249720D02*
G01*
X405760Y-249720D01*
X405738Y-140275D02*
G01*
X374241Y-140275D01*
D12*
X360574Y-1458692D02*
G01*
X360574Y-1514205D01*
X289425Y-1514205D02*
G01*
X289425Y-1458692D01*
X295425Y-1452692D02*
G01*
X354574Y-1452692D01*
X360574Y-1601307D02*
G01*
X360574Y-1545794D01*
X289425Y-1545794D02*
G01*
X289425Y-1601307D01*
X295425Y-1607307D02*
G01*
X354574Y-1607307D01*
X445574Y-1458692D02*
G01*
X445574Y-1514205D01*
X374425Y-1514205D02*
G01*
X374425Y-1458692D01*
X380425Y-1452692D02*
G01*
X439574Y-1452692D01*
X445574Y-1601307D02*
G01*
X445574Y-1545794D01*
X374425Y-1545794D02*
G01*
X374425Y-1601307D01*
X380425Y-1607307D02*
G01*
X439574Y-1607307D01*
X190574Y-1458692D02*
G01*
X190574Y-1514205D01*
X119425Y-1514205D02*
G01*
X119425Y-1458692D01*
X125425Y-1452692D02*
G01*
X184574Y-1452692D01*
X190574Y-1601307D02*
G01*
X190574Y-1545794D01*
X119425Y-1545794D02*
G01*
X119425Y-1601307D01*
X125425Y-1607307D02*
G01*
X184574Y-1607307D01*
X275574Y-1458692D02*
G01*
X275574Y-1514205D01*
X204425Y-1514205D02*
G01*
X204425Y-1458692D01*
X210425Y-1452692D02*
G01*
X269574Y-1452692D01*
X275574Y-1601307D02*
G01*
X275574Y-1545794D01*
X204425Y-1545794D02*
G01*
X204425Y-1601307D01*
X210425Y-1607307D02*
G01*
X269574Y-1607307D01*
D11*
X200900Y-479400D02*
G01*
X200900Y-404600D01*
X165399Y-369099D01*
X94600Y-369099D01*
X55199Y-408499D01*
X55199Y-475399D01*
X90700Y-510900D01*
X169400Y-510900D01*
X200900Y-479400D01*
X230399Y-389800D02*
G01*
X195160Y-354560D01*
X175999Y-339600D02*
G01*
X84000Y-339600D01*
X64839Y-354560D02*
G01*
X29600Y-389800D01*
X175999Y-540399D02*
G01*
X84000Y-540399D01*
X64839Y-525439D02*
G01*
X29600Y-490199D01*
X230399Y-490199D02*
G01*
X195160Y-525439D01*
X29600Y-490199D02*
G01*
X29600Y-389800D01*
X230399Y-490199D02*
G01*
X230399Y-389800D01*
D12*
X33894Y-1511251D02*
G01*
X33894Y-1460664D01*
X106105Y-1460664D01*
X106105Y-1511251D01*
X33894Y-1548748D02*
G01*
X33894Y-1599335D01*
X106105Y-1599335D01*
X106105Y-1548748D01*
X434425Y-246307D02*
G01*
X434425Y-190794D01*
X505574Y-190794D02*
G01*
X505574Y-246307D01*
X499574Y-252307D02*
G01*
X440425Y-252307D01*
X434425Y-103692D02*
G01*
X434425Y-159205D01*
X505574Y-159205D02*
G01*
X505574Y-103692D01*
X499574Y-97692D02*
G01*
X440425Y-97692D01*
D11*
X565738Y-140275D02*
G01*
X534241Y-140275D01*
X577937Y-183966D02*
G01*
X577937Y-152471D01*
X522046Y-183966D02*
G01*
X522046Y-152471D01*
X578166Y-206639D02*
G01*
X578166Y-238135D01*
X565969Y-250333D02*
G01*
X534474Y-250333D01*
X522276Y-206639D02*
G01*
X522276Y-238135D01*
X714261Y-1249724D02*
G01*
X745758Y-1249724D01*
X702062Y-1206033D02*
G01*
X702062Y-1237528D01*
X757953Y-1206033D02*
G01*
X757953Y-1237528D01*
X701833Y-1183360D02*
G01*
X701833Y-1151864D01*
X714031Y-1139666D02*
G01*
X745525Y-1139666D01*
X757723Y-1183360D02*
G01*
X757723Y-1151864D01*
D12*
X1273007Y-1131520D02*
G01*
X1330190Y-1131520D01*
X1330190Y-1172134D01*
X1273007Y-1251694D02*
G01*
X1330190Y-1251694D01*
X1330190Y-1211078D01*
X1273007Y-1173678D02*
G01*
X1273007Y-1209535D01*
X1273007Y-1266520D02*
G01*
X1330190Y-1266520D01*
X1330190Y-1307134D01*
X1273007Y-1386694D02*
G01*
X1330190Y-1386694D01*
X1330190Y-1346078D01*
X1273007Y-1308678D02*
G01*
X1273007Y-1344535D01*
X1229629Y-1251093D02*
G01*
X1229629Y-1222824D01*
X1190370Y-1222824D01*
X1190370Y-1251093D01*
X1229629Y-1268906D02*
G01*
X1229629Y-1297175D01*
X1190370Y-1297175D01*
X1190370Y-1268906D01*
X1145370Y-1268906D02*
G01*
X1145370Y-1297175D01*
X1184629Y-1297175D01*
X1184629Y-1268906D01*
X1145370Y-1251093D02*
G01*
X1145370Y-1222824D01*
X1184629Y-1222824D01*
X1184629Y-1251093D01*
X358906Y-124630D02*
G01*
X387175Y-124630D01*
X387175Y-85369D01*
X358906Y-85369D01*
X341093Y-124630D02*
G01*
X312824Y-124630D01*
X312824Y-85369D01*
X341093Y-85369D01*
X95369Y-948906D02*
G01*
X95369Y-977175D01*
X134630Y-977175D01*
X134630Y-948906D01*
X95369Y-931093D02*
G01*
X95369Y-902824D01*
X134630Y-902824D01*
X134630Y-931093D01*
X640369Y-1143906D02*
G01*
X640369Y-1172175D01*
X679630Y-1172175D01*
X679630Y-1143906D01*
X640369Y-1126093D02*
G01*
X640369Y-1097824D01*
X679630Y-1097824D01*
X679630Y-1126093D01*
X239630Y-1121091D02*
G01*
X239630Y-1092822D01*
X200369Y-1092822D01*
X200369Y-1121091D01*
X239630Y-1138904D02*
G01*
X239630Y-1167172D01*
X200369Y-1167172D01*
X200369Y-1138904D01*
X679630Y-1226093D02*
G01*
X679630Y-1197824D01*
X640369Y-1197824D01*
X640369Y-1226093D01*
X679630Y-1243906D02*
G01*
X679630Y-1272175D01*
X640369Y-1272175D01*
X640369Y-1243906D01*
D11*
X1007947Y-305475D02*
G01*
X252037Y-305475D01*
X252037Y-1014135D01*
X1007947Y-1014135D01*
X1007947Y-305475D01*
D12*
X520684Y-1081111D02*
G01*
X349313Y-1081111D01*
X349313Y-1288883D01*
X520684Y-1288883D01*
X520684Y-1081111D01*
D11*
X775118Y-74133D02*
G01*
X775118Y-46574D01*
X775118Y-46574D01*
X747557Y-46574D01*
X775118Y-74144D01*
X621572Y-243427D02*
G01*
X818423Y-243427D01*
X621572Y-114702D02*
G01*
X621572Y-175302D01*
X621572Y-238712D02*
G01*
X621572Y-243427D01*
X621572Y-46577D02*
G01*
X621572Y-51291D01*
X818423Y-46577D02*
G01*
X621572Y-46577D01*
X818423Y-51291D02*
G01*
X818423Y-46577D01*
X818423Y-243427D02*
G01*
X818423Y-238712D01*
X818423Y-175302D02*
G01*
X818423Y-114702D01*
D12*
X280952Y-1726008D02*
G01*
X19047Y-1726008D01*
X19047Y-1833991D01*
X280952Y-1833991D01*
X280952Y-1726008D01*
D11*
X29996Y-2274998D02*
G01*
X29996Y-1959998D01*
X29996Y-1959998D02*
G01*
X229996Y-1959998D01*
X229996Y-2274998D02*
G01*
X229996Y-1959998D01*
G75*
G01*
X252062Y-237527D02*
G03*
X264261Y-249725I12198J0D01*
G75*
G01*
X295756Y-249725D02*
G03*
X307954Y-237527I0J12198D01*
G75*
G01*
X307936Y-152476D02*
G03*
X295738Y-140279I-12198J-1D01*
G75*
G01*
X264243Y-140279D02*
G03*
X252043Y-152476I-2J-12198D01*
G75*
G01*
X417938Y-152473D02*
G03*
X405739Y-140275I-12198J0D01*
G75*
G01*
X374244Y-140275D02*
G03*
X362046Y-152473I0J-12198D01*
G75*
G01*
X362064Y-237524D02*
G03*
X374262Y-249721I12198J1D01*
G75*
G01*
X405757Y-249721D02*
G03*
X417957Y-237524I2J12198D01*
D12*
G75*
G01*
X289425Y-1458693D02*
G02*
X295425Y-1452693I6000J0D01*
G75*
G01*
X354575Y-1452693D02*
G02*
X360575Y-1458693I0J-6000D01*
G75*
G01*
X289425Y-1601307D02*
G03*
X295425Y-1607307I6000J0D01*
G75*
G01*
X354575Y-1607307D02*
G03*
X360575Y-1601307I0J6000D01*
G75*
G01*
X374425Y-1458693D02*
G02*
X380425Y-1452693I6000J0D01*
G75*
G01*
X439575Y-1452693D02*
G02*
X445575Y-1458693I0J-6000D01*
G75*
G01*
X374425Y-1601307D02*
G03*
X380425Y-1607307I6000J0D01*
G75*
G01*
X439575Y-1607307D02*
G03*
X445575Y-1601307I0J6000D01*
G75*
G01*
X119425Y-1458693D02*
G02*
X125425Y-1452693I6000J0D01*
G75*
G01*
X184575Y-1452693D02*
G02*
X190575Y-1458693I0J-6000D01*
G75*
G01*
X119425Y-1601307D02*
G03*
X125425Y-1607307I6000J0D01*
G75*
G01*
X184575Y-1607307D02*
G03*
X190575Y-1601307I0J6000D01*
G75*
G01*
X204425Y-1458693D02*
G02*
X210425Y-1452693I6000J0D01*
G75*
G01*
X269575Y-1452693D02*
G02*
X275575Y-1458693I0J-6000D01*
G75*
G01*
X204425Y-1601307D02*
G03*
X210425Y-1607307I6000J0D01*
G75*
G01*
X269575Y-1607307D02*
G03*
X275575Y-1601307I0J6000D01*
G75*
G01*
X505575Y-246307D02*
G02*
X499575Y-252307I-6000J0D01*
G75*
G01*
X440425Y-252307D02*
G02*
X434425Y-246307I0J6000D01*
G75*
G01*
X505575Y-103693D02*
G03*
X499575Y-97693I-6000J0D01*
G75*
G01*
X440425Y-97693D02*
G03*
X434425Y-103693I0J-6000D01*
D11*
G75*
G01*
X565969Y-250335D02*
G03*
X578167Y-238137I0J12198D01*
G75*
G01*
X522275Y-238137D02*
G03*
X534474Y-250335I12198J0D01*
G75*
G01*
X577938Y-152473D02*
G03*
X565739Y-140275I-12198J0D01*
G75*
G01*
X534244Y-140275D02*
G03*
X522046Y-152473I0J-12198D01*
G75*
G01*
X714031Y-1139665D02*
G03*
X701833Y-1151863I0J-12198D01*
G75*
G01*
X757725Y-1151863D02*
G03*
X745526Y-1139665I-12198J0D01*
G75*
G01*
X702062Y-1237527D02*
G03*
X714261Y-1249725I12198J0D01*
G75*
G01*
X745756Y-1249725D02*
G03*
X757954Y-1237527I0J12198D01*
G75*
G01*
X29997Y-2269999D02*
G03*
X229997Y-2269999I100000J0D01*
G75*
G01
X180200Y-790000D02*
G03X180200Y-790000I-50200J0D01*
G75*
G01
X180200Y-440000D02*
G03X180200Y-440000I-50200J0D01*
D13*
G75*
G01
X258050Y-255480D02*
G03X258050Y-255480I-9150J0D01*
D11*
G75*
G01
X438470Y-895050D02*
G03X438470Y-895050I-59060J0D01*
G75*
G01
X407300Y-895050D02*
G03X407300Y-895050I-27890J0D01*
D14*
G75*
G01
X496970Y-1110000D02*
G03X496970Y-1110000I-5910J0D01*
G75*
G01
X579890Y-1079790D02*
G03X579890Y-1079790I-5910J0D01*
D11*
G75*
G01
X779090Y-145000D02*
G03X779090Y-145000I-59060J0D01*
G75*
G01
X605840Y-243420D02*
G03X605840Y-243420I-3940J0D01*
M02*
